AllBirdsCombinations-Skinny.ufo
<glyph name="quotedouble" format="2">
  <advance width="260.8"/>
  <unicode hex="0022"/>
  <outline>
    <contour>
      <point x="32.900001525878906" y="700" type="line"/>
      <point x="64.73761993376627" y="700.0"/>
      <point x="112.8999991902372" y="716.3176622153569"/>
      <point x="112.90000025932481" y="800.3941328470045" type="curve"/>
      <point x="112.9000015258789" y="900" type="line"/>
      <point x="32.900001525878906" y="900" type="line"/>
    </contour>
    <contour>
      <point x="147.9000015258789" y="700" type="line"/>
      <point x="179.73761993376627" y="700.0"/>
      <point x="227.8999991902372" y="716.3176622153569"/>
      <point x="227.90000025932483" y="800.3941328470045" type="curve"/>
      <point x="227.9000015258789" y="900" type="line"/>
      <point x="147.9000015258789" y="900" type="line"/>
    </contour>
  </outline>
</glyph>
<glyph name="numbersign" format="2">
  <advance width="486.7863075134336"/>
  <unicode hex="0023"/>
  <outline>
    <contour>
      <point x="75.56564331054688" y="-5" type="line"/>
      <point x="94.09930031927135" y="-5.0"/>
      <point x="156.44121543371938" y="0.0422324674318304"/>
      <point x="173.10568664815182" y="96.00909116779346" type="curve"/>
      <point x="192.9000015258789" y="210" type="line"/>
      <point x="227.9000015258789" y="210" type="line"/>
      <point x="190.56564331054688" y="-5" type="line"/>
      <point x="209.09930031927135" y="-5.0"/>
      <point x="271.4412154337193" y="0.04223246743185882"/>
      <point x="288.1056866481518" y="96.00909116779349" type="curve"/>
      <point x="307.9000015258789" y="210" type="line"/>
      <point x="352.0532" y="210.0"/>
      <point x="394.12473149519093" y="245.8468"/>
      <point x="401.79185421335444" y="290.0" type="curve"/>
      <point x="321.79185485839844" y="290" type="line"/>
      <point x="411.22066497802734" y="805" type="line"/>
      <point x="392.68700796930284" y="805.0"/>
      <point x="330.345091661921" y="799.9577676051172"/>
      <point x="313.68062098238045" y="703.9909088118726" type="curve"/>
      <point x="293.8863067626953" y="590" type="line"/>
      <point x="258.8863067626953" y="590" type="line"/>
      <point x="296.22066497802734" y="805" type="line"/>
      <point x="277.68700796930284" y="805.0"/>
      <point x="215.345091661921" y="799.9577676051172"/>
      <point x="198.68062098238042" y="703.9909088118726" type="curve"/>
      <point x="178.8863067626953" y="590" type="line"/>
      <point x="134.73310751343357" y="590.0"/>
      <point x="92.66157601824264" y="554.1532"/>
      <point x="84.99445330007913" y="510.0" type="curve"/>
      <point x="164.99445343017578" y="510" type="line"/>
      <point x="126.79185485839844" y="290" type="line"/>
      <point x="82.63865421335444" y="290.0"/>
      <point x="40.56712271816351" y="254.1532"/>
      <point x="32.9" y="210.0" type="curve"/>
      <point x="112.9000015258789" y="210" type="line"/>
    </contour>
    <contour>
      <point x="359.9944533000791" y="510.0" type="line"/>
      <point x="404.1476533000791" y="510.0"/>
      <point x="446.21918479527005" y="545.8468"/>
      <point x="453.88630751343356" y="590.0" type="curve"/>
      <point x="373.88630751343356" y="590.0" type="line"/>
    </contour>
    <contour>
      <point x="241.79185485839844" y="290" type="line"/>
      <point x="206.79185485839844" y="290" type="line"/>
      <point x="244.99445343017578" y="510" type="line"/>
      <point x="279.9944534301758" y="510" type="line"/>
    </contour>
  </outline>
</glyph>
<glyph name="dollar" format="2">
  <advance width="260.8"/>
  <unicode hex="0024"/>
  <outline>
    <contour>
      <point x="32.9000013529957" y="460.3941328311726" type="line"/>
      <point x="32.90000206572077" y="376.3176629043205"/>
      <point x="81.06238159211266" y="360.0"/>
      <point x="112.9" y="360.0" type="curve"/>
      <point x="112.9000015258789" y="800" type="line"/>
      <point x="72.9000015258789" y="800" type="line"/>
      <point x="72.9000015258789" y="689.2539215087891" type="line"/>
      <point x="34.0936332616949" y="666.8327167449743"/>
      <point x="32.89999990944335" y="630.6824979203517"/>
      <point x="32.90000017288321" y="599.6058671602291" type="curve"/>
    </contour>
    <contour>
      <point x="145.4000015258789" y="720.3941328311726" type="line"/>
      <point x="145.4000015258789" y="636.3176629043205"/>
      <point x="193.56238159211267" y="620.0"/>
      <point x="225.4" y="620.0" type="curve"/>
      <point x="225.4000015258789" y="700" type="line"/>
      <point x="185.4000015258789" y="700" type="line"/>
      <point x="185.4000015258789" y="800" type="line"/>
      <point x="145.4000015258789" y="800" type="line"/>
    </contour>
    <contour>
      <point x="147.9000015258789" y="0" type="line"/>
      <point x="187.9000015258789" y="0" type="line"/>
      <point x="187.9000015258789" y="110.74608612060547" type="line"/>
      <point x="226.70637391516001" y="133.1672837447472"/>
      <point x="227.89999990944335" y="169.31750207964828"/>
      <point x="227.9000001728832" y="200.39413297984697" type="curve"/>
      <point x="227.9000013529957" y="339.6058664481999" type="line"/>
      <point x="227.90000206572077" y="423.682336375052"/>
      <point x="179.73761840788734" y="440.0"/>
      <point x="147.9" y="440.0" type="curve"/>
    </contour>
    <contour>
      <point x="72.9000015258789" y="0" type="line"/>
      <point x="112.9000015258789" y="0" type="line"/>
      <point x="112.9000015258789" y="79.60586644819995" type="line"/>
      <point x="112.9000015258789" y="163.68233637505205"/>
      <point x="64.73761840788734" y="180.0"/>
      <point x="32.9" y="180.0" type="curve"/>
      <point x="32.900001525878906" y="100" type="line"/>
      <point x="72.9000015258789" y="100" type="line"/>
    </contour>
  </outline>
</glyph>
<glyph name="ampersand" format="2">
  <advance width="340.8"/>
  <unicode hex="0026"/>
  <outline>
    <contour>
      <point x="32.9000013962165" y="500.3941328311726" type="line"/>
      <point x="32.900001930760304" y="416.3176629043205"/>
      <point x="81.06238159211266" y="400.0"/>
      <point x="112.9" y="400.0" type="curve"/>
      <point x="112.9000015258789" y="800" type="line"/>
      <point x="81.06238311799154" y="800.0"/>
      <point x="32.8999995951186" y="783.682336375052"/>
      <point x="32.900000129662416" y="699.6058657434045" type="curve"/>
    </contour>
    <contour>
      <point x="142.9" y="800.0" type="line"/>
      <point x="142.9" y="755.8468"/>
      <point x="178.7468" y="720.0"/>
      <point x="222.9" y="720.0" type="curve"/>
      <point x="222.9" y="800.0" type="line"/>
    </contour>
    <contour>
      <point x="147.9000015258789" y="-5" type="line"/>
      <point x="179.73761993376627" y="-5.0"/>
      <point x="227.8999997183434" y="11.317662215356847"/>
      <point x="227.90000009019994" y="95.39413284700446" type="curve"/>
      <point x="227.9000015258789" y="420" type="line"/>
      <point x="272.0532" y="420.0"/>
      <point x="307.9" y="455.8468"/>
      <point x="307.9" y="500.0" type="curve"/>
      <point x="267.9000015258789" y="500.0" type="line"/>
      <point x="158.0590916143067" y="500.0"/>
      <point x="147.89999977775142" y="481.9024595005131"/>
      <point x="147.90000007322112" y="399.6058657434045" type="curve"/>
    </contour>
    <contour>
      <point x="32.90000139886267" y="95.39413283117261" type="line"/>
      <point x="32.90000192249742" y="11.317662904320528"/>
      <point x="81.06238159211266" y="-4.9999999999999964"/>
      <point x="112.9" y="-5.0" type="curve"/>
      <point x="112.9000015258789" y="400" type="line"/>
      <point x="81.06238311799154" y="400.0"/>
      <point x="32.8999996033815" y="383.6823363750521"/>
      <point x="32.90000012701624" y="299.6058657434045" type="curve"/>
    </contour>
  </outline>
</glyph>
<glyph name="parenleft" format="2">
  <advance width="145.8"/>
  <unicode hex="0028"/>
  <outline>
    <contour>
      <point x="32.9000014888325" y="0.394132831172616" type="line"/>
      <point x="32.90000164155931" y="-83.68233709567947"/>
      <point x="81.06238159211266" y="-100.0"/>
      <point x="112.9" y="-100.0" type="curve"/>
      <point x="112.9000015258789" y="900" type="line"/>
      <point x="81.06238311799154" y="900.0"/>
      <point x="32.89999988431961" y="883.682336375052"/>
      <point x="32.900000037046404" y="799.6058657434045" type="curve"/>
    </contour>
  </outline>
</glyph>
<glyph name="parenright" format="2">
  <advance width="145.8"/>
  <unicode hex="0029"/>
  <outline>
    <contour>
      <point x="32.900001525878906" y="-100" type="line"/>
      <point x="64.73761993376627" y="-100.0"/>
      <point x="112.89999988431961" y="-83.68233778464315"/>
      <point x="112.90000003704641" y="0.3941328470044567" type="curve"/>
      <point x="112.9000014888325" y="799.6058664482" type="line"/>
      <point x="112.9000016415593" y="883.682336375052"/>
      <point x="64.73761840788734" y="900.0"/>
      <point x="32.9" y="900.0" type="curve"/>
    </contour>
  </outline>
</glyph>
<glyph name="two" format="2">
  <advance width="260.8"/>
  <unicode hex="0032"/>
  <outline>
    <contour>
      <point x="120.4" y="760.0" type="curve" smooth="yes"/>
      <point x="120.4" y="784.83618"/>
      <point x="100.23617999999999" y="805.0"/>
      <point x="75.4" y="805.0" type="curve" smooth="yes"/>
      <point x="50.56382" y="805.0"/>
      <point x="30.4" y="784.83618"/>
      <point x="30.4" y="760.0" type="curve" smooth="yes"/>
      <point x="30.4" y="735.16382"/>
      <point x="50.56382" y="715.0"/>
      <point x="75.4" y="715.0" type="curve" smooth="yes"/>
      <point x="100.23617999999999" y="715.0"/>
      <point x="120.4" y="735.16382"/>
    </contour>
    <contour>
      <point x="147.9000015258789" y="145" type="line"/>
      <point x="179.73761993376627" y="145.0"/>
      <point x="227.89999980565693" y="161.31766221535685"/>
      <point x="227.90000006223795" y="245.39413284700447" type="curve"/>
      <point x="227.90000146364096" y="704.6058664482" type="line"/>
      <point x="227.90000172022198" y="788.682336375052"/>
      <point x="179.73761840788734" y="805.0"/>
      <point x="147.9" y="805.0" type="curve"/>
    </contour>
    <contour>
      <point x="32.9" y="0.0" type="curve"/>
      <point x="227.9000015258789" y="0" type="line"/>
      <point x="227.9000015258789" y="80" type="line"/>
      <point x="133.2941357824744" y="80.0" type="line"/>
      <point x="49.217665855622315" y="80.00000000000001"/>
      <point x="32.9" y="31.837618407887348"/>
    </contour>
  </outline>
</glyph>
<glyph name="three" format="2">
  <advance width="260.8"/>
  <unicode hex="0033"/>
  <outline>
    <contour>
      <point x="117.9" y="760.0" type="curve" smooth="yes"/>
      <point x="117.9" y="784.83618"/>
      <point x="97.73617999999999" y="805.0"/>
      <point x="72.9" y="805.0" type="curve" smooth="yes"/>
      <point x="48.06382" y="805.0"/>
      <point x="27.9" y="784.83618"/>
      <point x="27.9" y="760.0" type="curve" smooth="yes"/>
      <point x="27.9" y="735.16382"/>
      <point x="48.06382" y="715.0"/>
      <point x="72.9" y="715.0" type="curve" smooth="yes"/>
      <point x="97.73617999999999" y="715.0"/>
      <point x="117.9" y="735.16382"/>
    </contour>
    <contour>
      <point x="147.9000015258789" y="400" type="line"/>
      <point x="179.73761993376627" y="400.0"/>
      <point x="227.89999960338147" y="416.31766221535685"/>
      <point x="227.90000012701623" y="500.39413284700447" type="curve"/>
      <point x="227.90000139886266" y="704.6058664482" type="line"/>
      <point x="227.9000019224974" y="788.682336375052"/>
      <point x="179.73761840788734" y="805.0"/>
      <point x="147.9" y="805.0" type="curve"/>
    </contour>
    <contour>
      <point x="147.9000015258789" y="-5" type="line"/>
      <point x="179.73761993376627" y="-5.0"/>
      <point x="227.89999960338147" y="11.317662215356847"/>
      <point x="227.90000012701623" y="95.39413284700446" type="curve"/>
      <point x="227.90000139886266" y="299.6058664481999" type="line"/>
      <point x="227.9000019224974" y="383.682336375052"/>
      <point x="179.73761840788734" y="400.0"/>
      <point x="147.9" y="400.0" type="curve"/>
    </contour>
    <contour>
      <point x="117.9" y="40.0" type="curve" smooth="yes"/>
      <point x="117.9" y="64.83618"/>
      <point x="97.73617999999999" y="85.0"/>
      <point x="72.9" y="85.0" type="curve" smooth="yes"/>
      <point x="48.06382" y="85.0"/>
      <point x="27.9" y="64.83618"/>
      <point x="27.9" y="40.0" type="curve" smooth="yes"/>
      <point x="27.9" y="15.16382"/>
      <point x="48.06382" y="-5.0"/>
      <point x="72.9" y="-5.0" type="curve" smooth="yes"/>
      <point x="97.73617999999999" y="-5.0"/>
      <point x="117.9" y="15.16382"/>
    </contour>
  </outline>
</glyph>
<glyph name="four" format="2">
  <advance width="260.8"/>
  <unicode hex="0034"/>
  <outline>
    <contour>
      <point x="32.900001525878906" y="300" type="line"/>
      <point x="64.73761993376627" y="300.0"/>
      <point x="112.8999997686392" y="316.31766221535685"/>
      <point x="112.9000000740928" y="400.39413284700447" type="curve"/>
      <point x="112.9000015258789" y="800" type="line"/>
      <point x="32.900001525878906" y="800" type="line"/>
    </contour>
    <contour>
      <point x="147.9000015258789" y="0" type="line"/>
      <point x="227.9000015258789" y="0" type="line"/>
      <point x="227.9000015258789" y="500" type="line"/>
      <point x="147.9000015258789" y="500" type="line"/>
    </contour>
  </outline>
</glyph>
<glyph name="five" format="2">
  <advance width="260.8"/>
  <unicode hex="0035"/>
  <outline>
    <contour>
      <point x="35.400001525878906" y="460.3941328311726" type="line"/>
      <point x="35.40000152587891" y="376.3176629043205"/>
      <point x="83.56238159211266" y="360.0"/>
      <point x="115.4" y="360.0" type="curve"/>
      <point x="115.4000015258789" y="800" type="line"/>
      <point x="35.400001525878906" y="800" type="line"/>
    </contour>
    <contour>
      <point x="145.4" y="800.0" type="line"/>
      <point x="145.4" y="755.8468"/>
      <point x="181.2468" y="720.0"/>
      <point x="225.4" y="720.0" type="curve"/>
      <point x="225.4" y="800.0" type="line"/>
    </contour>
    <contour>
      <point x="147.9000015258789" y="-5" type="line"/>
      <point x="179.73761993376627" y="-5.0"/>
      <point x="227.89999965904727" y="11.317662215356847"/>
      <point x="227.9000001091894" y="95.39413284700446" type="curve"/>
      <point x="227.90000141668952" y="339.6058664481999" type="line"/>
      <point x="227.90000186683167" y="423.682336375052"/>
      <point x="179.73761840788734" y="440.0"/>
      <point x="147.9" y="440.0" type="curve"/>
    </contour>
    <contour>
      <point x="117.9" y="35.0" type="curve" smooth="yes"/>
      <point x="117.9" y="59.83618"/>
      <point x="97.73617999999999" y="80.0"/>
      <point x="72.9" y="80.0" type="curve" smooth="yes"/>
      <point x="48.06382" y="80.0"/>
      <point x="27.9" y="59.83618"/>
      <point x="27.9" y="35.0" type="curve" smooth="yes"/>
      <point x="27.9" y="10.16382"/>
      <point x="48.06382" y="-10.0"/>
      <point x="72.9" y="-10.0" type="curve" smooth="yes"/>
      <point x="97.73617999999999" y="-10.0"/>
      <point x="117.9" y="10.16382"/>
    </contour>
  </outline>
</glyph>
<glyph name="six" format="2">
  <advance width="260.8"/>
  <unicode hex="0036"/>
  <outline>
    <contour>
      <point x="32.90000147800356" y="95.39413283117261" type="line"/>
      <point x="32.90000167537358" y="11.317662904320528"/>
      <point x="81.06238159211266" y="-4.9999999999999964"/>
      <point x="112.9" y="-5.0" type="curve"/>
      <point x="112.9000015258789" y="805" type="line"/>
      <point x="81.06238311799154" y="805.0"/>
      <point x="32.89999985050534" y="788.682336375052"/>
      <point x="32.90000004787535" y="704.6058657434045" type="curve"/>
    </contour>
    <contour>
      <point x="225.4" y="765.0" type="curve" smooth="yes"/>
      <point x="225.4" y="787.0766"/>
      <point x="207.47660000000002" y="805.0"/>
      <point x="185.4" y="805.0" type="curve" smooth="yes"/>
      <point x="163.3234" y="805.0"/>
      <point x="145.4" y="787.0766"/>
      <point x="145.4" y="765.0" type="curve" smooth="yes"/>
      <point x="145.4" y="742.9234"/>
      <point x="163.3234" y="725.0"/>
      <point x="185.4" y="725.0" type="curve" smooth="yes"/>
      <point x="207.47660000000002" y="725.0"/>
      <point x="225.4" y="742.9234"/>
    </contour>
    <contour>
      <point x="147.9000015258789" y="-5" type="line"/>
      <point x="179.73761993376627" y="-5.0"/>
      <point x="227.8999997183434" y="11.317662215356847"/>
      <point x="227.90000009019994" y="95.39413284700446" type="curve"/>
      <point x="227.90000143567897" y="399.6058664481999" type="line"/>
      <point x="227.90000180753552" y="483.682336375052"/>
      <point x="179.73761840788734" y="500.0"/>
      <point x="147.9" y="500.0" type="curve"/>
    </contour>
  </outline>
</glyph>
<glyph name="seven" format="2">
  <advance width="260.8"/>
  <unicode hex="0037"/>
  <outline>
    <contour>
      <point x="32.900001525878906" y="720" type="line"/>
      <point x="127.50586867887446" y="720.0" type="line"/>
      <point x="211.58233860572653" y="720.0"/>
      <point x="227.9" y="768.1623815921126"/>
      <point x="227.9" y="800.0" type="curve"/>
      <point x="32.900001525878906" y="800" type="line"/>
    </contour>
    <contour>
      <point x="147.9000015258789" y="0" type="line"/>
      <point x="227.9000015258789" y="0" type="line"/>
      <point x="227.9000015258789" y="690" type="line"/>
      <point x="196.06238311799154" y="690.0"/>
      <point x="147.8999998407024" y="673.682336375052"/>
      <point x="147.90000005101473" y="589.6058657434045" type="curve"/>
    </contour>
  </outline>
</glyph>
<glyph name="eight" format="2">
  <advance width="260.8"/>
  <unicode hex="0038"/>
  <outline>
    <contour>
      <point x="32.90000139886267" y="500.3941328311726" type="line"/>
      <point x="32.90000192249742" y="416.3176629043205"/>
      <point x="81.06238159211266" y="400.0"/>
      <point x="112.9" y="400.0" type="curve"/>
      <point x="112.9000015258789" y="805" type="line"/>
      <point x="81.06238311799154" y="805.0"/>
      <point x="32.8999996033815" y="788.682336375052"/>
      <point x="32.90000012701624" y="704.6058657434045" type="curve"/>
    </contour>
    <contour>
      <point x="147.9000015258789" y="400" type="line"/>
      <point x="179.73761993376627" y="400.0"/>
      <point x="227.89999960338147" y="416.31766221535685"/>
      <point x="227.90000012701623" y="500.39413284700447" type="curve"/>
      <point x="227.90000139886266" y="704.6058664482" type="line"/>
      <point x="227.9000019224974" y="788.682336375052"/>
      <point x="179.73761840788734" y="805.0"/>
      <point x="147.9" y="805.0" type="curve"/>
    </contour>
    <contour>
      <point x="32.90000139886267" y="95.39413283117261" type="line"/>
      <point x="32.90000192249742" y="11.317662904320528"/>
      <point x="81.06238159211266" y="-4.9999999999999964"/>
      <point x="112.9" y="-5.0" type="curve"/>
      <point x="112.9000015258789" y="400" type="line"/>
      <point x="81.06238311799154" y="400.0"/>
      <point x="32.8999996033815" y="383.6823363750521"/>
      <point x="32.90000012701624" y="299.6058657434045" type="curve"/>
    </contour>
    <contour>
      <point x="147.9000015258789" y="-5" type="line"/>
      <point x="179.73761993376627" y="-5.0"/>
      <point x="227.89999960338147" y="11.317662215356847"/>
      <point x="227.90000012701623" y="95.39413284700446" type="curve"/>
      <point x="227.90000139886266" y="299.6058664481999" type="line"/>
      <point x="227.9000019224974" y="383.682336375052"/>
      <point x="179.73761840788734" y="400.0"/>
      <point x="147.9" y="400.0" type="curve"/>
    </contour>
  </outline>
</glyph>
<glyph name="nine" format="2">
  <advance width="260.8"/>
  <unicode hex="0039"/>
  <outline>
    <contour>
      <point x="32.90000143567897" y="400.3941328311726" type="line"/>
      <point x="32.90000180753554" y="316.3176629043205"/>
      <point x="81.06238159211266" y="300.0"/>
      <point x="112.9" y="300.0" type="curve"/>
      <point x="112.9000015258789" y="805" type="line"/>
      <point x="81.06238311799154" y="805.0"/>
      <point x="32.89999971834338" y="788.682336375052"/>
      <point x="32.90000009019994" y="704.6058657434045" type="curve"/>
    </contour>
    <contour>
      <point x="147.9000015258789" y="-5" type="line"/>
      <point x="179.73761993376627" y="-5.0"/>
      <point x="227.89999985050534" y="11.317662215356847"/>
      <point x="227.90000004787535" y="95.39413284700446" type="curve"/>
      <point x="227.90000147800356" y="704.6058664482" type="line"/>
      <point x="227.90000167537357" y="788.682336375052"/>
      <point x="179.73761840788734" y="805.0"/>
      <point x="147.9" y="805.0" type="curve"/>
    </contour>
    <contour>
      <point x="120.4" y="35.0" type="curve" smooth="yes"/>
      <point x="120.4" y="59.83618"/>
      <point x="100.23617999999999" y="80.0"/>
      <point x="75.4" y="80.0" type="curve" smooth="yes"/>
      <point x="50.56382" y="80.0"/>
      <point x="30.4" y="59.83618"/>
      <point x="30.4" y="35.0" type="curve" smooth="yes"/>
      <point x="30.4" y="10.16382"/>
      <point x="50.56382" y="-10.0"/>
      <point x="75.4" y="-10.0" type="curve" smooth="yes"/>
      <point x="100.23617999999999" y="-10.0"/>
      <point x="120.4" y="10.16382"/>
    </contour>
  </outline>
</glyph>
<glyph name="colon" format="2">
  <advance width="145.8"/>
  <unicode hex="003A"/>
  <outline>
    <contour>
      <point x="117.9" y="560.0" type="curve" smooth="yes"/>
      <point x="117.9" y="584.83618"/>
      <point x="97.73617999999999" y="605.0"/>
      <point x="72.9" y="605.0" type="curve" smooth="yes"/>
      <point x="48.06382" y="605.0"/>
      <point x="27.9" y="584.83618"/>
      <point x="27.9" y="560.0" type="curve" smooth="yes"/>
      <point x="27.9" y="535.16382"/>
      <point x="48.06382" y="515.0"/>
      <point x="72.9" y="515.0" type="curve" smooth="yes"/>
      <point x="97.73617999999999" y="515.0"/>
      <point x="117.9" y="535.16382"/>
    </contour>
    <contour>
      <point x="117.9" y="35.0" type="curve" smooth="yes"/>
      <point x="117.9" y="59.83618"/>
      <point x="97.73617999999999" y="80.0"/>
      <point x="72.9" y="80.0" type="curve" smooth="yes"/>
      <point x="48.06382" y="80.0"/>
      <point x="27.9" y="59.83618"/>
      <point x="27.9" y="35.0" type="curve" smooth="yes"/>
      <point x="27.9" y="10.16382"/>
      <point x="48.06382" y="-10.0"/>
      <point x="72.9" y="-10.0" type="curve" smooth="yes"/>
      <point x="97.73617999999999" y="-10.0"/>
      <point x="117.9" y="10.16382"/>
    </contour>
  </outline>
</glyph>
<glyph name="semicolon" format="2">
  <advance width="145.8"/>
  <unicode hex="003B"/>
  <outline>
    <contour>
      <point x="117.9" y="560.0" type="curve" smooth="yes"/>
      <point x="117.9" y="584.83618"/>
      <point x="97.73617999999999" y="605.0"/>
      <point x="72.9" y="605.0" type="curve" smooth="yes"/>
      <point x="48.06382" y="605.0"/>
      <point x="27.9" y="584.83618"/>
      <point x="27.9" y="560.0" type="curve" smooth="yes"/>
      <point x="27.9" y="535.16382"/>
      <point x="48.06382" y="515.0"/>
      <point x="72.9" y="515.0" type="curve" smooth="yes"/>
      <point x="97.73617999999999" y="515.0"/>
      <point x="117.9" y="535.16382"/>
    </contour>
    <contour>
      <point x="32.900001525878906" y="-100" type="line"/>
      <point x="64.73761993376627" y="-100.0"/>
      <point x="112.8999991902372" y="-83.68233778464314"/>
      <point x="112.90000025932481" y="0.39413284700445317" type="curve"/>
      <point x="112.9000015258789" y="100" type="line"/>
      <point x="32.900001525878906" y="100" type="line"/>
    </contour>
  </outline>
</glyph>
<glyph name="less" format="2">
  <advance width="225.8"/>
  <unicode hex="003C"/>
  <outline>
    <contour>
      <point x="32.900001455153955" y="200.3941328311726" type="line"/>
      <point x="32.90000174055086" y="118.09753942333683"/>
      <point x="43.05908866932124" y="100.00000000000001"/>
      <point x="152.9" y="100.0" type="curve"/>
      <point x="192.9000015258789" y="100" type="line"/>
      <point x="192.9" y="144.1532"/>
      <point x="157.0532" y="180.0"/>
      <point x="112.9" y="180.0" type="curve"/>
      <point x="112.9000015258789" y="620" type="line"/>
      <point x="157.0532" y="620.0"/>
      <point x="192.9" y="655.8468"/>
      <point x="192.9" y="700.0" type="curve"/>
      <point x="152.9000015258789" y="700.0" type="line"/>
      <point x="43.05909161430671" y="700.0"/>
      <point x="32.89999978532805" y="681.902459500513"/>
      <point x="32.90000007072495" y="599.6058657434045" type="curve"/>
    </contour>
  </outline>
</glyph>
<glyph name="greater" format="2">
  <advance width="225.8"/>
  <unicode hex="003E"/>
  <outline>
    <contour>
      <point x="92.50586867887444" y="100.0" type="line"/>
      <point x="174.80246208671022" y="100.0"/>
      <point x="192.8999997577982" y="110.15908866932124"/>
      <point x="192.90000013871628" y="220.0" type="curve"/>
      <point x="192.90000145515396" y="599.6058664482" type="line"/>
      <point x="192.90000174055083" y="681.9024598560358"/>
      <point x="182.74091133067878" y="700.0"/>
      <point x="72.9" y="700.0" type="curve"/>
      <point x="32.900001525878906" y="700" type="line"/>
      <point x="32.9" y="655.8468"/>
      <point x="68.74680000000001" y="620.0"/>
      <point x="112.9" y="620.0" type="curve"/>
      <point x="112.9000015258789" y="180" type="line"/>
      <point x="68.74680000000001" y="180.0"/>
      <point x="32.9" y="144.1532"/>
      <point x="32.9" y="100.0" type="curve"/>
    </contour>
  </outline>
</glyph>
<glyph name="question" format="2">
  <advance width="260.8"/>
  <unicode hex="003F"/>
  <outline>
    <contour>
      <point x="117.9" y="772.5" type="curve" smooth="yes"/>
      <point x="117.9" y="797.33618"/>
      <point x="97.73617999999999" y="817.5"/>
      <point x="72.9" y="817.5" type="curve" smooth="yes"/>
      <point x="48.06382" y="817.5"/>
      <point x="27.9" y="797.33618"/>
      <point x="27.9" y="772.5" type="curve" smooth="yes"/>
      <point x="27.9" y="747.66382"/>
      <point x="48.06382" y="727.5"/>
      <point x="72.9" y="727.5" type="curve" smooth="yes"/>
      <point x="97.73617999999999" y="727.5"/>
      <point x="117.9" y="747.66382"/>
    </contour>
    <contour>
      <point x="147.9000015258789" y="405" type="line"/>
      <point x="179.73761993376627" y="405.0"/>
      <point x="227.89999959511863" y="421.31766221535685"/>
      <point x="227.9000001296624" y="505.39413284700447" type="curve"/>
      <point x="227.9000013962165" y="704.6058664482" type="line"/>
      <point x="227.90000193076028" y="788.682336375052"/>
      <point x="179.73761840788734" y="805.0"/>
      <point x="147.9" y="805.0" type="curve"/>
    </contour>
    <contour>
      <point x="32.900001525878906" y="187.5" type="line"/>
      <point x="112.9000015258789" y="187.5" type="line"/>
      <point x="112.9000015258789" y="480" type="line"/>
      <point x="81.06238311799154" y="480.0"/>
      <point x="32.899999542722185" y="463.6823363750521"/>
      <point x="32.90000014644225" y="379.6058657434045" type="curve"/>
    </contour>
    <contour>
      <point x="117.9" y="33.75" type="curve" smooth="yes"/>
      <point x="117.9" y="58.58618"/>
      <point x="97.73617999999999" y="78.75"/>
      <point x="72.9" y="78.75" type="curve" smooth="yes"/>
      <point x="48.06382" y="78.75"/>
      <point x="27.9" y="58.58618"/>
      <point x="27.9" y="33.75" type="curve" smooth="yes"/>
      <point x="27.9" y="8.91382"/>
      <point x="48.06382" y="-11.25"/>
      <point x="72.9" y="-11.25" type="curve" smooth="yes"/>
      <point x="97.73617999999999" y="-11.25"/>
      <point x="117.9" y="8.91382"/>
    </contour>
  </outline>
</glyph>
<glyph name="at" format="2">
  <advance width="792.0197800000001"/>
  <unicode hex="0040"/>
  <outline>
    <contour>
      <point x="719.11978" y="400.0" type="curve" smooth="yes"/>
      <point x="719.11978" y="578.3292"/>
      <point x="574.33909" y="723.10989"/>
      <point x="396.00989000000004" y="723.10989" type="curve" smooth="yes"/>
      <point x="217.68069" y="723.10989"/>
      <point x="72.9" y="578.3292"/>
      <point x="72.9" y="400.0" type="curve" smooth="yes"/>
      <point x="72.9" y="221.6708"/>
      <point x="217.68069" y="76.89011"/>
      <point x="396.00989000000004" y="76.89011" type="curve" smooth="yes"/>
      <point x="574.33909" y="76.89011"/>
      <point x="719.11978" y="221.6708"/>
    </contour>
    <contour>
      <point x="293.5098898041579" y="300.3941328470045" type="curve"/>
      <point x="293.5098878911546" y="499.6058660884722" type="line"/>
      <point x="293.50988708377963" y="583.6823360153243"/>
      <point x="341.6722715921127" y="600.0"/>
      <point x="373.50989000000004" y="600.0" type="curve"/>
      <point x="373.5098876953125" y="200" type="line"/>
      <point x="341.67226928742514" y="200.0"/>
      <point x="293.5098906115329" y="216.3176622153569"/>
    </contour>
    <contour>
      <point x="408.50988985311847" y="300.3941328470045" type="curve"/>
      <point x="408.5098876953125" y="600" type="line"/>
      <point x="488.5098876953125" y="600" type="line"/>
      <point x="488.5098876953125" y="200" type="line"/>
      <point x="456.67226928742514" y="200.0"/>
      <point x="408.5098904586497" y="216.3176622153569"/>
    </contour>
  </outline>
</glyph>
<glyph name="D" format="2">
  <advance width="260.8"/>
  <unicode hex="0044"/>
  <outline>
    <contour>
      <point x="32.900001525878906" y="0" type="line"/>
      <point x="112.9000015258789" y="0" type="line"/>
      <point x="112.9000015258789" y="800" type="line"/>
      <point x="32.900001525878906" y="800" type="line"/>
    </contour>
    <contour>
      <point x="147.9000015258789" y="0" type="line"/>
      <point x="179.73761993376627" y="0.0"/>
      <point x="227.8999998481695" y="16.317662215356847"/>
      <point x="227.9000000486234" y="100.39413284700446" type="curve"/>
      <point x="227.9000014772555" y="699.6058664482" type="line"/>
      <point x="227.90000167770944" y="783.682336375052"/>
      <point x="179.73761840788734" y="800.0"/>
      <point x="147.9" y="800.0" type="curve"/>
    </contour>
  </outline>
</glyph>
<glyph name="J" format="2">
  <advance width="260.8"/>
  <unicode hex="004A"/>
  <outline>
    <contour>
      <point x="147.9000015258789" y="-5" type="line"/>
      <point x="179.73761993376627" y="-5.0"/>
      <point x="227.8999998659703" y="11.317662215356847"/>
      <point x="227.90000004292273" y="95.39413284700446" type="curve"/>
      <point x="227.9000015258789" y="800" type="line"/>
      <point x="147.9000015258789" y="800" type="line"/>
    </contour>
    <contour>
      <point x="117.9" y="35.0" type="curve" smooth="yes"/>
      <point x="117.9" y="59.83618"/>
      <point x="97.73617999999999" y="80.0"/>
      <point x="72.9" y="80.0" type="curve" smooth="yes"/>
      <point x="48.06382" y="80.0"/>
      <point x="27.9" y="59.83618"/>
      <point x="27.9" y="35.0" type="curve" smooth="yes"/>
      <point x="27.9" y="10.16382"/>
      <point x="48.06382" y="-10.0"/>
      <point x="72.9" y="-10.0" type="curve" smooth="yes"/>
      <point x="97.73617999999999" y="-10.0"/>
      <point x="117.9" y="10.16382"/>
    </contour>
  </outline>
</glyph>
<glyph name="K" format="2">
  <advance width="260.8"/>
  <unicode hex="004B"/>
  <outline>
    <contour>
      <point x="32.900001525878906" y="0" type="line"/>
      <point x="112.9000015258789" y="0" type="line"/>
      <point x="112.9000015258789" y="800" type="line"/>
      <point x="32.900001525878906" y="800" type="line"/>
    </contour>
    <contour>
      <point x="147.9000015258789" y="400" type="line"/>
      <point x="179.73761993376627" y="400.0"/>
      <point x="227.89999969633897" y="416.31766221535685"/>
      <point x="227.90000009724682" y="500.39413284700447" type="curve"/>
      <point x="227.9000015258789" y="800" type="line"/>
      <point x="147.9000015258789" y="800" type="line"/>
    </contour>
    <contour>
      <point x="147.9000015258789" y="0" type="line"/>
      <point x="227.9000015258789" y="0" type="line"/>
      <point x="227.9000015258789" y="299.6058664481999" type="line"/>
      <point x="227.9000015258789" y="383.682336375052"/>
      <point x="179.73761840788734" y="400.0"/>
      <point x="147.9" y="400.0" type="curve"/>
    </contour>
  </outline>
</glyph>
<glyph name="N" format="2">
  <advance width="260.8"/>
  <unicode hex="004E"/>
  <outline>
    <contour>
      <point x="32.900001525878906" y="0" type="line"/>
      <point x="112.9000015258789" y="0" type="line"/>
      <point x="112.9000015258789" y="800" type="line"/>
      <point x="32.900001525878906" y="800" type="line"/>
    </contour>
    <contour>
      <point x="147.9000015258789" y="0" type="line"/>
      <point x="227.9000015258789" y="0" type="line"/>
      <point x="227.9000015258789" y="699.6058664482" type="line"/>
      <point x="227.9000015258789" y="783.682336375052"/>
      <point x="179.73761840788734" y="800.0"/>
      <point x="147.9" y="800.0" type="curve"/>
    </contour>
  </outline>
</glyph>
<glyph name="P" format="2">
  <advance width="260.8"/>
  <unicode hex="0050"/>
  <outline>
    <contour>
      <point x="32.900001525878906" y="0" type="line"/>
      <point x="112.9000015258789" y="0" type="line"/>
      <point x="112.9000015258789" y="800" type="line"/>
      <point x="32.900001525878906" y="800" type="line"/>
    </contour>
    <contour>
      <point x="147.9000015258789" y="200" type="line"/>
      <point x="179.73761993376627" y="200.0"/>
      <point x="227.89999977915562" y="216.31766221535685"/>
      <point x="227.90000007072496" y="300.39413284700447" type="curve"/>
      <point x="227.90000145515396" y="699.6058664482" type="line"/>
      <point x="227.90000174672332" y="783.682336375052"/>
      <point x="179.73761840788734" y="800.0"/>
      <point x="147.9" y="800.0" type="curve"/>
    </contour>
  </outline>
</glyph>
<glyph name="Q" format="2">
  <advance width="260.8"/>
  <unicode hex="0051"/>
  <outline>
    <contour>
      <point x="32.90000147800356" y="95.39413283117261" type="line"/>
      <point x="32.90000167537358" y="11.317662904320528"/>
      <point x="81.06238159211266" y="-4.9999999999999964"/>
      <point x="112.9" y="-5.0" type="curve"/>
      <point x="112.9000015258789" y="805" type="line"/>
      <point x="81.06238311799154" y="805.0"/>
      <point x="32.89999985050534" y="788.682336375052"/>
      <point x="32.90000004787535" y="704.6058657434045" type="curve"/>
    </contour>
    <contour>
      <point x="147.98322488998068" y="15.397051177554971" type="line"/>
      <point x="147.99167623304555" y="-64.78575719963239"/>
      <point x="197.82877457048477" y="-80.0"/>
      <point x="227.9" y="-80.0" type="curve"/>
      <point x="227.9000015258789" y="0" type="line"/>
      <point x="175.68743896484375" y="0" type="line"/>
      <point x="226.66854415493844" y="18.851606132238903"/>
      <point x="227.8999999806132" y="66.74151715778903"/>
      <point x="227.90000004787535" y="95.39413282091033" type="curve"/>
      <point x="227.90000147800356" y="704.6058664482" type="line"/>
      <point x="227.90000167537357" y="788.682336375052"/>
      <point x="179.73761840788734" y="805.0"/>
      <point x="147.9" y="805.0" type="curve"/>
    </contour>
  </outline>
</glyph>
<glyph name="S" format="2">
  <advance width="260.8"/>
  <unicode hex="0053"/>
  <outline>
    <contour>
      <point x="32.900001414739705" y="460.3941328311726" type="line"/>
      <point x="32.90000187292011" y="376.3176629043205"/>
      <point x="81.06238159211266" y="360.0"/>
      <point x="112.9" y="360.0" type="curve"/>
      <point x="112.9000015258789" y="800" type="line"/>
      <point x="81.06238311799154" y="800.0"/>
      <point x="32.899999652958805" y="783.682336375052"/>
      <point x="32.900000111139214" y="699.6058657434045" type="curve"/>
    </contour>
    <contour>
      <point x="145.4" y="800.0" type="line"/>
      <point x="145.4" y="755.8468"/>
      <point x="181.2468" y="720.0"/>
      <point x="225.4" y="720.0" type="curve"/>
      <point x="225.4" y="800.0" type="line"/>
    </contour>
    <contour>
      <point x="147.9000015258789" y="0" type="line"/>
      <point x="179.73761993376627" y="0.0"/>
      <point x="227.89999965295883" y="16.317662215356847"/>
      <point x="227.9000001111392" y="100.39413284700446" type="curve"/>
      <point x="227.9000014147397" y="339.6058664481999" type="line"/>
      <point x="227.9000018729201" y="423.682336375052"/>
      <point x="179.73761840788734" y="440.0"/>
      <point x="147.9" y="440.0" type="curve"/>
    </contour>
    <contour>
      <point x="114.15" y="0" type="line"/>
      <point x="114.15" y="44.1532"/>
      <point x="78.3032" y="80.0"/>
      <point x="34.15" y="80.0" type="curve"/>
      <point x="34.15" y="0" type="line"/>
    </contour>
  </outline>
</glyph>
<glyph name="V" format="2">
  <advance width="260.8"/>
  <unicode hex="0056"/>
  <outline>
    <contour>
      <point x="32.90000148295618" y="95.39413283117261" type="line"/>
      <point x="32.900001659908604" y="11.317662904320528"/>
      <point x="81.06238159211266" y="-4.9999999999999964"/>
      <point x="112.9" y="-5.0" type="curve"/>
      <point x="112.90000148295618" y="699.6058664482" type="line"/>
      <point x="112.90000165990861" y="783.682336375052"/>
      <point x="64.73761840788734" y="800.0"/>
      <point x="32.9" y="800.0" type="curve"/>
    </contour>
    <contour>
      <point x="147.9000015258789" y="-5" type="line"/>
      <point x="179.73761993376627" y="-5.0"/>
      <point x="227.8999998659703" y="11.317662215356847"/>
      <point x="227.90000004292273" y="95.39413284700446" type="curve"/>
      <point x="227.9000015258789" y="800" type="line"/>
      <point x="147.9000015258789" y="800" type="line"/>
    </contour>
  </outline>
</glyph>
<glyph name="X" format="2">
  <advance width="260.8"/>
  <unicode hex="0058"/>
  <outline>
    <contour>
      <point x="32.900001525878906" y="500.3941328311726" type="line"/>
      <point x="32.90000152587891" y="416.3176629043205"/>
      <point x="81.06238159211266" y="400.0"/>
      <point x="112.9" y="400.0" type="curve"/>
      <point x="112.9000015258789" y="800" type="line"/>
      <point x="32.900001525878906" y="800" type="line"/>
    </contour>
    <contour>
      <point x="147.9000015258789" y="400" type="line"/>
      <point x="179.73761993376627" y="400.0"/>
      <point x="227.89999969633897" y="416.31766221535685"/>
      <point x="227.90000009724682" y="500.39413284700447" type="curve"/>
      <point x="227.9000015258789" y="800" type="line"/>
      <point x="147.9000015258789" y="800" type="line"/>
    </contour>
    <contour>
      <point x="32.900001525878906" y="0" type="line"/>
      <point x="112.9000015258789" y="0" type="line"/>
      <point x="112.9000015258789" y="400" type="line"/>
      <point x="81.06238311799154" y="400.0"/>
      <point x="32.89999969633895" y="383.6823363750521"/>
      <point x="32.90000009724681" y="299.6058657434045" type="curve"/>
    </contour>
    <contour>
      <point x="147.9000015258789" y="0" type="line"/>
      <point x="227.9000015258789" y="0" type="line"/>
      <point x="227.9000015258789" y="299.6058664481999" type="line"/>
      <point x="227.9000015258789" y="383.682336375052"/>
      <point x="179.73761840788734" y="400.0"/>
      <point x="147.9" y="400.0" type="curve"/>
    </contour>
  </outline>
</glyph>
<glyph name="Z" format="2">
  <advance width="260.8"/>
  <unicode hex="005A"/>
  <outline>
    <contour>
      <point x="32.9" y="720.0" type="line"/>
      <point x="77.0532" y="720.0"/>
      <point x="112.9" y="755.8468"/>
      <point x="112.9" y="800.0" type="curve"/>
      <point x="32.9" y="800.0" type="line"/>
    </contour>
    <contour>
      <point x="147.9000015258789" y="360" type="line"/>
      <point x="179.73761993376627" y="360.0"/>
      <point x="227.8999997300791" y="376.31766221535685"/>
      <point x="227.90000008644162" y="460.39413284700447" type="curve"/>
      <point x="227.9000015258789" y="800" type="line"/>
      <point x="147.9000015258789" y="800" type="line"/>
    </contour>
    <contour>
      <point x="32.900001525878906" y="0" type="line"/>
      <point x="112.9000015258789" y="0" type="line"/>
      <point x="112.9000015258789" y="440" type="line"/>
      <point x="81.06238311799154" y="440.0"/>
      <point x="32.89999973007907" y="423.6823363750521"/>
      <point x="32.90000008644161" y="339.6058657434045" type="curve"/>
    </contour>
    <contour>
      <point x="227.9" y="80.0" type="line"/>
      <point x="183.7468" y="80.0"/>
      <point x="147.9" y="44.1532"/>
      <point x="147.9" y="0.0" type="curve"/>
      <point x="227.9" y="0.0" type="line"/>
    </contour>
  </outline>
</glyph>
<glyph name="bracketleft" format="2">
  <advance width="225.8"/>
  <unicode hex="005B"/>
  <outline>
    <contour>
      <point x="32.900001525878906" y="-100" type="line"/>
      <point x="192.9000015258789" y="-100" type="line"/>
      <point x="192.9" y="-55.8468"/>
      <point x="157.0532" y="-20.0"/>
      <point x="112.9" y="-20.0" type="curve"/>
      <point x="112.9000015258789" y="820" type="line"/>
      <point x="157.0532" y="820.0"/>
      <point x="192.9" y="855.8468"/>
      <point x="192.9" y="900.0" type="curve"/>
      <point x="32.900001525878906" y="900" type="line"/>
    </contour>
  </outline>
</glyph>
<glyph name="backslash" format="2">
  <advance width="318.232797907907"/>
  <unicode hex="005C"/>
  <outline>
    <contour>
      <point x="189.11492221787373" y="-0.48088530320074696" type="line"/>
      <point x="203.7146482230947" y="-83.28004469466642"/>
      <point x="253.97886446237533" y="-90.98649381721151"/>
      <point x="285.332797907907" y="-85.45794939942675" type="curve"/>
      <point x="129.11788101714555" y="800.4808852418738" type="line"/>
      <point x="114.51815549379964" y="883.2800447183071"/>
      <point x="64.25393344553166" y="890.9864938172115"/>
      <point x="32.9" y="885.4579493994268" type="curve"/>
    </contour>
  </outline>
</glyph>
<glyph name="bracketright" format="2">
  <advance width="225.8"/>
  <unicode hex="005D"/>
  <outline>
    <contour>
      <point x="112.9000015258789" y="-20" type="line"/>
      <point x="68.74680000000001" y="-20.0"/>
      <point x="32.9" y="-55.8468"/>
      <point x="32.9" y="-100.0" type="curve"/>
      <point x="192.9000015258789" y="-100" type="line"/>
      <point x="192.9000015258789" y="900" type="line"/>
      <point x="32.900001525878906" y="900" type="line"/>
      <point x="32.9" y="855.8468"/>
      <point x="68.74680000000001" y="820.0"/>
      <point x="112.9" y="820.0" type="curve"/>
    </contour>
  </outline>
</glyph>
<glyph name="b" format="2">
  <advance width="260.8"/>
  <unicode hex="0062"/>
  <outline>
    <contour>
      <point x="32.900001525878906" y="0" type="line"/>
      <point x="112.9000015258789" y="0" type="line"/>
      <point x="112.9000015258789" y="800" type="line"/>
      <point x="32.900001525878906" y="800" type="line"/>
    </contour>
    <contour>
      <point x="147.9000015258789" y="0" type="line"/>
      <point x="179.73761993376627" y="0.0"/>
      <point x="227.899999781637" y="16.317662215356847"/>
      <point x="227.9000000699303" y="100.39413284700446" type="curve"/>
      <point x="227.90000145594863" y="504.60586644819995" type="line"/>
      <point x="227.9000017442419" y="588.682336375052"/>
      <point x="179.73761840788734" y="605.0"/>
      <point x="147.9" y="605.0" type="curve"/>
    </contour>
  </outline>
</glyph>
<glyph name="h" format="2">
  <advance width="260.8"/>
  <unicode hex="0068"/>
  <outline>
    <contour>
      <point x="32.900001525878906" y="0" type="line"/>
      <point x="112.9000015258789" y="0" type="line"/>
      <point x="112.9000015258789" y="800" type="line"/>
      <point x="32.900001525878906" y="800" type="line"/>
    </contour>
    <contour>
      <point x="147.9000015258789" y="0" type="line"/>
      <point x="227.9000015258789" y="0" type="line"/>
      <point x="227.9000015258789" y="504.60586644819995" type="line"/>
      <point x="227.9000015258789" y="588.682336375052"/>
      <point x="179.73761840788734" y="605.0"/>
      <point x="147.9" y="605.0" type="curve"/>
    </contour>
  </outline>
</glyph>
<glyph name="i" format="2">
  <advance width="145.8"/>
  <unicode hex="0069"/>
  <outline>
    <contour>
      <point x="117.9" y="690.0" type="curve" smooth="yes"/>
      <point x="117.9" y="714.83618"/>
      <point x="97.73617999999999" y="735.0"/>
      <point x="72.9" y="735.0" type="curve" smooth="yes"/>
      <point x="48.06382" y="735.0"/>
      <point x="27.9" y="714.83618"/>
      <point x="27.9" y="690.0" type="curve" smooth="yes"/>
      <point x="27.9" y="665.16382"/>
      <point x="48.06382" y="645.0"/>
      <point x="72.9" y="645.0" type="curve" smooth="yes"/>
      <point x="97.73617999999999" y="645.0"/>
      <point x="117.9" y="665.16382"/>
    </contour>
    <contour>
      <point x="32.900001525878906" y="0" type="line"/>
      <point x="112.9000015258789" y="0" type="line"/>
      <point x="112.9000015258789" y="600" type="line"/>
      <point x="32.900001525878906" y="600" type="line"/>
    </contour>
  </outline>
</glyph>
<glyph name="k" format="2">
  <advance width="260.8"/>
  <unicode hex="006B"/>
  <outline>
    <contour>
      <point x="32.900001525878906" y="0" type="line"/>
      <point x="112.9000015258789" y="0" type="line"/>
      <point x="112.9000015258789" y="800" type="line"/>
      <point x="32.900001525878906" y="800" type="line"/>
    </contour>
    <contour>
      <point x="147.9000015258789" y="300" type="line"/>
      <point x="179.73761993376627" y="300.0"/>
      <point x="227.8999995583112" y="316.31766221535685"/>
      <point x="227.9000001414499" y="400.39413284700447" type="curve"/>
      <point x="227.9000015258789" y="600" type="line"/>
      <point x="147.9000015258789" y="600" type="line"/>
    </contour>
    <contour>
      <point x="147.9000015258789" y="0" type="line"/>
      <point x="227.9000015258789" y="0" type="line"/>
      <point x="227.9000015258789" y="199.60586644819992" type="line"/>
      <point x="227.9000015258789" y="283.682336375052"/>
      <point x="179.73761840788734" y="300.0"/>
      <point x="147.9" y="300.0" type="curve"/>
    </contour>
  </outline>
</glyph>
<glyph name="m" format="2">
  <advance width="375.8"/>
  <unicode hex="006D"/>
  <outline>
    <contour>
      <point x="32.900001525878906" y="0" type="line"/>
      <point x="112.9000015258789" y="0" type="line"/>
      <point x="112.9000015258789" y="600" type="line"/>
      <point x="32.900001525878906" y="600" type="line"/>
    </contour>
    <contour>
      <point x="147.9000015258789" y="0" type="line"/>
      <point x="227.9000015258789" y="0" type="line"/>
      <point x="227.9000015258789" y="600" type="line"/>
      <point x="147.9000015258789" y="600" type="line"/>
    </contour>
    <contour>
      <point x="262.9000015258789" y="0" type="line"/>
      <point x="342.9000015258789" y="0" type="line"/>
      <point x="342.9000015258789" y="499.60586644819995" type="line"/>
      <point x="342.9000015258789" y="583.682336375052"/>
      <point x="294.73761840788734" y="600.0"/>
      <point x="262.9" y="600.0" type="curve"/>
    </contour>
  </outline>
</glyph>
<glyph name="n" format="2">
  <advance width="260.8"/>
  <unicode hex="006E"/>
  <outline>
    <contour>
      <point x="32.900001525878906" y="0" type="line"/>
      <point x="112.9000015258789" y="0" type="line"/>
      <point x="112.9000015258789" y="600" type="line"/>
      <point x="32.900001525878906" y="600" type="line"/>
    </contour>
    <contour>
      <point x="147.9000015258789" y="0" type="line"/>
      <point x="227.9000015258789" y="0" type="line"/>
      <point x="227.9000015258789" y="499.60586644819995" type="line"/>
      <point x="227.9000015258789" y="583.682336375052"/>
      <point x="179.73761840788734" y="600.0"/>
      <point x="147.9" y="600.0" type="curve"/>
    </contour>
  </outline>
</glyph>
<glyph name="r" format="2">
  <advance width="260.8"/>
  <unicode hex="0072"/>
  <outline>
    <contour>
      <point x="232.9" y="560.0" type="curve" smooth="yes"/>
      <point x="232.9" y="584.83618"/>
      <point x="212.73618000000002" y="605.0"/>
      <point x="187.9" y="605.0" type="curve" smooth="yes"/>
      <point x="163.06382" y="605.0"/>
      <point x="142.9" y="584.83618"/>
      <point x="142.9" y="560.0" type="curve" smooth="yes"/>
      <point x="142.9" y="535.16382"/>
      <point x="163.06382" y="515.0"/>
      <point x="187.9" y="515.0" type="curve" smooth="yes"/>
      <point x="212.73618000000002" y="515.0"/>
      <point x="232.9" y="535.16382"/>
    </contour>
    <contour>
      <point x="32.900001525878906" y="0" type="line"/>
      <point x="112.9000015258789" y="0" type="line"/>
      <point x="112.9000015258789" y="600" type="line"/>
      <point x="32.900001525878906" y="600" type="line"/>
    </contour>
  </outline>
</glyph>
<glyph name="s" format="2">
  <advance width="260.8"/>
  <unicode hex="0073"/>
  <outline>
    <contour>
      <point x="32.9000013529957" y="360.3941328311726" type="line"/>
      <point x="32.90000206572077" y="276.3176629043205"/>
      <point x="81.06238159211266" y="260.0"/>
      <point x="112.9" y="260.0" type="curve"/>
      <point x="112.9000015258789" y="600" type="line"/>
      <point x="81.06238311799154" y="600.0"/>
      <point x="32.89999946015815" y="583.6823363750522"/>
      <point x="32.90000017288322" y="499.60586574340454" type="curve"/>
    </contour>
    <contour>
      <point x="145.4" y="600.0" type="line"/>
      <point x="145.4" y="555.8468"/>
      <point x="181.2468" y="520.0"/>
      <point x="225.4" y="520.0" type="curve"/>
      <point x="225.4" y="600.0" type="line"/>
    </contour>
    <contour>
      <point x="147.9000015258789" y="-5" type="line"/>
      <point x="179.73761993376627" y="-5.0"/>
      <point x="227.89999946015817" y="11.317662215356847"/>
      <point x="227.9000001728832" y="95.39413284700446" type="curve"/>
      <point x="227.9000013529957" y="234.60586644819992" type="line"/>
      <point x="227.90000206572077" y="318.682336375052"/>
      <point x="179.73761840788734" y="335.0"/>
      <point x="147.9" y="335.0" type="curve"/>
    </contour>
    <contour>
      <point x="114.15" y="0" type="line"/>
      <point x="114.15" y="44.1532"/>
      <point x="78.3032" y="80.0"/>
      <point x="34.15" y="80.0" type="curve"/>
      <point x="34.15" y="0" type="line"/>
    </contour>
  </outline>
</glyph>
<glyph name="t" format="2">
  <advance width="260.8"/>
  <unicode hex="0074"/>
  <outline>
    <contour>
      <point x="32.900001525878906" y="0" type="line"/>
      <point x="112.9000015258789" y="0" type="line"/>
      <point x="112.9000015258789" y="800" type="line"/>
      <point x="81.06238311799154" y="800.0"/>
      <point x="32.89999986503953" y="783.682336375052"/>
      <point x="32.9000000432208" y="699.6058657434045" type="curve"/>
    </contour>
    <contour>
      <point x="147.9" y="520.0" type="line"/>
      <point x="192.0532" y="520.0"/>
      <point x="227.9" y="555.8468"/>
      <point x="227.9" y="600.0" type="curve"/>
      <point x="147.9" y="600.0" type="line"/>
    </contour>
  </outline>
</glyph>
<glyph name="v" format="2">
  <advance width="260.8"/>
  <unicode hex="0076"/>
  <outline>
    <contour>
      <point x="32.900001467163854" y="95.39413283117261" type="line"/>
      <point x="32.90000170922143" y="11.317662904320528"/>
      <point x="81.06238159211266" y="-4.9999999999999964"/>
      <point x="112.9" y="-5.0" type="curve"/>
      <point x="112.90000146716385" y="504.60586644819995" type="line"/>
      <point x="112.90000170922143" y="588.682336375052"/>
      <point x="64.73761840788734" y="605.0"/>
      <point x="32.9" y="605.0" type="curve"/>
    </contour>
    <contour>
      <point x="147.9000015258789" y="-5" type="line"/>
      <point x="179.73761993376627" y="-5.0"/>
      <point x="227.89999981491138" y="11.317662215356847"/>
      <point x="227.90000005927425" y="95.39413284700446" type="curve"/>
      <point x="227.9000015258789" y="600" type="line"/>
      <point x="147.9000015258789" y="600" type="line"/>
    </contour>
  </outline>
</glyph>
<glyph name="x" format="2">
  <advance width="260.8"/>
  <unicode hex="0078"/>
  <outline>
    <contour>
      <point x="32.900001525878906" y="400.3941328311726" type="line"/>
      <point x="32.90000152587891" y="316.3176629043205"/>
      <point x="81.06238159211266" y="300.0"/>
      <point x="112.9" y="300.0" type="curve"/>
      <point x="112.9000015258789" y="600" type="line"/>
      <point x="32.900001525878906" y="600" type="line"/>
    </contour>
    <contour>
      <point x="147.9000015258789" y="300" type="line"/>
      <point x="179.73761993376627" y="300.0"/>
      <point x="227.8999995583112" y="316.31766221535685"/>
      <point x="227.9000001414499" y="400.39413284700447" type="curve"/>
      <point x="227.9000015258789" y="600" type="line"/>
      <point x="147.9000015258789" y="600" type="line"/>
    </contour>
    <contour>
      <point x="32.900001525878906" y="0" type="line"/>
      <point x="112.9000015258789" y="0" type="line"/>
      <point x="112.9000015258789" y="300" type="line"/>
      <point x="81.06238311799154" y="300.0"/>
      <point x="32.89999955831121" y="283.6823363750521"/>
      <point x="32.9000001414499" y="199.60586574340448" type="curve"/>
    </contour>
    <contour>
      <point x="147.9000015258789" y="0" type="line"/>
      <point x="227.9000015258789" y="0" type="line"/>
      <point x="227.9000015258789" y="199.60586644819992" type="line"/>
      <point x="227.9000015258789" y="283.682336375052"/>
      <point x="179.73761840788734" y="300.0"/>
      <point x="147.9" y="300.0" type="curve"/>
    </contour>
  </outline>
</glyph>
<glyph name="z" format="2">
  <advance width="260.8"/>
  <unicode hex="007A"/>
  <outline>
    <contour>
      <point x="32.9" y="520.0" type="line"/>
      <point x="77.0532" y="520.0"/>
      <point x="112.9" y="555.8468"/>
      <point x="112.9" y="600.0" type="curve"/>
      <point x="32.9" y="600.0" type="line"/>
    </contour>
    <contour>
      <point x="147.9000015258789" y="260" type="line"/>
      <point x="179.73761993376627" y="260.0"/>
      <point x="227.89999962626334" y="276.31766221535685"/>
      <point x="227.90000011968837" y="360.39413284700447" type="curve"/>
      <point x="227.9000015258789" y="600" type="line"/>
      <point x="147.9000015258789" y="600" type="line"/>
    </contour>
    <contour>
      <point x="32.900001525878906" y="0" type="line"/>
      <point x="112.9000015258789" y="0" type="line"/>
      <point x="112.9000015258789" y="340" type="line"/>
      <point x="81.06238311799154" y="340.0"/>
      <point x="32.89999962626333" y="323.6823363750521"/>
      <point x="32.90000011968838" y="239.60586574340448" type="curve"/>
    </contour>
    <contour>
      <point x="227.9" y="80.0" type="line"/>
      <point x="183.7468" y="80.0"/>
      <point x="147.9" y="44.1532"/>
      <point x="147.9" y="0.0" type="curve"/>
      <point x="227.9" y="0.0" type="line"/>
    </contour>
  </outline>
</glyph>
<glyph name="braceright" format="2">
  <advance width="145.8"/>
  <unicode hex="007D"/>
  <outline>
    <contour>
      <point x="32.9000014517861" y="500.3941328311726" type="line"/>
      <point x="32.90000175723971" y="416.3176629043205"/>
      <point x="81.06238159211266" y="400.0"/>
      <point x="112.9" y="400.0" type="curve"/>
      <point x="112.9000014517861" y="799.6058664482" type="line"/>
      <point x="112.90000175723969" y="883.682336375052"/>
      <point x="64.73761840788734" y="900.0"/>
      <point x="32.9" y="900.0" type="curve"/>
    </contour>
    <contour>
      <point x="32.900001525878906" y="-100" type="line"/>
      <point x="64.73761993376627" y="-100.0"/>
      <point x="112.8999997686392" y="-83.68233778464315"/>
      <point x="112.9000000740928" y="0.3941328470044567" type="curve"/>
      <point x="112.9000015258789" y="400" type="line"/>
      <point x="81.06238311799154" y="400.0"/>
      <point x="32.899999768639205" y="383.6823363750521"/>
      <point x="32.9000000740928" y="299.6058657434045" type="curve"/>
    </contour>
  </outline>
</glyph>
<glyph name="tilde" format="2">
  <advance width="260.8"/>
  <unicode hex="007E"/>
  <outline>
    <contour>
      <point x="127.5058686788744" y="360.0" type="line"/>
      <point x="211.58233860572648" y="360.0"/>
      <point x="227.9" y="408.16238159211264"/>
      <point x="227.9" y="440.0" type="curve"/>
      <point x="133.29413578247443" y="440.0" type="line"/>
      <point x="49.21766585562234" y="440.0"/>
      <point x="32.9" y="391.83761840788736"/>
      <point x="32.9" y="360.0" type="curve"/>
    </contour>
  </outline>
</glyph>
<glyph name="invexclamation" format="2">
  <advance width="145.8"/>
  <unicode hex="00A1"/>
  <outline>
    <contour>
      <point x="117.9" y="566.25" type="curve" smooth="yes"/>
      <point x="117.9" y="591.08618"/>
      <point x="97.73617999999999" y="611.25"/>
      <point x="72.9" y="611.25" type="curve" smooth="yes"/>
      <point x="48.06382" y="611.25"/>
      <point x="27.9" y="591.08618"/>
      <point x="27.9" y="566.25" type="curve" smooth="yes"/>
      <point x="27.9" y="541.41382"/>
      <point x="48.06382" y="521.25"/>
      <point x="72.9" y="521.25" type="curve" smooth="yes"/>
      <point x="97.73617999999999" y="521.25"/>
      <point x="117.9" y="541.41382"/>
    </contour>
    <contour>
      <point x="32.900001525878906" y="-200" type="line"/>
      <point x="112.9000015258789" y="-200" type="line"/>
      <point x="112.9000015258789" y="412.5" type="line"/>
      <point x="32.900001525878906" y="412.5" type="line"/>
    </contour>
  </outline>
</glyph>
<glyph name="cent" format="2">
  <advance width="260.8"/>
  <unicode hex="00A2"/>
  <outline>
    <contour>
      <point x="72.9000015258789" y="0" type="line"/>
      <point x="112.9000015258789" y="0" type="line"/>
      <point x="112.9000015258789" y="600" type="line"/>
      <point x="72.9000015258789" y="600" type="line"/>
      <point x="72.9000015258789" y="489.25392150878906" type="line"/>
      <point x="34.09363326169485" y="466.8327167449744"/>
      <point x="32.899999932082515" y="430.68249792035175"/>
      <point x="32.90000012966241" y="399.605867160229" type="curve"/>
      <point x="32.90000139621651" y="200.394131306642" type="line"/>
      <point x="32.90000159380083" y="169.31680493268377"/>
      <point x="34.09209858568403" y="133.17262678841286"/>
      <point x="72.9000015258789" y="110.73892974853516" type="curve"/>
    </contour>
    <contour>
      <point x="147.9000015258789" y="520.3941328311727" type="line"/>
      <point x="147.9000015258789" y="436.31766290432057"/>
      <point x="196.06238159211267" y="420.0"/>
      <point x="227.9" y="420.0" type="curve"/>
      <point x="227.9000015258789" y="500" type="line"/>
      <point x="187.9000015258789" y="500" type="line"/>
      <point x="187.9000015258789" y="600" type="line"/>
      <point x="147.9000015258789" y="600" type="line"/>
    </contour>
    <contour>
      <point x="147.9000015258789" y="0" type="line"/>
      <point x="187.9000015258789" y="0" type="line"/>
      <point x="187.9000015258789" y="100" type="line"/>
      <point x="227.9000015258789" y="100" type="line"/>
      <point x="227.9000015258789" y="180" type="line"/>
      <point x="196.06238311799154" y="180.0"/>
      <point x="147.89999902828467" y="163.6823363750521"/>
      <point x="147.90000031118979" y="79.60586574340451" type="curve"/>
    </contour>
  </outline>
</glyph>
<glyph name="currency" format="2">
  <advance width="260.8"/>
  <unicode hex="00A4"/>
  <outline>
    <contour>
      <point x="32.9" y="530.0" type="line"/>
      <point x="72.9" y="530.0" type="line"/>
      <point x="72.9" y="570.0" type="line"/>
      <point x="32.9" y="570.0" type="line"/>
    </contour>
    <contour>
      <point x="187.9" y="530.0" type="line"/>
      <point x="227.9" y="530.0" type="line"/>
      <point x="227.9" y="570.0" type="line"/>
      <point x="187.9" y="570.0" type="line"/>
    </contour>
    <contour>
      <point x="32.9000012665541" y="360.3941328311726" type="line"/>
      <point x="32.900002335641695" y="276.3176629043205"/>
      <point x="81.06238159211266" y="260.0"/>
      <point x="112.9" y="260.0" type="curve"/>
      <point x="112.9000015258789" y="540" type="line"/>
      <point x="81.06238311799154" y="540.0"/>
      <point x="32.89999919023722" y="523.682336375052"/>
      <point x="32.90000025932483" y="439.6058657434045" type="curve"/>
    </contour>
    <contour>
      <point x="147.9000015258789" y="260" type="line"/>
      <point x="179.73761993376627" y="260.0"/>
      <point x="227.8999991902372" y="276.3176622153569"/>
      <point x="227.90000025932483" y="360.39413284700447" type="curve"/>
      <point x="227.90000126655409" y="439.6058664481999" type="line"/>
      <point x="227.9000023356417" y="523.6823363750519"/>
      <point x="179.73761840788734" y="540.0"/>
      <point x="147.9" y="540.0" type="curve"/>
    </contour>
    <contour>
      <point x="32.9" y="230.0" type="line"/>
      <point x="72.9" y="230.0" type="line"/>
      <point x="72.9" y="270.0" type="line"/>
      <point x="32.9" y="270.0" type="line"/>
    </contour>
    <contour>
      <point x="187.9" y="230.0" type="line"/>
      <point x="227.9" y="230.0" type="line"/>
      <point x="227.9" y="270.0" type="line"/>
      <point x="187.9" y="270.0" type="line"/>
    </contour>
  </outline>
</glyph>
<glyph name="yen" format="2">
  <advance width="410.8"/>
  <unicode hex="00A5"/>
  <outline>
    <contour>
      <point x="107.90000146660466" y="300.3941328311726" type="line"/>
      <point x="107.90000171096754" y="216.3176629043205"/>
      <point x="156.06238159211267" y="200.0"/>
      <point x="187.9" y="200.0" type="curve"/>
      <point x="187.90000146660466" y="704.6058664482" type="line"/>
      <point x="187.90000171096753" y="788.682336375052"/>
      <point x="139.73761840788734" y="805.0"/>
      <point x="107.9" y="805.0" type="curve"/>
    </contour>
    <contour>
      <point x="222.9000015258789" y="-5" type="line"/>
      <point x="254.73761993376627" y="-5.0"/>
      <point x="302.89999986597024" y="11.317662215356876"/>
      <point x="302.9000000429227" y="95.39413284700449" type="curve"/>
      <point x="302.9000015258789" y="800" type="line"/>
      <point x="222.9000015258789" y="800" type="line"/>
    </contour>
    <contour>
      <point x="32.9" y="555.0" type="line"/>
      <point x="72.9" y="555.0" type="line"/>
      <point x="72.9" y="595.0" type="line"/>
      <point x="32.9" y="595.0" type="line"/>
    </contour>
    <contour>
      <point x="337.9" y="555.0" type="line"/>
      <point x="377.9" y="555.0" type="line"/>
      <point x="377.9" y="595.0" type="line"/>
      <point x="337.9" y="595.0" type="line"/>
    </contour>
    <contour>
      <point x="32.9" y="405.0" type="line"/>
      <point x="72.9" y="405.0" type="line"/>
      <point x="72.9" y="445.0" type="line"/>
      <point x="32.9" y="445.0" type="line"/>
    </contour>
    <contour>
      <point x="337.9" y="405.0" type="line"/>
      <point x="377.9" y="405.0" type="line"/>
      <point x="377.9" y="445.0" type="line"/>
      <point x="337.9" y="445.0" type="line"/>
    </contour>
  </outline>
</glyph>
<glyph name="section" format="2">
  <advance width="260.8"/>
  <unicode hex="00A7"/>
  <outline>
    <contour>
      <point x="32.9000013962165" y="200.3941328311726" type="line"/>
      <point x="32.900001930760304" y="116.31766290432053"/>
      <point x="81.06238159211266" y="100.0"/>
      <point x="112.9" y="100.0" type="curve"/>
      <point x="112.9000015258789" y="800" type="line"/>
      <point x="81.06238311799154" y="800.0"/>
      <point x="32.89999946015815" y="783.682336375052"/>
      <point x="32.90000017288322" y="699.6058657434045" type="curve"/>
      <point x="32.90000135299572" y="560.3941302526654" type="line"/>
      <point x="32.900001587410884" y="532.741392431954"/>
      <point x="32.90000709091717" y="503.8710373569087"/>
      <point x="60.04020690917969" y="480.00394439697266" type="curve"/>
      <point x="32.899999240338076" y="456.12397590151016"/>
      <point x="32.89999995384512" y="427.25953650555863"/>
      <point x="32.90000012966241" y="399.60586723346694" type="curve"/>
    </contour>
    <contour>
      <point x="147.9" y="800.0" type="line"/>
      <point x="147.9" y="755.8468"/>
      <point x="183.7468" y="720.0"/>
      <point x="227.9" y="720.0" type="curve"/>
      <point x="227.9" y="800.0" type="line"/>
    </contour>
    <contour>
      <point x="147.9000015258789" y="-200" type="line"/>
      <point x="179.73761993376627" y="-200.0"/>
      <point x="227.89999946015817" y="-183.68233778464315"/>
      <point x="227.9000001728832" y="-99.60586715299554" type="curve"/>
      <point x="227.90000135299567" y="39.60586467334588" type="line"/>
      <point x="227.90000158741088" y="67.25860756804609"/>
      <point x="227.89999158788345" y="96.12896634611337"/>
      <point x="200.7597885131836" y="119.99605560302734" type="curve"/>
      <point x="227.89999944044334" y="143.87602039521207"/>
      <point x="227.89999995384508" y="172.74046349444134"/>
      <point x="227.90000012966237" y="200.39413285682866" type="curve"/>
      <point x="227.90000139621648" y="399.6058664481999" type="line"/>
      <point x="227.9000019307603" y="483.682336375052"/>
      <point x="179.73761840788734" y="500.0"/>
      <point x="147.9" y="500.0" type="curve"/>
    </contour>
    <contour>
      <point x="112.9" y="-200" type="line"/>
      <point x="112.9" y="-155.8468"/>
      <point x="77.0532" y="-120.0"/>
      <point x="32.9" y="-120.0" type="curve"/>
      <point x="32.9" y="-200" type="line"/>
    </contour>
  </outline>
</glyph>
<glyph name="diaeresis" format="2">
  <advance width="260.8"/>
  <unicode hex="00A8"/>
  <outline>
    <contour>
      <point x="117.9" y="840.0" type="curve" smooth="yes"/>
      <point x="117.9" y="864.83618"/>
      <point x="97.73617999999999" y="885.0"/>
      <point x="72.9" y="885.0" type="curve" smooth="yes"/>
      <point x="48.06382" y="885.0"/>
      <point x="27.9" y="864.83618"/>
      <point x="27.9" y="840.0" type="curve" smooth="yes"/>
      <point x="27.9" y="815.16382"/>
      <point x="48.06382" y="795.0"/>
      <point x="72.9" y="795.0" type="curve" smooth="yes"/>
      <point x="97.73617999999999" y="795.0"/>
      <point x="117.9" y="815.16382"/>
    </contour>
    <contour>
      <point x="232.9" y="840.0" type="curve" smooth="yes"/>
      <point x="232.9" y="864.83618"/>
      <point x="212.73618000000002" y="885.0"/>
      <point x="187.9" y="885.0" type="curve" smooth="yes"/>
      <point x="163.06382" y="885.0"/>
      <point x="142.9" y="864.83618"/>
      <point x="142.9" y="840.0" type="curve" smooth="yes"/>
      <point x="142.9" y="815.16382"/>
      <point x="163.06382" y="795.0"/>
      <point x="187.9" y="795.0" type="curve" smooth="yes"/>
      <point x="212.73618000000002" y="795.0"/>
      <point x="232.9" y="815.16382"/>
    </contour>
  </outline>
</glyph>
<glyph name="copyright" format="2">
  <advance width="792.0197800000001"/>
  <unicode hex="00A9"/>
  <outline>
    <contour>
      <point x="719.11978" y="405.0" type="curve" smooth="yes"/>
      <point x="719.11978" y="583.3292"/>
      <point x="574.33909" y="728.10989"/>
      <point x="396.00989000000004" y="728.10989" type="curve" smooth="yes"/>
      <point x="217.68069" y="728.10989"/>
      <point x="72.9" y="583.3292"/>
      <point x="72.9" y="405.0" type="curve" smooth="yes"/>
      <point x="72.9" y="226.6708"/>
      <point x="217.68069" y="81.89011"/>
      <point x="396.00989000000004" y="81.89011" type="curve" smooth="yes"/>
      <point x="574.33909" y="81.89011"/>
      <point x="719.11978" y="226.6708"/>
    </contour>
    <contour>
      <point x="488.50989000000004" y="570.0" type="curve" smooth="yes"/>
      <point x="488.50989000000004" y="547.9234"/>
      <point x="470.58649" y="530.0"/>
      <point x="448.50989000000004" y="530.0" type="curve" smooth="yes"/>
      <point x="426.43328999999994" y="530.0"/>
      <point x="408.50989000000004" y="547.9234"/>
      <point x="408.50989000000004" y="570.0" type="curve" smooth="yes"/>
      <point x="408.50989000000004" y="592.0766"/>
      <point x="426.43328999999994" y="610.0"/>
      <point x="448.50989000000004" y="610.0" type="curve" smooth="yes"/>
      <point x="470.58649" y="610.0"/>
      <point x="488.50989000000004" y="592.0766"/>
    </contour>
    <contour>
      <point x="293.5098898081547" y="300.3941328470045" type="curve"/>
      <point x="293.50988788715784" y="504.6058660884722" type="line"/>
      <point x="293.5098870962599" y="588.6823360153243"/>
      <point x="341.6722715921127" y="605.0"/>
      <point x="373.50989000000004" y="605.0" type="curve"/>
      <point x="373.5098876953125" y="200" type="line"/>
      <point x="341.67226928742514" y="200.0"/>
      <point x="293.50989059905265" y="216.3176622153569"/>
    </contour>
    <contour>
      <point x="487.25989000000004" y="280.0" type="curve"/>
      <point x="487.25989000000004" y="200.0" type="line"/>
      <point x="407.25989000000004" y="200.0" type="line"/>
      <point x="407.25989000000004" y="244.1532"/>
      <point x="443.10668999999996" y="280.0"/>
    </contour>
  </outline>
</glyph>
<glyph name="ordinalfeminine" format="2">
  <advance width="260.8"/>
  <unicode hex="00AA"/>
  <outline>
    <contour>
      <point x="32.9000013962165" y="500.3941328311726" type="line"/>
      <point x="32.900001930760304" y="416.3176629043205"/>
      <point x="81.06238159211266" y="400.0"/>
      <point x="112.9" y="400.0" type="curve"/>
      <point x="112.9000015258789" y="800" type="line"/>
      <point x="81.06238311799154" y="800.0"/>
      <point x="32.8999995951186" y="783.682336375052"/>
      <point x="32.900000129662416" y="699.6058657434045" type="curve"/>
    </contour>
    <contour>
      <point x="147.9000015258789" y="500.3941328311726" type="line"/>
      <point x="147.9000015258789" y="416.3176629043205"/>
      <point x="196.06238159211267" y="400.0"/>
      <point x="227.9" y="400.0" type="curve"/>
      <point x="227.9000015258789" y="800" type="line"/>
      <point x="147.9000015258789" y="800" type="line"/>
    </contour>
  </outline>
</glyph>
<glyph name="sup_two" format="2">
  <advance width="260.8"/>
  <unicode hex="00B2"/>
  <outline>
    <contour>
      <point x="120.4" y="760.0" type="curve" smooth="yes"/>
      <point x="120.4" y="784.83618"/>
      <point x="100.23617999999999" y="805.0"/>
      <point x="75.4" y="805.0" type="curve" smooth="yes"/>
      <point x="50.56382" y="805.0"/>
      <point x="30.4" y="784.83618"/>
      <point x="30.4" y="760.0" type="curve" smooth="yes"/>
      <point x="30.4" y="735.16382"/>
      <point x="50.56382" y="715.0"/>
      <point x="75.4" y="715.0" type="curve" smooth="yes"/>
      <point x="100.23617999999999" y="715.0"/>
      <point x="120.4" y="735.16382"/>
    </contour>
    <contour>
      <point x="147.9000015258789" y="333" type="line"/>
      <point x="179.73761993376627" y="333.0"/>
      <point x="227.89999968855278" y="349.31766221535685"/>
      <point x="227.9000000997403" y="433.39413284700447" type="curve"/>
      <point x="227.9000014261386" y="704.6058664482" type="line"/>
      <point x="227.90000183732613" y="788.682336375052"/>
      <point x="179.73761840788734" y="805.0"/>
      <point x="147.9" y="805.0" type="curve"/>
    </contour>
    <contour>
      <point x="32.9" y="200.0" type="curve"/>
      <point x="227.9000015258789" y="200" type="line"/>
      <point x="227.9000015258789" y="280" type="line"/>
      <point x="133.2941357824744" y="280.0" type="line"/>
      <point x="49.217665855622315" y="280.0"/>
      <point x="32.9" y="231.83761840788736"/>
    </contour>
  </outline>
</glyph>
<glyph name="sup_three" format="2">
  <advance width="260.8"/>
  <unicode hex="00B3"/>
  <outline>
    <contour>
      <point x="117.9" y="760.0" type="curve" smooth="yes"/>
      <point x="117.9" y="784.83618"/>
      <point x="97.73617999999999" y="805.0"/>
      <point x="72.9" y="805.0" type="curve" smooth="yes"/>
      <point x="48.06382" y="805.0"/>
      <point x="27.9" y="784.83618"/>
      <point x="27.9" y="760.0" type="curve" smooth="yes"/>
      <point x="27.9" y="735.16382"/>
      <point x="48.06382" y="715.0"/>
      <point x="72.9" y="715.0" type="curve" smooth="yes"/>
      <point x="97.73617999999999" y="715.0"/>
      <point x="117.9" y="735.16382"/>
    </contour>
    <contour>
      <point x="147.9000015258789" y="600" type="line"/>
      <point x="179.73761993376627" y="600.0"/>
      <point x="227.8999991902372" y="616.3176622153569"/>
      <point x="227.90000025932483" y="700.3941328470045" type="curve"/>
      <point x="227.9000015258789" y="800" type="line"/>
      <point x="147.9000015258789" y="800" type="line"/>
    </contour>
    <contour>
      <point x="147.9000015258789" y="195" type="line"/>
      <point x="179.73761993376627" y="195.0"/>
      <point x="227.89999960338147" y="211.31766221535685"/>
      <point x="227.90000012701623" y="295.39413284700447" type="curve"/>
      <point x="227.90000139886266" y="499.60586644819995" type="line"/>
      <point x="227.9000019224974" y="583.682336375052"/>
      <point x="179.73761840788734" y="600.0"/>
      <point x="147.9" y="600.0" type="curve"/>
    </contour>
    <contour>
      <point x="117.9" y="240.0" type="curve" smooth="yes"/>
      <point x="117.9" y="264.83618"/>
      <point x="97.73617999999999" y="285.0"/>
      <point x="72.9" y="285.0" type="curve" smooth="yes"/>
      <point x="48.06382" y="285.0"/>
      <point x="27.9" y="264.83618"/>
      <point x="27.9" y="240.0" type="curve" smooth="yes"/>
      <point x="27.9" y="215.16382"/>
      <point x="48.06382" y="195.0"/>
      <point x="72.9" y="195.0" type="curve" smooth="yes"/>
      <point x="97.73617999999999" y="195.0"/>
      <point x="117.9" y="215.16382"/>
    </contour>
  </outline>
</glyph>
<glyph name="mu" format="2">
  <advance width="295.8"/>
  <unicode hex="00B5"/>
  <outline>
    <contour>
      <point x="32.900001525878906" y="-200" type="line"/>
      <point x="112.9000015258789" y="-200" type="line"/>
      <point x="112.9000015258789" y="600" type="line"/>
      <point x="32.900001525878906" y="600" type="line"/>
    </contour>
    <contour>
      <point x="147.9000015258789" y="100.39413283117261" type="line"/>
      <point x="147.9000015258789" y="14.696728279521196"/>
      <point x="158.91606923869716" y="8.448094999943218e-15"/>
      <point x="257.9000015258789" y="-3.6739405843083305e-15" type="curve"/>
      <point x="262.9000015258789" y="0" type="line"/>
      <point x="262.9000015258789" y="80" type="line"/>
      <point x="227.9000015258789" y="80" type="line"/>
      <point x="227.9000015258789" y="600" type="line"/>
      <point x="147.9000015258789" y="600" type="line"/>
    </contour>
  </outline>
</glyph>
<glyph name="pilcrow" format="2">
  <advance width="260.8"/>
  <unicode hex="00B6"/>
  <outline>
    <contour>
      <point x="32.9000013962165" y="500.3941328311726" type="line"/>
      <point x="32.900001930760304" y="416.3176629043205"/>
      <point x="81.06238159211266" y="400.0"/>
      <point x="112.9" y="400.0" type="curve"/>
      <point x="112.9000015258789" y="800" type="line"/>
      <point x="81.06238311799154" y="800.0"/>
      <point x="32.8999995951186" y="783.682336375052"/>
      <point x="32.900000129662416" y="699.6058657434045" type="curve"/>
    </contour>
    <contour>
      <point x="147.9000015258789" y="-100" type="line"/>
      <point x="227.9000015258789" y="-100" type="line"/>
      <point x="227.9000015258789" y="800" type="line"/>
      <point x="147.9000015258789" y="800" type="line"/>
    </contour>
  </outline>
</glyph>
<glyph name="ordinalmasculine" format="2">
  <advance width="260.8"/>
  <unicode hex="00BA"/>
  <outline>
    <contour>
      <point x="32.9000013962165" y="500.3941328311726" type="line"/>
      <point x="32.900001930760304" y="416.3176629043205"/>
      <point x="81.06238159211266" y="400.0"/>
      <point x="112.9" y="400.0" type="curve"/>
      <point x="112.9000015258789" y="800" type="line"/>
      <point x="81.06238311799154" y="800.0"/>
      <point x="32.8999995951186" y="783.682336375052"/>
      <point x="32.900000129662416" y="699.6058657434045" type="curve"/>
    </contour>
    <contour>
      <point x="147.9000015258789" y="400" type="line"/>
      <point x="179.73761993376627" y="400.0"/>
      <point x="227.89999959511863" y="416.31766221535685"/>
      <point x="227.9000001296624" y="500.39413284700447" type="curve"/>
      <point x="227.9000013962165" y="699.6058664482" type="line"/>
      <point x="227.90000193076028" y="783.682336375052"/>
      <point x="179.73761840788734" y="800.0"/>
      <point x="147.9" y="800.0" type="curve"/>
    </contour>
  </outline>
</glyph>
<glyph name="one_over_four" format="2">
  <advance width="490.8"/>
  <unicode hex="00BC"/>
  <outline>
    <contour>
      <point x="15.400001525878906" y="200" type="line"/>
      <point x="95.4000015258789" y="200" type="line"/>
      <point x="95.4000015258789" y="800" type="line"/>
      <point x="15.400001525878906" y="800" type="line"/>
    </contour>
    <contour>
      <point x="147.9000015258789" y="-200" type="line"/>
      <point x="179.73761993376627" y="-200.0"/>
      <point x="227.89999989437877" y="-183.68233778464315"/>
      <point x="227.900000033825" y="-99.60586715299554" type="curve"/>
      <point x="227.9000015258789" y="800" type="line"/>
      <point x="196.06238311799154" y="800.0"/>
      <point x="147.89999989437877" y="783.682336375052"/>
      <point x="147.900000033825" y="699.6058657434045" type="curve"/>
    </contour>
    <contour>
      <point x="280.4000015258789" y="0" type="line"/>
      <point x="312.23761993376627" y="0.0"/>
      <point x="360.3999996963389" y="16.317662215356876"/>
      <point x="360.4000000972468" y="100.39413284700449" type="curve"/>
      <point x="360.4000015258789" y="400" type="line"/>
      <point x="280.4000015258789" y="400" type="line"/>
    </contour>
    <contour>
      <point x="395.4000015258789" y="-200" type="line"/>
      <point x="475.4000015258789" y="-200" type="line"/>
      <point x="475.4000015258789" y="200" type="line"/>
      <point x="395.4000015258789" y="200" type="line"/>
    </contour>
  </outline>
</glyph>
<glyph name="one_over_two" format="2">
  <advance width="490.8"/>
  <unicode hex="00BD"/>
  <outline>
    <contour>
      <point x="15.400001525878906" y="200" type="line"/>
      <point x="95.4000015258789" y="200" type="line"/>
      <point x="95.4000015258789" y="800" type="line"/>
      <point x="15.400001525878906" y="800" type="line"/>
    </contour>
    <contour>
      <point x="147.9000015258789" y="-200" type="line"/>
      <point x="179.73761993376627" y="-200.0"/>
      <point x="227.89999989437877" y="-183.68233778464315"/>
      <point x="227.900000033825" y="-99.60586715299554" type="curve"/>
      <point x="227.9000015258789" y="800" type="line"/>
      <point x="196.06238311799154" y="800.0"/>
      <point x="147.89999989437877" y="783.682336375052"/>
      <point x="147.900000033825" y="699.6058657434045" type="curve"/>
    </contour>
    <contour>
      <point x="367.9" y="360.0" type="curve" smooth="yes"/>
      <point x="367.9" y="384.83618"/>
      <point x="347.73618" y="405.0"/>
      <point x="322.9" y="405.0" type="curve" smooth="yes"/>
      <point x="298.06381999999996" y="405.0"/>
      <point x="277.9" y="384.83618"/>
      <point x="277.9" y="360.0" type="curve" smooth="yes"/>
      <point x="277.9" y="335.16382"/>
      <point x="298.06381999999996" y="315.0"/>
      <point x="322.9" y="315.0" type="curve" smooth="yes"/>
      <point x="347.73618" y="315.0"/>
      <point x="367.9" y="335.16382"/>
    </contour>
    <contour>
      <point x="395.4000015258789" y="-67" type="line"/>
      <point x="427.23761993376627" y="-67.0"/>
      <point x="475.3999996885527" y="-50.682337784643124"/>
      <point x="475.4000000997403" y="33.394132847004485" type="curve"/>
      <point x="475.4000014261386" y="304.6058664481999" type="line"/>
      <point x="475.4000018373261" y="388.682336375052"/>
      <point x="427.23761840788734" y="405.0"/>
      <point x="395.4" y="405.0" type="curve"/>
    </contour>
    <contour>
      <point x="280.4" y="-200.0" type="curve"/>
      <point x="475.4000015258789" y="-200" type="line"/>
      <point x="475.4000015258789" y="-120" type="line"/>
      <point x="380.7941357824745" y="-120.0" type="line"/>
      <point x="296.7176658556224" y="-119.99999999999999"/>
      <point x="280.4" y="-168.16238159211264"/>
    </contour>
  </outline>
</glyph>
<glyph name="three_over_four" format="2">
  <advance width="605.8"/>
  <unicode hex="00BE"/>
  <outline>
    <contour>
      <point x="100.4" y="760.0" type="curve" smooth="yes"/>
      <point x="100.4" y="784.83618"/>
      <point x="80.23617999999999" y="805.0"/>
      <point x="55.4" y="805.0" type="curve" smooth="yes"/>
      <point x="30.56382" y="805.0"/>
      <point x="10.399999999999999" y="784.83618"/>
      <point x="10.399999999999999" y="760.0" type="curve" smooth="yes"/>
      <point x="10.399999999999999" y="735.16382"/>
      <point x="30.56382" y="715.0"/>
      <point x="55.4" y="715.0" type="curve" smooth="yes"/>
      <point x="80.23617999999999" y="715.0"/>
      <point x="100.4" y="735.16382"/>
    </contour>
    <contour>
      <point x="130.4000015258789" y="600" type="line"/>
      <point x="162.23761993376627" y="600.0"/>
      <point x="210.3999991902372" y="616.3176622153569"/>
      <point x="210.40000025932483" y="700.3941328470045" type="curve"/>
      <point x="210.4000015258789" y="800" type="line"/>
      <point x="130.4000015258789" y="800" type="line"/>
    </contour>
    <contour>
      <point x="262.9000015258789" y="-200" type="line"/>
      <point x="294.73761993376627" y="-200.0"/>
      <point x="342.89999989437877" y="-183.68233778464312"/>
      <point x="342.90000003382494" y="-99.60586715299551" type="curve"/>
      <point x="342.9000015258789" y="800" type="line"/>
      <point x="311.06238311799154" y="800.0"/>
      <point x="262.89999989437877" y="783.682336375052"/>
      <point x="262.90000003382494" y="699.6058657434045" type="curve"/>
    </contour>
    <contour>
      <point x="130.4000015258789" y="195" type="line"/>
      <point x="162.23761993376627" y="195.0"/>
      <point x="210.39999960338147" y="211.31766221535685"/>
      <point x="210.40000012701623" y="295.39413284700447" type="curve"/>
      <point x="210.40000139886266" y="499.60586644819995" type="line"/>
      <point x="210.4000019224974" y="583.682336375052"/>
      <point x="162.23761840788734" y="600.0"/>
      <point x="130.4" y="600.0" type="curve"/>
    </contour>
    <contour>
      <point x="395.4000015258789" y="0" type="line"/>
      <point x="427.23761993376627" y="0.0"/>
      <point x="475.3999996963389" y="16.317662215356876"/>
      <point x="475.4000000972468" y="100.39413284700449" type="curve"/>
      <point x="475.4000015258789" y="400" type="line"/>
      <point x="395.4000015258789" y="400" type="line"/>
    </contour>
    <contour>
      <point x="100.4" y="240.0" type="curve" smooth="yes"/>
      <point x="100.4" y="264.83618"/>
      <point x="80.23617999999999" y="285.0"/>
      <point x="55.4" y="285.0" type="curve" smooth="yes"/>
      <point x="30.56382" y="285.0"/>
      <point x="10.399999999999999" y="264.83618"/>
      <point x="10.399999999999999" y="240.0" type="curve" smooth="yes"/>
      <point x="10.399999999999999" y="215.16382"/>
      <point x="30.56382" y="195.0"/>
      <point x="55.4" y="195.0" type="curve" smooth="yes"/>
      <point x="80.23617999999999" y="195.0"/>
      <point x="100.4" y="215.16382"/>
    </contour>
    <contour>
      <point x="510.4000015258789" y="-200" type="line"/>
      <point x="590.4000015258789" y="-200" type="line"/>
      <point x="590.4000015258789" y="200" type="line"/>
      <point x="510.4000015258789" y="200" type="line"/>
    </contour>
  </outline>
</glyph>
<glyph name="invquestion" format="2">
  <advance width="260.8"/>
  <unicode hex="00BF"/>
  <outline>
    <contour>
      <point x="232.9" y="566.25" type="curve" smooth="yes"/>
      <point x="232.9" y="591.08618"/>
      <point x="212.73618000000002" y="611.25"/>
      <point x="187.9" y="611.25" type="curve" smooth="yes"/>
      <point x="163.06382" y="611.25"/>
      <point x="142.9" y="591.08618"/>
      <point x="142.9" y="566.25" type="curve" smooth="yes"/>
      <point x="142.9" y="541.41382"/>
      <point x="163.06382" y="521.25"/>
      <point x="187.9" y="521.25" type="curve" smooth="yes"/>
      <point x="212.73618000000002" y="521.25"/>
      <point x="232.9" y="541.41382"/>
    </contour>
    <contour>
      <point x="147.9000015258789" y="120" type="line"/>
      <point x="179.73761993376627" y="120.0"/>
      <point x="227.8999995427222" y="136.31766221535685"/>
      <point x="227.90000014644224" y="220.39413284700447" type="curve"/>
      <point x="227.9000015258789" y="412.5" type="line"/>
      <point x="147.9000015258789" y="412.5" type="line"/>
    </contour>
    <contour>
      <point x="32.9000013962165" y="-104.60586716882739" type="line"/>
      <point x="32.900001930760304" y="-188.6823370956795"/>
      <point x="81.06238159211266" y="-205.0"/>
      <point x="112.9" y="-205.0" type="curve"/>
      <point x="112.9000015258789" y="195" type="line"/>
      <point x="81.06238311799154" y="195.0"/>
      <point x="32.8999995951186" y="178.6823363750521"/>
      <point x="32.900000129662416" y="94.60586574340451" type="curve"/>
    </contour>
    <contour>
      <point x="232.9" y="-172.5" type="curve" smooth="yes"/>
      <point x="232.9" y="-147.66382"/>
      <point x="212.73618000000002" y="-127.5"/>
      <point x="187.9" y="-127.5" type="curve" smooth="yes"/>
      <point x="163.06382" y="-127.5"/>
      <point x="142.9" y="-147.66382"/>
      <point x="142.9" y="-172.5" type="curve" smooth="yes"/>
      <point x="142.9" y="-197.33618"/>
      <point x="163.06382" y="-217.5"/>
      <point x="187.9" y="-217.5" type="curve" smooth="yes"/>
      <point x="212.73618000000002" y="-217.5"/>
      <point x="232.9" y="-197.33618"/>
    </contour>
  </outline>
</glyph>
<glyph name="A_with_acute" format="2">
  <advance width="260.8"/>
  <unicode hex="00C1"/>
  <outline>
    <contour>
      <point x="125.4" y="850.0" type="line"/>
      <point x="169.5532" y="850.0"/>
      <point x="205.4" y="885.8468"/>
      <point x="205.4" y="930.0" type="curve"/>
      <point x="125.4" y="930.0" type="line"/>
    </contour>
    <contour>
      <point x="32.900001525878906" y="0" type="line"/>
      <point x="112.9000015258789" y="0" type="line"/>
      <point x="112.9000015258789" y="805" type="line"/>
      <point x="81.06238311799154" y="805.0"/>
      <point x="32.899999865970294" y="788.682336375052"/>
      <point x="32.90000004292273" y="704.6058657434045" type="curve"/>
    </contour>
    <contour>
      <point x="147.9000015258789" y="0" type="line"/>
      <point x="227.9000015258789" y="0" type="line"/>
      <point x="227.9000015258789" y="704.6058664482" type="line"/>
      <point x="227.9000015258789" y="788.682336375052"/>
      <point x="179.73761840788734" y="805.0"/>
      <point x="147.9" y="805.0" type="curve"/>
    </contour>
  </outline>
</glyph>
<glyph name="A_with_smalltilde" format="2">
  <advance width="260.8"/>
  <unicode hex="00C3"/>
  <outline>
    <contour>
      <point x="110.00586867887446" y="850.0" type="line"/>
      <point x="194.08233860572653" y="850.0"/>
      <point x="210.4" y="898.1623815921126"/>
      <point x="210.4" y="930.0" type="curve"/>
      <point x="150.7941357824744" y="930.0" type="line"/>
      <point x="66.71766585562231" y="930.0"/>
      <point x="50.400000000000006" y="881.8376184078874"/>
      <point x="50.400000000000006" y="850.0" type="curve"/>
    </contour>
    <contour>
      <point x="32.900001525878906" y="0" type="line"/>
      <point x="112.9000015258789" y="0" type="line"/>
      <point x="112.9000015258789" y="805" type="line"/>
      <point x="81.06238311799154" y="805.0"/>
      <point x="32.899999865970294" y="788.682336375052"/>
      <point x="32.90000004292273" y="704.6058657434045" type="curve"/>
    </contour>
    <contour>
      <point x="147.9000015258789" y="0" type="line"/>
      <point x="227.9000015258789" y="0" type="line"/>
      <point x="227.9000015258789" y="704.6058664482" type="line"/>
      <point x="227.9000015258789" y="788.682336375052"/>
      <point x="179.73761840788734" y="805.0"/>
      <point x="147.9" y="805.0" type="curve"/>
    </contour>
  </outline>
</glyph>
<glyph name="A_with_diaeresis" format="2">
  <advance width="260.8"/>
  <unicode hex="00C4"/>
  <outline>
    <contour>
      <point x="117.9" y="890.0" type="curve" smooth="yes"/>
      <point x="117.9" y="914.83618"/>
      <point x="97.73618" y="935.0"/>
      <point x="72.9" y="935.0" type="curve" smooth="yes"/>
      <point x="48.06382000000001" y="935.0"/>
      <point x="27.900000000000006" y="914.83618"/>
      <point x="27.900000000000006" y="890.0" type="curve" smooth="yes"/>
      <point x="27.900000000000006" y="865.16382"/>
      <point x="48.06382000000001" y="845.0"/>
      <point x="72.9" y="845.0" type="curve" smooth="yes"/>
      <point x="97.73618" y="845.0"/>
      <point x="117.9" y="865.16382"/>
    </contour>
    <contour>
      <point x="232.9" y="890.0" type="curve" smooth="yes"/>
      <point x="232.9" y="914.83618"/>
      <point x="212.73618000000002" y="935.0"/>
      <point x="187.9" y="935.0" type="curve" smooth="yes"/>
      <point x="163.06382" y="935.0"/>
      <point x="142.9" y="914.83618"/>
      <point x="142.9" y="890.0" type="curve" smooth="yes"/>
      <point x="142.9" y="865.16382"/>
      <point x="163.06382" y="845.0"/>
      <point x="187.9" y="845.0" type="curve" smooth="yes"/>
      <point x="212.73618000000002" y="845.0"/>
      <point x="232.9" y="865.16382"/>
    </contour>
    <contour>
      <point x="32.900001525878906" y="0" type="line"/>
      <point x="112.9000015258789" y="0" type="line"/>
      <point x="112.9000015258789" y="805" type="line"/>
      <point x="81.06238311799154" y="805.0"/>
      <point x="32.899999865970294" y="788.682336375052"/>
      <point x="32.90000004292273" y="704.6058657434045" type="curve"/>
    </contour>
    <contour>
      <point x="147.9000015258789" y="0" type="line"/>
      <point x="227.9000015258789" y="0" type="line"/>
      <point x="227.9000015258789" y="704.6058664482" type="line"/>
      <point x="227.9000015258789" y="788.682336375052"/>
      <point x="179.73761840788734" y="805.0"/>
      <point x="147.9" y="805.0" type="curve"/>
    </contour>
  </outline>
</glyph>
<glyph name="A_with_ring" format="2">
  <advance width="260.8"/>
  <unicode hex="00C5"/>
  <outline>
    <contour>
      <point x="112.9" y="935.0" type="line"/>
      <point x="88.06382" y="935.0"/>
      <point x="67.9" y="914.83618"/>
      <point x="67.9" y="890.0" type="curve" smooth="yes"/>
      <point x="67.9" y="865.16382"/>
      <point x="88.06382" y="845.0"/>
      <point x="112.9" y="845.0" type="curve"/>
    </contour>
    <contour>
      <point x="147.9" y="845.0" type="line"/>
      <point x="172.73618000000002" y="845.0"/>
      <point x="192.9" y="865.16382"/>
      <point x="192.9" y="890.0" type="curve" smooth="yes"/>
      <point x="192.9" y="914.83618"/>
      <point x="172.73618000000002" y="935.0"/>
      <point x="147.9" y="935.0" type="curve"/>
    </contour>
    <contour>
      <point x="32.900001525878906" y="0" type="line"/>
      <point x="112.9000015258789" y="0" type="line"/>
      <point x="112.9000015258789" y="805" type="line"/>
      <point x="81.06238311799154" y="805.0"/>
      <point x="32.899999865970294" y="788.682336375052"/>
      <point x="32.90000004292273" y="704.6058657434045" type="curve"/>
    </contour>
    <contour>
      <point x="147.9000015258789" y="0" type="line"/>
      <point x="227.9000015258789" y="0" type="line"/>
      <point x="227.9000015258789" y="704.6058664482" type="line"/>
      <point x="227.9000015258789" y="788.682336375052"/>
      <point x="179.73761840788734" y="805.0"/>
      <point x="147.9" y="805.0" type="curve"/>
    </contour>
  </outline>
</glyph>
<glyph name="E_with_circumflex" format="2">
  <advance width="260.8"/>
  <unicode hex="00CA"/>
  <outline>
    <contour>
      <point x="47.900000000000006" y="850.0" type="line"/>
      <point x="92.0532" y="850.0"/>
      <point x="127.9" y="885.8468"/>
      <point x="127.9" y="930.0" type="curve"/>
      <point x="47.900000000000006" y="930.0" type="line"/>
    </contour>
    <contour>
      <point x="132.9" y="930.0" type="line"/>
      <point x="132.9" y="885.8468"/>
      <point x="168.7468" y="850.0"/>
      <point x="212.9" y="850.0" type="curve"/>
      <point x="212.9" y="930.0" type="line"/>
    </contour>
    <contour>
      <point x="32.900001525878906" y="0" type="line"/>
      <point x="112.9000015258789" y="0" type="line"/>
      <point x="112.9000015258789" y="800" type="line"/>
      <point x="32.900001525878906" y="800" type="line"/>
    </contour>
    <contour>
      <point x="147.9" y="800.0" type="line"/>
      <point x="147.9" y="755.8468"/>
      <point x="183.7468" y="720.0"/>
      <point x="227.9" y="720.0" type="curve"/>
      <point x="227.9" y="800.0" type="line"/>
    </contour>
    <contour>
      <point x="147.9" y="440.0" type="line"/>
      <point x="147.9" y="395.8468"/>
      <point x="183.7468" y="360.0"/>
      <point x="227.9" y="360.0" type="curve"/>
      <point x="227.9" y="440.0" type="line"/>
    </contour>
    <contour>
      <point x="227.9" y="80.0" type="line"/>
      <point x="183.7468" y="80.0"/>
      <point x="147.9" y="44.1532"/>
      <point x="147.9" y="0.0" type="curve"/>
      <point x="227.9" y="0.0" type="line"/>
    </contour>
  </outline>
</glyph>
<glyph name="I_with_acute" format="2">
  <advance width="145.8"/>
  <unicode hex="00CD"/>
  <outline>
    <contour>
      <point x="67.9" y="850.0" type="line"/>
      <point x="112.0532" y="850.0"/>
      <point x="147.9" y="885.8468"/>
      <point x="147.9" y="930.0" type="curve"/>
      <point x="67.9" y="930.0" type="line"/>
    </contour>
    <contour>
      <point x="32.900001525878906" y="0" type="line"/>
      <point x="112.9000015258789" y="0" type="line"/>
      <point x="112.9000015258789" y="800" type="line"/>
      <point x="32.900001525878906" y="800" type="line"/>
    </contour>
  </outline>
</glyph>
<glyph name="ETH" format="2">
  <advance width="375.8"/>
  <unicode hex="00D0"/>
  <outline>
    <contour>
      <point x="147.9000015258789" y="0" type="line"/>
      <point x="227.9000015258789" y="0" type="line"/>
      <point x="227.9000015258789" y="800" type="line"/>
      <point x="147.9000015258789" y="800" type="line"/>
      <point x="147.9000015258789" y="438.55858612060547" type="line"/>
      <point x="110.90616947543151" y="431.56418846294304"/>
      <point x="82.9" y="399.0268810204"/>
      <point x="82.9" y="360.0" type="curve"/>
      <point x="147.9000015258789" y="360" type="line"/>
    </contour>
    <contour>
      <point x="262.9000015258789" y="0" type="line"/>
      <point x="294.73761993376627" y="0.0"/>
      <point x="342.89999984816944" y="16.317662215356876"/>
      <point x="342.9000000486234" y="100.39413284700449" type="curve"/>
      <point x="342.9000014772555" y="699.6058664482" type="line"/>
      <point x="342.90000167770944" y="783.682336375052"/>
      <point x="294.73761840788734" y="800.0"/>
      <point x="262.9" y="800.0" type="curve"/>
    </contour>
  </outline>
</glyph>
<glyph name="N_with_smalltilde" format="2">
  <advance width="260.8"/>
  <unicode hex="00D1"/>
  <outline>
    <contour>
      <point x="110.00586867887446" y="850.0" type="line"/>
      <point x="194.08233860572653" y="850.0"/>
      <point x="210.4" y="898.1623815921126"/>
      <point x="210.4" y="930.0" type="curve"/>
      <point x="150.7941357824744" y="930.0" type="line"/>
      <point x="66.71766585562231" y="930.0"/>
      <point x="50.400000000000006" y="881.8376184078874"/>
      <point x="50.400000000000006" y="850.0" type="curve"/>
    </contour>
    <contour>
      <point x="32.900001525878906" y="0" type="line"/>
      <point x="112.9000015258789" y="0" type="line"/>
      <point x="112.9000015258789" y="800" type="line"/>
      <point x="32.900001525878906" y="800" type="line"/>
    </contour>
    <contour>
      <point x="147.9000015258789" y="0" type="line"/>
      <point x="227.9000015258789" y="0" type="line"/>
      <point x="227.9000015258789" y="699.6058664482" type="line"/>
      <point x="227.9000015258789" y="783.682336375052"/>
      <point x="179.73761840788734" y="800.0"/>
      <point x="147.9" y="800.0" type="curve"/>
    </contour>
  </outline>
</glyph>
<glyph name="O_with_grave" format="2">
  <advance width="260.8"/>
  <unicode hex="00D2"/>
  <outline>
    <contour>
      <point x="55.400000000000006" y="930.0" type="line"/>
      <point x="55.400000000000006" y="885.8468"/>
      <point x="91.24680000000001" y="850.0"/>
      <point x="135.4" y="850.0" type="curve"/>
      <point x="135.4" y="930.0" type="line"/>
    </contour>
    <contour>
      <point x="32.90000147800356" y="95.39413283117261" type="line"/>
      <point x="32.90000167537358" y="11.317662904320528"/>
      <point x="81.06238159211266" y="-4.9999999999999964"/>
      <point x="112.9" y="-5.0" type="curve"/>
      <point x="112.9000015258789" y="805" type="line"/>
      <point x="81.06238311799154" y="805.0"/>
      <point x="32.89999985050534" y="788.682336375052"/>
      <point x="32.90000004787535" y="704.6058657434045" type="curve"/>
    </contour>
    <contour>
      <point x="147.9000015258789" y="-5" type="line"/>
      <point x="179.73761993376627" y="-5.0"/>
      <point x="227.89999985050534" y="11.317662215356847"/>
      <point x="227.90000004787535" y="95.39413284700446" type="curve"/>
      <point x="227.90000147800356" y="704.6058664482" type="line"/>
      <point x="227.90000167537357" y="788.682336375052"/>
      <point x="179.73761840788734" y="805.0"/>
      <point x="147.9" y="805.0" type="curve"/>
    </contour>
  </outline>
</glyph>
<glyph name="O_with_acute" format="2">
  <advance width="260.8"/>
  <unicode hex="00D3"/>
  <outline>
    <contour>
      <point x="125.4" y="850.0" type="line"/>
      <point x="169.5532" y="850.0"/>
      <point x="205.4" y="885.8468"/>
      <point x="205.4" y="930.0" type="curve"/>
      <point x="125.4" y="930.0" type="line"/>
    </contour>
    <contour>
      <point x="32.90000147800356" y="95.39413283117261" type="line"/>
      <point x="32.90000167537358" y="11.317662904320528"/>
      <point x="81.06238159211266" y="-4.9999999999999964"/>
      <point x="112.9" y="-5.0" type="curve"/>
      <point x="112.9000015258789" y="805" type="line"/>
      <point x="81.06238311799154" y="805.0"/>
      <point x="32.89999985050534" y="788.682336375052"/>
      <point x="32.90000004787535" y="704.6058657434045" type="curve"/>
    </contour>
    <contour>
      <point x="147.9000015258789" y="-5" type="line"/>
      <point x="179.73761993376627" y="-5.0"/>
      <point x="227.89999985050534" y="11.317662215356847"/>
      <point x="227.90000004787535" y="95.39413284700446" type="curve"/>
      <point x="227.90000147800356" y="704.6058664482" type="line"/>
      <point x="227.90000167537357" y="788.682336375052"/>
      <point x="179.73761840788734" y="805.0"/>
      <point x="147.9" y="805.0" type="curve"/>
    </contour>
  </outline>
</glyph>
<glyph name="O_with_smalltilde" format="2">
  <advance width="260.8"/>
  <unicode hex="00D5"/>
  <outline>
    <contour>
      <point x="110.00586867887446" y="850.0" type="line"/>
      <point x="194.08233860572653" y="850.0"/>
      <point x="210.4" y="898.1623815921126"/>
      <point x="210.4" y="930.0" type="curve"/>
      <point x="150.7941357824744" y="930.0" type="line"/>
      <point x="66.71766585562231" y="930.0"/>
      <point x="50.400000000000006" y="881.8376184078874"/>
      <point x="50.400000000000006" y="850.0" type="curve"/>
    </contour>
    <contour>
      <point x="32.90000147800356" y="95.39413283117261" type="line"/>
      <point x="32.90000167537358" y="11.317662904320528"/>
      <point x="81.06238159211266" y="-4.9999999999999964"/>
      <point x="112.9" y="-5.0" type="curve"/>
      <point x="112.9000015258789" y="805" type="line"/>
      <point x="81.06238311799154" y="805.0"/>
      <point x="32.89999985050534" y="788.682336375052"/>
      <point x="32.90000004787535" y="704.6058657434045" type="curve"/>
    </contour>
    <contour>
      <point x="147.9000015258789" y="-5" type="line"/>
      <point x="179.73761993376627" y="-5.0"/>
      <point x="227.89999985050534" y="11.317662215356847"/>
      <point x="227.90000004787535" y="95.39413284700446" type="curve"/>
      <point x="227.90000147800356" y="704.6058664482" type="line"/>
      <point x="227.90000167537357" y="788.682336375052"/>
      <point x="179.73761840788734" y="805.0"/>
      <point x="147.9" y="805.0" type="curve"/>
    </contour>
  </outline>
</glyph>
<glyph name="O_with_diaeresis" format="2">
  <advance width="260.8"/>
  <unicode hex="00D6"/>
  <outline>
    <contour>
      <point x="117.9" y="890.0" type="curve" smooth="yes"/>
      <point x="117.9" y="914.83618"/>
      <point x="97.73618" y="935.0"/>
      <point x="72.9" y="935.0" type="curve" smooth="yes"/>
      <point x="48.06382000000001" y="935.0"/>
      <point x="27.900000000000006" y="914.83618"/>
      <point x="27.900000000000006" y="890.0" type="curve" smooth="yes"/>
      <point x="27.900000000000006" y="865.16382"/>
      <point x="48.06382000000001" y="845.0"/>
      <point x="72.9" y="845.0" type="curve" smooth="yes"/>
      <point x="97.73618" y="845.0"/>
      <point x="117.9" y="865.16382"/>
    </contour>
    <contour>
      <point x="232.9" y="890.0" type="curve" smooth="yes"/>
      <point x="232.9" y="914.83618"/>
      <point x="212.73618000000002" y="935.0"/>
      <point x="187.9" y="935.0" type="curve" smooth="yes"/>
      <point x="163.06382" y="935.0"/>
      <point x="142.9" y="914.83618"/>
      <point x="142.9" y="890.0" type="curve" smooth="yes"/>
      <point x="142.9" y="865.16382"/>
      <point x="163.06382" y="845.0"/>
      <point x="187.9" y="845.0" type="curve" smooth="yes"/>
      <point x="212.73618000000002" y="845.0"/>
      <point x="232.9" y="865.16382"/>
    </contour>
    <contour>
      <point x="32.90000147800356" y="95.39413283117261" type="line"/>
      <point x="32.90000167537358" y="11.317662904320528"/>
      <point x="81.06238159211266" y="-4.9999999999999964"/>
      <point x="112.9" y="-5.0" type="curve"/>
      <point x="112.9000015258789" y="805" type="line"/>
      <point x="81.06238311799154" y="805.0"/>
      <point x="32.89999985050534" y="788.682336375052"/>
      <point x="32.90000004787535" y="704.6058657434045" type="curve"/>
    </contour>
    <contour>
      <point x="147.9000015258789" y="-5" type="line"/>
      <point x="179.73761993376627" y="-5.0"/>
      <point x="227.89999985050534" y="11.317662215356847"/>
      <point x="227.90000004787535" y="95.39413284700446" type="curve"/>
      <point x="227.90000147800356" y="704.6058664482" type="line"/>
      <point x="227.90000167537357" y="788.682336375052"/>
      <point x="179.73761840788734" y="805.0"/>
      <point x="147.9" y="805.0" type="curve"/>
    </contour>
  </outline>
</glyph>
<glyph name="multiply" format="2">
  <advance width="260.8"/>
  <unicode hex="00D7"/>
  <outline>
    <contour>
      <point x="32.900001525878906" y="500.3941328311726" type="line"/>
      <point x="32.90000152587891" y="416.3176629043205"/>
      <point x="81.06238159211266" y="400.0"/>
      <point x="112.9" y="400.0" type="curve"/>
      <point x="112.9000015258789" y="600" type="line"/>
      <point x="32.900001525878906" y="600" type="line"/>
    </contour>
    <contour>
      <point x="147.9000015258789" y="400" type="line"/>
      <point x="179.73761993376627" y="400.0"/>
      <point x="227.8999991902372" y="416.3176622153569"/>
      <point x="227.90000025932483" y="500.39413284700447" type="curve"/>
      <point x="227.9000015258789" y="600" type="line"/>
      <point x="147.9000015258789" y="600" type="line"/>
    </contour>
    <contour>
      <point x="32.900001525878906" y="200" type="line"/>
      <point x="112.9000015258789" y="200" type="line"/>
      <point x="112.9000015258789" y="400" type="line"/>
      <point x="81.06238311799154" y="400.0"/>
      <point x="32.89999919023722" y="383.68233637505205"/>
      <point x="32.90000025932483" y="299.6058657434045" type="curve"/>
    </contour>
    <contour>
      <point x="147.9000015258789" y="200" type="line"/>
      <point x="227.9000015258789" y="200" type="line"/>
      <point x="227.9000015258789" y="299.6058664481999" type="line"/>
      <point x="227.9000015258789" y="383.682336375052"/>
      <point x="179.73761840788734" y="400.0"/>
      <point x="147.9" y="400.0" type="curve"/>
    </contour>
  </outline>
</glyph>
<glyph name="O_with_stroke" format="2">
  <advance width="260.8"/>
  <unicode hex="00D8"/>
  <outline>
    <contour>
      <point x="147.9000015258789" y="-5" type="line"/>
      <point x="179.73761993376627" y="-5.0"/>
      <point x="227.89999985050534" y="11.317662215356847"/>
      <point x="227.90000004787535" y="95.39413284700446" type="curve"/>
      <point x="227.90000147800353" y="704.605862327129" type="line"/>
      <point x="227.9000015325211" y="727.8294633288932"/>
      <point x="227.89999923498186" y="751.8641602576217"/>
      <point x="211.74303436279297" y="773.1326599121094" type="curve"/>
      <point x="233.51369989654404" y="787.3911276087682"/>
      <point x="247.89999999999998" y="812.0287711872002"/>
      <point x="247.89999999999998" y="840.0000000000001" type="curve"/>
      <point x="167.9000015258789" y="840" type="line"/>
      <point x="167.9000015258789" y="802.472038269043" type="line"/>
      <point x="161.50673852601483" y="804.1233098323527"/>
      <point x="154.8049423352" y="805.0000000000001"/>
      <point x="147.90000000000003" y="805.0" type="curve"/>
    </contour>
    <contour>
      <point x="32.90000147800357" y="95.39412841038654" type="line"/>
      <point x="32.900001532521095" y="72.17053504603528"/>
      <point x="32.89999942107205" y="48.135913339741705"/>
      <point x="49.05696105957031" y="26.867340087890625" type="curve"/>
      <point x="27.28630010345594" y="12.608872391231897"/>
      <point x="12.899999999999993" y="-12.028771187200006"/>
      <point x="12.900000000000002" y="-40.0" type="curve"/>
      <point x="92.9000015258789" y="-40" type="line"/>
      <point x="92.9000015258789" y="-2.4720458984375" type="line"/>
      <point x="99.29326147398517" y="-4.123309832352588"/>
      <point x="105.99505766479999" y="-5.000000000000001"/>
      <point x="112.9" y="-5.000000000000001" type="curve"/>
      <point x="112.9000015258789" y="805" type="line"/>
      <point x="81.06238311799154" y="805.0"/>
      <point x="32.89999985050534" y="788.682336375052"/>
      <point x="32.90000004787535" y="704.6058657434045" type="curve"/>
    </contour>
  </outline>
</glyph>
<glyph name="U_with_grave" format="2">
  <advance width="260.8"/>
  <unicode hex="00D9"/>
  <outline>
    <contour>
      <point x="55.400000000000006" y="930.0" type="line"/>
      <point x="55.400000000000006" y="885.8468"/>
      <point x="91.24680000000001" y="850.0"/>
      <point x="135.4" y="850.0" type="curve"/>
      <point x="135.4" y="930.0" type="line"/>
    </contour>
    <contour>
      <point x="32.900001525878906" y="95.39413283117261" type="line"/>
      <point x="32.90000152587891" y="11.317662904320528"/>
      <point x="81.06238159211266" y="-4.9999999999999964"/>
      <point x="112.9" y="-5.0" type="curve"/>
      <point x="112.9000015258789" y="800" type="line"/>
      <point x="32.900001525878906" y="800" type="line"/>
    </contour>
    <contour>
      <point x="147.9000015258789" y="-5" type="line"/>
      <point x="179.73761993376627" y="-5.0"/>
      <point x="227.8999998659703" y="11.317662215356847"/>
      <point x="227.90000004292273" y="95.39413284700446" type="curve"/>
      <point x="227.9000015258789" y="800" type="line"/>
      <point x="147.9000015258789" y="800" type="line"/>
    </contour>
  </outline>
</glyph>
<glyph name="THORN" format="2">
  <advance width="260.8"/>
  <unicode hex="00DE"/>
  <outline>
    <contour>
      <point x="32.900001525878906" y="0" type="line"/>
      <point x="112.9000015258789" y="0" type="line"/>
      <point x="112.9000015258789" y="800" type="line"/>
      <point x="32.900001525878906" y="800" type="line"/>
    </contour>
    <contour>
      <point x="147.9000015258789" y="100" type="line"/>
      <point x="179.73761993376627" y="100.0"/>
      <point x="227.89999977915562" y="116.31766221535686"/>
      <point x="227.90000007072496" y="200.39413284700447" type="curve"/>
      <point x="227.90000145515396" y="599.6058664482" type="line"/>
      <point x="227.90000174672332" y="683.682336375052"/>
      <point x="179.73761840788734" y="700.0"/>
      <point x="147.9" y="700.0" type="curve"/>
    </contour>
  </outline>
</glyph>
<glyph name="eszett" format="2">
  <advance width="260.8"/>
  <unicode hex="00DF"/>
  <outline>
    <contour>
      <point x="32.900001525878906" y="0" type="line"/>
      <point x="112.9000015258789" y="0" type="line"/>
      <point x="112.9000015258789" y="800" type="line"/>
      <point x="81.06238311799154" y="800.0"/>
      <point x="32.89999986503953" y="783.682336375052"/>
      <point x="32.9000000432208" y="699.6058657434045" type="curve"/>
    </contour>
    <contour>
      <point x="147.9000015258789" y="400" type="line"/>
      <point x="179.73761993376627" y="400.0"/>
      <point x="227.89999959511863" y="416.31766221535685"/>
      <point x="227.9000001296624" y="500.39413284700447" type="curve"/>
      <point x="227.9000013962165" y="699.6058664482" type="line"/>
      <point x="227.90000193076028" y="783.682336375052"/>
      <point x="179.73761840788734" y="800.0"/>
      <point x="147.9" y="800.0" type="curve"/>
    </contour>
    <contour>
      <point x="147.9000015258789" y="0" type="line"/>
      <point x="179.73761993376627" y="0.0"/>
      <point x="227.89999959511863" y="16.317662215356847"/>
      <point x="227.9000001296624" y="100.39413284700446" type="curve"/>
      <point x="227.9000013962165" y="299.6058664481999" type="line"/>
      <point x="227.90000193076028" y="383.682336375052"/>
      <point x="179.73761840788734" y="400.0"/>
      <point x="147.9" y="400.0" type="curve"/>
    </contour>
  </outline>
</glyph>
<glyph name="a_with_acute" format="2">
  <advance width="260.8"/>
  <unicode hex="00E1"/>
  <outline>
    <contour>
      <point x="123.525" y="650.0" type="line"/>
      <point x="167.6782" y="650.0"/>
      <point x="203.525" y="685.8468"/>
      <point x="203.525" y="730.0" type="curve"/>
      <point x="123.525" y="730.0" type="line"/>
    </contour>
    <contour>
      <point x="119.15" y="560.0" type="curve" smooth="yes"/>
      <point x="119.15" y="584.83618"/>
      <point x="98.98617999999999" y="605.0"/>
      <point x="74.15" y="605.0" type="curve" smooth="yes"/>
      <point x="49.31382" y="605.0"/>
      <point x="29.15" y="584.83618"/>
      <point x="29.15" y="560.0" type="curve" smooth="yes"/>
      <point x="29.15" y="535.16382"/>
      <point x="49.31382" y="515.0"/>
      <point x="74.15" y="515.0" type="curve" smooth="yes"/>
      <point x="98.98617999999999" y="515.0"/>
      <point x="119.15" y="535.16382"/>
    </contour>
    <contour>
      <point x="147.90000146688558" y="95.39413283117261" type="line"/>
      <point x="147.90000171009035" y="11.317662904320528"/>
      <point x="196.06238159211267" y="-4.9999999999999964"/>
      <point x="227.9" y="-5.0" type="curve"/>
      <point x="227.90000146688558" y="502.10586644819995" type="line"/>
      <point x="227.90000171009035" y="586.182336375052"/>
      <point x="179.73761840788734" y="602.5"/>
      <point x="147.9" y="602.5" type="curve"/>
    </contour>
    <contour>
      <point x="32.900001397553226" y="97.89413283117261" type="line"/>
      <point x="32.900001926586256" y="13.817662904320528"/>
      <point x="81.06238159211266" y="-2.499999999999996"/>
      <point x="112.9" y="-2.5" type="curve"/>
      <point x="112.9000015258789" y="400" type="line"/>
      <point x="81.06238311799154" y="400.0"/>
      <point x="32.89999959929264" y="383.6823363750521"/>
      <point x="32.900000128325686" y="299.6058657434045" type="curve"/>
    </contour>
  </outline>
</glyph>
<glyph name="ae" format="2">
  <advance width="490.8"/>
  <unicode hex="00E6"/>
  <outline>
    <contour>
      <point x="119.15" y="560.0" type="curve" smooth="yes"/>
      <point x="119.15" y="584.83618"/>
      <point x="98.98617999999999" y="605.0"/>
      <point x="74.15" y="605.0" type="curve" smooth="yes"/>
      <point x="49.31382" y="605.0"/>
      <point x="29.15" y="584.83618"/>
      <point x="29.15" y="560.0" type="curve" smooth="yes"/>
      <point x="29.15" y="535.16382"/>
      <point x="49.31382" y="515.0"/>
      <point x="74.15" y="515.0" type="curve" smooth="yes"/>
      <point x="98.98617999999999" y="515.0"/>
      <point x="119.15" y="535.16382"/>
    </contour>
    <contour>
      <point x="147.9000015258789" y="-5" type="line"/>
      <point x="179.73761993376627" y="-5.0"/>
      <point x="227.89999978406325" y="11.317662215356847"/>
      <point x="227.9000000691533" y="95.39413284700446" type="curve"/>
      <point x="227.90000145672562" y="504.60586644819995" type="line"/>
      <point x="227.90000174181563" y="588.682336375052"/>
      <point x="179.73761840788734" y="605.0"/>
      <point x="147.9" y="605.0" type="curve"/>
    </contour>
    <contour>
      <point x="262.90000145672565" y="95.39413283117267" type="line"/>
      <point x="262.90000174181563" y="11.317662904320585"/>
      <point x="311.0623815921126" y="-4.9999999999999964"/>
      <point x="342.9" y="-5.0" type="curve"/>
      <point x="342.9000015258789" y="605" type="line"/>
      <point x="311.06238311799154" y="605.0"/>
      <point x="262.89999978406325" y="588.682336375052"/>
      <point x="262.90000006915324" y="504.6058657434045" type="curve"/>
    </contour>
    <contour>
      <point x="377.9000015258789" y="195" type="line"/>
      <point x="457.9000015258789" y="195" type="line"/>
      <point x="457.9000015258789" y="504.60586644819995" type="line"/>
      <point x="457.9000015258789" y="588.682336375052"/>
      <point x="409.73761840788734" y="605.0"/>
      <point x="377.9" y="605.0" type="curve"/>
    </contour>
    <contour>
      <point x="32.9000013962165" y="95.39413283117261" type="line"/>
      <point x="32.900001930760304" y="11.317662904320528"/>
      <point x="81.06238159211266" y="-4.9999999999999964"/>
      <point x="112.9" y="-5.0" type="curve"/>
      <point x="112.9000015258789" y="395" type="line"/>
      <point x="81.06238311799154" y="395.0"/>
      <point x="32.8999995951186" y="378.6823363750521"/>
      <point x="32.900000129662416" y="294.6058657434045" type="curve"/>
    </contour>
  </outline>
</glyph>
<glyph name="e_with_circumflex" format="2">
  <advance width="260.8"/>
  <unicode hex="00EA"/>
  <outline>
    <contour>
      <point x="47.900000000000006" y="650.0" type="line"/>
      <point x="92.0532" y="650.0"/>
      <point x="127.9" y="685.8468"/>
      <point x="127.9" y="730.0" type="curve"/>
      <point x="47.900000000000006" y="730.0" type="line"/>
    </contour>
    <contour>
      <point x="132.9" y="730.0" type="line"/>
      <point x="132.9" y="685.8468"/>
      <point x="168.7468" y="650.0"/>
      <point x="212.9" y="650.0" type="curve"/>
      <point x="212.9" y="730.0" type="line"/>
    </contour>
    <contour>
      <point x="32.90000145672562" y="95.39413283117261" type="line"/>
      <point x="32.90000174181565" y="11.317662904320528"/>
      <point x="81.06238159211266" y="-4.9999999999999964"/>
      <point x="112.9" y="-5.0" type="curve"/>
      <point x="112.9000015258789" y="605" type="line"/>
      <point x="81.06238311799154" y="605.0"/>
      <point x="32.89999978406326" y="588.6823363750522"/>
      <point x="32.900000069153286" y="504.60586574340454" type="curve"/>
    </contour>
    <contour>
      <point x="147.9000015258789" y="195" type="line"/>
      <point x="227.9000015258789" y="195" type="line"/>
      <point x="227.9000015258789" y="504.60586644819995" type="line"/>
      <point x="227.9000015258789" y="588.682336375052"/>
      <point x="179.73761840788734" y="605.0"/>
      <point x="147.9" y="605.0" type="curve"/>
    </contour>
  </outline>
</glyph>
<glyph name="e_with_diaeresis" format="2">
  <advance width="260.8"/>
  <unicode hex="00EB"/>
  <outline>
    <contour>
      <point x="117.9" y="690.0" type="curve" smooth="yes"/>
      <point x="117.9" y="714.83618"/>
      <point x="97.73618" y="735.0"/>
      <point x="72.9" y="735.0" type="curve" smooth="yes"/>
      <point x="48.06382000000001" y="735.0"/>
      <point x="27.900000000000006" y="714.83618"/>
      <point x="27.900000000000006" y="690.0" type="curve" smooth="yes"/>
      <point x="27.900000000000006" y="665.16382"/>
      <point x="48.06382000000001" y="645.0"/>
      <point x="72.9" y="645.0" type="curve" smooth="yes"/>
      <point x="97.73618" y="645.0"/>
      <point x="117.9" y="665.16382"/>
    </contour>
    <contour>
      <point x="232.9" y="690.0" type="curve" smooth="yes"/>
      <point x="232.9" y="714.83618"/>
      <point x="212.73618000000002" y="735.0"/>
      <point x="187.9" y="735.0" type="curve" smooth="yes"/>
      <point x="163.06382" y="735.0"/>
      <point x="142.9" y="714.83618"/>
      <point x="142.9" y="690.0" type="curve" smooth="yes"/>
      <point x="142.9" y="665.16382"/>
      <point x="163.06382" y="645.0"/>
      <point x="187.9" y="645.0" type="curve" smooth="yes"/>
      <point x="212.73618000000002" y="645.0"/>
      <point x="232.9" y="665.16382"/>
    </contour>
    <contour>
      <point x="32.90000145672562" y="95.39413283117261" type="line"/>
      <point x="32.90000174181565" y="11.317662904320528"/>
      <point x="81.06238159211266" y="-4.9999999999999964"/>
      <point x="112.9" y="-5.0" type="curve"/>
      <point x="112.9000015258789" y="605" type="line"/>
      <point x="81.06238311799154" y="605.0"/>
      <point x="32.89999978406326" y="588.6823363750522"/>
      <point x="32.900000069153286" y="504.60586574340454" type="curve"/>
    </contour>
    <contour>
      <point x="147.9000015258789" y="195" type="line"/>
      <point x="227.9000015258789" y="195" type="line"/>
      <point x="227.9000015258789" y="504.60586644819995" type="line"/>
      <point x="227.9000015258789" y="588.682336375052"/>
      <point x="179.73761840788734" y="605.0"/>
      <point x="147.9" y="605.0" type="curve"/>
    </contour>
  </outline>
</glyph>
<glyph name="i_with_grave" format="2">
  <advance width="145.8"/>
  <unicode hex="00EC"/>
  <outline>
    <contour>
      <point x="-2.0999999999999943" y="730.0" type="line"/>
      <point x="-2.0999999999999943" y="685.8468"/>
      <point x="33.74680000000001" y="650.0"/>
      <point x="77.9" y="650.0" type="curve"/>
      <point x="77.9" y="730.0" type="line"/>
    </contour>
    <contour>
      <point x="32.900001525878906" y="0" type="line"/>
      <point x="112.9000015258789" y="0" type="line"/>
      <point x="112.9000015258789" y="600" type="line"/>
      <point x="32.900001525878906" y="600" type="line"/>
    </contour>
  </outline>
</glyph>
<glyph name="i_with_acute" format="2">
  <advance width="145.8"/>
  <unicode hex="00ED"/>
  <outline>
    <contour>
      <point x="67.9" y="650.0" type="line"/>
      <point x="112.0532" y="650.0"/>
      <point x="147.9" y="685.8468"/>
      <point x="147.9" y="730.0" type="curve"/>
      <point x="67.9" y="730.0" type="line"/>
    </contour>
    <contour>
      <point x="32.900001525878906" y="0" type="line"/>
      <point x="112.9000015258789" y="0" type="line"/>
      <point x="112.9000015258789" y="600" type="line"/>
      <point x="32.900001525878906" y="600" type="line"/>
    </contour>
  </outline>
</glyph>
<glyph name="i_with_diaeresis" format="2">
  <advance width="145.8"/>
  <unicode hex="00EF"/>
  <outline>
    <contour>
      <point x="60.400000000000006" y="690.0" type="curve" smooth="yes"/>
      <point x="60.400000000000006" y="714.83618"/>
      <point x="40.236180000000004" y="735.0"/>
      <point x="15.400000000000006" y="735.0" type="curve" smooth="yes"/>
      <point x="-9.436179999999995" y="735.0"/>
      <point x="-29.599999999999994" y="714.83618"/>
      <point x="-29.599999999999994" y="690.0" type="curve" smooth="yes"/>
      <point x="-29.599999999999994" y="665.16382"/>
      <point x="-9.436179999999995" y="645.0"/>
      <point x="15.400000000000006" y="645.0" type="curve" smooth="yes"/>
      <point x="40.236180000000004" y="645.0"/>
      <point x="60.400000000000006" y="665.16382"/>
    </contour>
    <contour>
      <point x="175.4" y="690.0" type="curve" smooth="yes"/>
      <point x="175.4" y="714.83618"/>
      <point x="155.23618000000002" y="735.0"/>
      <point x="130.4" y="735.0" type="curve" smooth="yes"/>
      <point x="105.56381999999999" y="735.0"/>
      <point x="85.4" y="714.83618"/>
      <point x="85.4" y="690.0" type="curve" smooth="yes"/>
      <point x="85.4" y="665.16382"/>
      <point x="105.56381999999999" y="645.0"/>
      <point x="130.4" y="645.0" type="curve" smooth="yes"/>
      <point x="155.23618000000002" y="645.0"/>
      <point x="175.4" y="665.16382"/>
    </contour>
    <contour>
      <point x="32.900001525878906" y="0" type="line"/>
      <point x="112.9000015258789" y="0" type="line"/>
      <point x="112.9000015258789" y="600" type="line"/>
      <point x="32.900001525878906" y="600" type="line"/>
    </contour>
  </outline>
</glyph>
<glyph name="eth" format="2">
  <advance width="260.8"/>
  <unicode hex="00F0"/>
  <outline>
    <contour>
      <point x="147.9000015258789" y="-5" type="line"/>
      <point x="179.73761993376627" y="-5.0"/>
      <point x="227.89999985050534" y="11.317662215356847"/>
      <point x="227.90000004787535" y="95.39413284700446" type="curve"/>
      <point x="227.90000147800356" y="704.6058664482" type="line"/>
      <point x="227.90000167537357" y="788.682336375052"/>
      <point x="179.73761840788734" y="805.0"/>
      <point x="147.9" y="805.0" type="curve"/>
    </contour>
    <contour>
      <point x="32.90000145594862" y="95.39413283117261" type="line"/>
      <point x="32.90000174424191" y="11.317662904320528"/>
      <point x="81.06238159211266" y="-4.9999999999999964"/>
      <point x="112.9" y="-5.0" type="curve"/>
      <point x="112.9000015258789" y="600" type="line"/>
      <point x="81.06238311799154" y="600.0"/>
      <point x="32.89999978163701" y="583.6823363750522"/>
      <point x="32.900000069930286" y="499.60586574340454" type="curve"/>
    </contour>
  </outline>
</glyph>
<glyph name="n_with_smalltilde" format="2">
  <advance width="260.8"/>
  <unicode hex="00F1"/>
  <outline>
    <contour>
      <point x="110.00586867887446" y="650.0" type="line"/>
      <point x="194.08233860572653" y="650.0"/>
      <point x="210.4" y="698.1623815921126"/>
      <point x="210.4" y="730.0" type="curve"/>
      <point x="150.7941357824744" y="730.0" type="line"/>
      <point x="66.71766585562231" y="730.0"/>
      <point x="50.400000000000006" y="681.8376184078874"/>
      <point x="50.400000000000006" y="650.0" type="curve"/>
    </contour>
    <contour>
      <point x="32.900001525878906" y="0" type="line"/>
      <point x="112.9000015258789" y="0" type="line"/>
      <point x="112.9000015258789" y="600" type="line"/>
      <point x="32.900001525878906" y="600" type="line"/>
    </contour>
    <contour>
      <point x="147.9000015258789" y="0" type="line"/>
      <point x="227.9000015258789" y="0" type="line"/>
      <point x="227.9000015258789" y="499.60586644819995" type="line"/>
      <point x="227.9000015258789" y="583.682336375052"/>
      <point x="179.73761840788734" y="600.0"/>
      <point x="147.9" y="600.0" type="curve"/>
    </contour>
  </outline>
</glyph>
<glyph name="o_with_stroke" format="2">
  <advance width="260.8"/>
  <unicode hex="00F8"/>
  <outline>
    <contour>
      <point x="147.9000015258789" y="-5" type="line"/>
      <point x="179.73761993376627" y="-5.0"/>
      <point x="227.89999978406325" y="11.317662215356847"/>
      <point x="227.9000000691533" y="95.39413284700446" type="curve"/>
      <point x="227.90000145672562" y="504.605862327129" type="line"/>
      <point x="227.90000153547317" y="527.8294633288932"/>
      <point x="227.89999923498186" y="551.8641602576217"/>
      <point x="211.74303436279297" y="573.1326599121094" type="curve"/>
      <point x="233.51369989654404" y="587.3911276087682"/>
      <point x="247.89999999999998" y="612.0287711872002"/>
      <point x="247.89999999999998" y="640.0000000000001" type="curve"/>
      <point x="167.9000015258789" y="640" type="line"/>
      <point x="167.9000015258789" y="602.472038269043" type="line"/>
      <point x="161.50673852601483" y="604.1233098323527"/>
      <point x="154.8049423352" y="605.0000000000001"/>
      <point x="147.90000000000003" y="605.0" type="curve"/>
    </contour>
    <contour>
      <point x="32.90000145672564" y="95.39412841038654" type="line"/>
      <point x="32.90000153547317" y="72.17053504603528"/>
      <point x="32.89999942107205" y="48.135913339741705"/>
      <point x="49.05696105957031" y="26.867340087890625" type="curve"/>
      <point x="27.28630010345594" y="12.608872391231897"/>
      <point x="12.899999999999993" y="-12.028771187200006"/>
      <point x="12.900000000000002" y="-40.0" type="curve"/>
      <point x="92.9000015258789" y="-40" type="line"/>
      <point x="92.9000015258789" y="-2.4720458984375" type="line"/>
      <point x="99.29326147398517" y="-4.123309832352588"/>
      <point x="105.99505766479999" y="-5.000000000000001"/>
      <point x="112.9" y="-5.000000000000001" type="curve"/>
      <point x="112.9000015258789" y="605" type="line"/>
      <point x="81.06238311799154" y="605.0"/>
      <point x="32.89999978406326" y="588.6823363750522"/>
      <point x="32.900000069153286" y="504.60586574340454" type="curve"/>
    </contour>
  </outline>
</glyph>
<glyph name="thorn" format="2">
  <advance width="260.8"/>
  <unicode hex="00FE"/>
  <outline>
    <contour>
      <point x="32.900001525878906" y="-200" type="line"/>
      <point x="112.9000015258789" y="-200" type="line"/>
      <point x="112.9000015258789" y="800" type="line"/>
      <point x="32.900001525878906" y="800" type="line"/>
    </contour>
    <contour>
      <point x="147.9000015258789" y="0" type="line"/>
      <point x="179.73761993376627" y="0.0"/>
      <point x="227.89999977915562" y="16.317662215356847"/>
      <point x="227.90000007072496" y="100.39413284700446" type="curve"/>
      <point x="227.90000145515396" y="499.60586644819995" type="line"/>
      <point x="227.90000174672332" y="583.682336375052"/>
      <point x="179.73761840788734" y="600.0"/>
      <point x="147.9" y="600.0" type="curve"/>
    </contour>
  </outline>
</glyph>
<glyph name="y_with_diaeresis" format="2">
  <advance width="260.8"/>
  <unicode hex="00FF"/>
  <outline>
    <contour>
      <point x="117.9" y="690.0" type="curve" smooth="yes"/>
      <point x="117.9" y="714.83618"/>
      <point x="97.73618" y="735.0"/>
      <point x="72.9" y="735.0" type="curve" smooth="yes"/>
      <point x="48.06382000000001" y="735.0"/>
      <point x="27.900000000000006" y="714.83618"/>
      <point x="27.900000000000006" y="690.0" type="curve" smooth="yes"/>
      <point x="27.900000000000006" y="665.16382"/>
      <point x="48.06382000000001" y="645.0"/>
      <point x="72.9" y="645.0" type="curve" smooth="yes"/>
      <point x="97.73618" y="645.0"/>
      <point x="117.9" y="665.16382"/>
    </contour>
    <contour>
      <point x="232.9" y="690.0" type="curve" smooth="yes"/>
      <point x="232.9" y="714.83618"/>
      <point x="212.73618000000002" y="735.0"/>
      <point x="187.9" y="735.0" type="curve" smooth="yes"/>
      <point x="163.06382" y="735.0"/>
      <point x="142.9" y="714.83618"/>
      <point x="142.9" y="690.0" type="curve" smooth="yes"/>
      <point x="142.9" y="665.16382"/>
      <point x="163.06382" y="645.0"/>
      <point x="187.9" y="645.0" type="curve" smooth="yes"/>
      <point x="212.73618000000002" y="645.0"/>
      <point x="232.9" y="665.16382"/>
    </contour>
    <contour>
      <point x="32.900001466604664" y="100.39413283117261" type="line"/>
      <point x="32.900001710967544" y="16.317662904320528"/>
      <point x="81.06238159211266" y="3.898983747569409e-15"/>
      <point x="112.9" y="0.0" type="curve"/>
      <point x="112.90000146660466" y="504.60586644819995" type="line"/>
      <point x="112.90000171096754" y="588.682336375052"/>
      <point x="64.73761840788734" y="605.0"/>
      <point x="32.9" y="605.0" type="curve"/>
    </contour>
    <contour>
      <point x="147.9000015258789" y="-210" type="line"/>
      <point x="179.73761993376627" y="-210.0"/>
      <point x="227.89999986688832" y="-193.68233778464315"/>
      <point x="227.90000004262873" y="-109.60586715299554" type="curve"/>
      <point x="227.9000015258789" y="600" type="line"/>
      <point x="147.9000015258789" y="600" type="line"/>
    </contour>
    <contour>
      <point x="115.4" y="-170.0" type="curve" smooth="yes"/>
      <point x="115.4" y="-147.9234"/>
      <point x="97.47659999999999" y="-130.0"/>
      <point x="75.4" y="-130.0" type="curve" smooth="yes"/>
      <point x="53.3234" y="-130.0"/>
      <point x="35.4" y="-147.9234"/>
      <point x="35.4" y="-170.0" type="curve" smooth="yes"/>
      <point x="35.4" y="-192.0766"/>
      <point x="53.3234" y="-210.0"/>
      <point x="75.4" y="-210.0" type="curve" smooth="yes"/>
      <point x="97.47659999999999" y="-210.0"/>
      <point x="115.4" y="-192.0766"/>
    </contour>
  </outline>
</glyph>
<glyph name="A_with_macron" format="2">
  <advance width="260.8"/>
  <unicode hex="0100"/>
  <outline>
    <contour>
      <point x="50.400001525878906" y="850" type="line"/>
      <point x="210.4000015258789" y="850" type="line"/>
      <point x="210.4000015258789" y="930" type="line"/>
      <point x="50.400001525878906" y="930" type="line"/>
    </contour>
    <contour>
      <point x="32.900001525878906" y="0" type="line"/>
      <point x="112.9000015258789" y="0" type="line"/>
      <point x="112.9000015258789" y="805" type="line"/>
      <point x="81.06238311799154" y="805.0"/>
      <point x="32.899999865970294" y="788.682336375052"/>
      <point x="32.90000004292273" y="704.6058657434045" type="curve"/>
    </contour>
    <contour>
      <point x="147.9000015258789" y="0" type="line"/>
      <point x="227.9000015258789" y="0" type="line"/>
      <point x="227.9000015258789" y="704.6058664482" type="line"/>
      <point x="227.9000015258789" y="788.682336375052"/>
      <point x="179.73761840788734" y="805.0"/>
      <point x="147.9" y="805.0" type="curve"/>
    </contour>
  </outline>
</glyph>
<glyph name="A_with_breve" format="2">
  <advance width="260.8"/>
  <unicode hex="0102"/>
  <outline>
    <contour>
      <point x="50.400001525878906" y="930" type="line"/>
      <point x="50.400000000000006" y="885.8468"/>
      <point x="86.24680000000001" y="850.0"/>
      <point x="130.4" y="850.0" type="curve"/>
      <point x="174.5532" y="850.0"/>
      <point x="210.4" y="885.8468"/>
      <point x="210.4" y="930.0" type="curve"/>
    </contour>
    <contour>
      <point x="32.900001525878906" y="0" type="line"/>
      <point x="112.9000015258789" y="0" type="line"/>
      <point x="112.9000015258789" y="805" type="line"/>
      <point x="81.06238311799154" y="805.0"/>
      <point x="32.899999865970294" y="788.682336375052"/>
      <point x="32.90000004292273" y="704.6058657434045" type="curve"/>
    </contour>
    <contour>
      <point x="147.9000015258789" y="0" type="line"/>
      <point x="227.9000015258789" y="0" type="line"/>
      <point x="227.9000015258789" y="704.6058664482" type="line"/>
      <point x="227.9000015258789" y="788.682336375052"/>
      <point x="179.73761840788734" y="805.0"/>
      <point x="147.9" y="805.0" type="curve"/>
    </contour>
  </outline>
</glyph>
<glyph name="A_with_ogonek" format="2">
  <advance width="260.8"/>
  <unicode hex="0104"/>
  <outline>
    <contour>
      <point x="32.900001525878906" y="0" type="line"/>
      <point x="112.9000015258789" y="0" type="line"/>
      <point x="112.9000015258789" y="805" type="line"/>
      <point x="81.06238311799154" y="805.0"/>
      <point x="32.899999865970294" y="788.682336375052"/>
      <point x="32.90000004292273" y="704.6058657434045" type="curve"/>
    </contour>
    <contour>
      <point x="147.9000015258789" y="0" type="line"/>
      <point x="227.9000015258789" y="0" type="line"/>
      <point x="227.9000015258789" y="704.6058664482" type="line"/>
      <point x="227.9000015258789" y="788.682336375052"/>
      <point x="179.73761840788734" y="805.0"/>
      <point x="147.9" y="805.0" type="curve"/>
    </contour>
    <contour>
      <point x="227.9" y="-25.0" type="line"/>
      <point x="183.7468" y="-25.0"/>
      <point x="147.9" y="-60.8468"/>
      <point x="147.9" y="-105.0" type="curve"/>
      <point x="227.9" y="-105.0" type="line"/>
    </contour>
  </outline>
</glyph>
<glyph name="c_with_caron" format="2">
  <advance width="260.8"/>
  <unicode hex="010D"/>
  <outline>
    <contour>
      <point x="130.4" y="650.0" type="line"/>
      <point x="130.4" y="694.1532"/>
      <point x="94.5532" y="730.0"/>
      <point x="50.400000000000006" y="730.0" type="curve"/>
      <point x="50.400000000000006" y="650.0" type="line"/>
    </contour>
    <contour>
      <point x="215.4" y="730.0" type="line"/>
      <point x="171.2468" y="730.0"/>
      <point x="135.4" y="694.1532"/>
      <point x="135.4" y="650.0" type="curve"/>
      <point x="215.4" y="650.0" type="line"/>
    </contour>
    <contour>
      <point x="32.90000145594862" y="100.39413283117261" type="line"/>
      <point x="32.90000174424191" y="16.317662904320528"/>
      <point x="81.06238159211266" y="3.898983747569409e-15"/>
      <point x="112.9" y="0.0" type="curve"/>
      <point x="112.9000015258789" y="605" type="line"/>
      <point x="81.06238311799154" y="605.0"/>
      <point x="32.89999978163701" y="588.6823363750522"/>
      <point x="32.900000069930286" y="504.60586574340454" type="curve"/>
    </contour>
    <contour>
      <point x="232.9" y="560.0" type="curve" smooth="yes"/>
      <point x="232.9" y="584.83618"/>
      <point x="212.73618000000002" y="605.0"/>
      <point x="187.9" y="605.0" type="curve" smooth="yes"/>
      <point x="163.06382" y="605.0"/>
      <point x="142.9" y="584.83618"/>
      <point x="142.9" y="560.0" type="curve" smooth="yes"/>
      <point x="142.9" y="535.16382"/>
      <point x="163.06382" y="515.0"/>
      <point x="187.9" y="515.0" type="curve" smooth="yes"/>
      <point x="212.73618000000002" y="515.0"/>
      <point x="232.9" y="535.16382"/>
    </contour>
    <contour>
      <point x="226.65" y="80.0" type="line"/>
      <point x="182.4968" y="80.0"/>
      <point x="146.65" y="44.1532"/>
      <point x="146.65" y="0.0" type="curve"/>
      <point x="226.65" y="0.0" type="line"/>
    </contour>
  </outline>
</glyph>
<glyph name="E_with_macron" format="2">
  <advance width="260.8"/>
  <unicode hex="0112"/>
  <outline>
    <contour>
      <point x="50.400001525878906" y="850" type="line"/>
      <point x="210.4000015258789" y="850" type="line"/>
      <point x="210.4000015258789" y="930" type="line"/>
      <point x="50.400001525878906" y="930" type="line"/>
    </contour>
    <contour>
      <point x="32.900001525878906" y="0" type="line"/>
      <point x="112.9000015258789" y="0" type="line"/>
      <point x="112.9000015258789" y="800" type="line"/>
      <point x="32.900001525878906" y="800" type="line"/>
    </contour>
    <contour>
      <point x="147.9" y="800.0" type="line"/>
      <point x="147.9" y="755.8468"/>
      <point x="183.7468" y="720.0"/>
      <point x="227.9" y="720.0" type="curve"/>
      <point x="227.9" y="800.0" type="line"/>
    </contour>
    <contour>
      <point x="147.9" y="440.0" type="line"/>
      <point x="147.9" y="395.8468"/>
      <point x="183.7468" y="360.0"/>
      <point x="227.9" y="360.0" type="curve"/>
      <point x="227.9" y="440.0" type="line"/>
    </contour>
    <contour>
      <point x="227.9" y="80.0" type="line"/>
      <point x="183.7468" y="80.0"/>
      <point x="147.9" y="44.1532"/>
      <point x="147.9" y="0.0" type="curve"/>
      <point x="227.9" y="0.0" type="line"/>
    </contour>
  </outline>
</glyph>
<glyph name="E_with_breve" format="2">
  <advance width="260.8"/>
  <unicode hex="0114"/>
  <outline>
    <contour>
      <point x="50.400001525878906" y="930" type="line"/>
      <point x="50.400000000000006" y="885.8468"/>
      <point x="86.24680000000001" y="850.0"/>
      <point x="130.4" y="850.0" type="curve"/>
      <point x="174.5532" y="850.0"/>
      <point x="210.4" y="885.8468"/>
      <point x="210.4" y="930.0" type="curve"/>
    </contour>
    <contour>
      <point x="32.900001525878906" y="0" type="line"/>
      <point x="112.9000015258789" y="0" type="line"/>
      <point x="112.9000015258789" y="800" type="line"/>
      <point x="32.900001525878906" y="800" type="line"/>
    </contour>
    <contour>
      <point x="147.9" y="800.0" type="line"/>
      <point x="147.9" y="755.8468"/>
      <point x="183.7468" y="720.0"/>
      <point x="227.9" y="720.0" type="curve"/>
      <point x="227.9" y="800.0" type="line"/>
    </contour>
    <contour>
      <point x="147.9" y="440.0" type="line"/>
      <point x="147.9" y="395.8468"/>
      <point x="183.7468" y="360.0"/>
      <point x="227.9" y="360.0" type="curve"/>
      <point x="227.9" y="440.0" type="line"/>
    </contour>
    <contour>
      <point x="227.9" y="80.0" type="line"/>
      <point x="183.7468" y="80.0"/>
      <point x="147.9" y="44.1532"/>
      <point x="147.9" y="0.0" type="curve"/>
      <point x="227.9" y="0.0" type="line"/>
    </contour>
  </outline>
</glyph>
<glyph name="E_with_dotabove" format="2">
  <advance width="260.8"/>
  <unicode hex="0116"/>
  <outline>
    <contour>
      <point x="175.4" y="890.0" type="curve" smooth="yes"/>
      <point x="175.4" y="914.83618"/>
      <point x="155.23618" y="935.0"/>
      <point x="130.4" y="935.0" type="curve" smooth="yes"/>
      <point x="105.56382" y="935.0"/>
      <point x="85.4" y="914.83618"/>
      <point x="85.4" y="890.0" type="curve" smooth="yes"/>
      <point x="85.4" y="865.16382"/>
      <point x="105.56382" y="845.0"/>
      <point x="130.4" y="845.0" type="curve" smooth="yes"/>
      <point x="155.23618" y="845.0"/>
      <point x="175.4" y="865.16382"/>
    </contour>
    <contour>
      <point x="32.900001525878906" y="0" type="line"/>
      <point x="112.9000015258789" y="0" type="line"/>
      <point x="112.9000015258789" y="800" type="line"/>
      <point x="32.900001525878906" y="800" type="line"/>
    </contour>
    <contour>
      <point x="147.9" y="800.0" type="line"/>
      <point x="147.9" y="755.8468"/>
      <point x="183.7468" y="720.0"/>
      <point x="227.9" y="720.0" type="curve"/>
      <point x="227.9" y="800.0" type="line"/>
    </contour>
    <contour>
      <point x="147.9" y="440.0" type="line"/>
      <point x="147.9" y="395.8468"/>
      <point x="183.7468" y="360.0"/>
      <point x="227.9" y="360.0" type="curve"/>
      <point x="227.9" y="440.0" type="line"/>
    </contour>
    <contour>
      <point x="227.9" y="80.0" type="line"/>
      <point x="183.7468" y="80.0"/>
      <point x="147.9" y="44.1532"/>
      <point x="147.9" y="0.0" type="curve"/>
      <point x="227.9" y="0.0" type="line"/>
    </contour>
  </outline>
</glyph>
<glyph name="e_with_ogonek" format="2">
  <advance width="260.8"/>
  <unicode hex="0119"/>
  <outline>
    <contour>
      <point x="32.90000145672562" y="95.39413283117261" type="line"/>
      <point x="32.90000174181565" y="11.317662904320528"/>
      <point x="81.06238159211266" y="-4.9999999999999964"/>
      <point x="112.9" y="-5.0" type="curve"/>
      <point x="112.9000015258789" y="605" type="line"/>
      <point x="81.06238311799154" y="605.0"/>
      <point x="32.89999978406326" y="588.6823363750522"/>
      <point x="32.900000069153286" y="504.60586574340454" type="curve"/>
    </contour>
    <contour>
      <point x="147.9000015258789" y="195" type="line"/>
      <point x="227.9000015258789" y="195" type="line"/>
      <point x="227.9000015258789" y="504.60586644819995" type="line"/>
      <point x="227.9000015258789" y="588.682336375052"/>
      <point x="179.73761840788734" y="605.0"/>
      <point x="147.9" y="605.0" type="curve"/>
    </contour>
    <contour>
      <point x="130.4" y="-30.0" type="line"/>
      <point x="86.24680000000001" y="-30.0"/>
      <point x="50.400000000000006" y="-65.8468"/>
      <point x="50.400000000000006" y="-110.0" type="curve"/>
      <point x="130.4" y="-110.0" type="line"/>
    </contour>
  </outline>
</glyph>
<glyph name="G_with_circumflex" format="2">
  <advance width="260.8"/>
  <unicode hex="011C"/>
  <outline>
    <contour>
      <point x="47.900000000000006" y="850.0" type="line"/>
      <point x="92.0532" y="850.0"/>
      <point x="127.9" y="885.8468"/>
      <point x="127.9" y="930.0" type="curve"/>
      <point x="47.900000000000006" y="930.0" type="line"/>
    </contour>
    <contour>
      <point x="132.9" y="930.0" type="line"/>
      <point x="132.9" y="885.8468"/>
      <point x="168.7468" y="850.0"/>
      <point x="212.9" y="850.0" type="curve"/>
      <point x="212.9" y="930.0" type="line"/>
    </contour>
    <contour>
      <point x="32.90000147725551" y="100.39413283117261" type="line"/>
      <point x="32.90000167770943" y="16.317662904320528"/>
      <point x="81.06238159211266" y="3.898983747569409e-15"/>
      <point x="112.9" y="0.0" type="curve"/>
      <point x="112.9000015258789" y="800" type="line"/>
      <point x="81.06238311799154" y="800.0"/>
      <point x="32.89999984816947" y="783.682336375052"/>
      <point x="32.900000048623404" y="699.6058657434045" type="curve"/>
    </contour>
    <contour>
      <point x="147.9" y="800.0" type="line"/>
      <point x="147.9" y="755.8468"/>
      <point x="183.7468" y="720.0"/>
      <point x="227.9" y="720.0" type="curve"/>
      <point x="227.9" y="800.0" type="line"/>
    </contour>
    <contour>
      <point x="147.9000015258789" y="100.39413283117261" type="line"/>
      <point x="147.9000015258789" y="16.317662904320528"/>
      <point x="196.06238159211267" y="3.898983747569409e-15"/>
      <point x="227.9" y="0.0" type="curve"/>
      <point x="227.9000015258789" y="400" type="line"/>
      <point x="147.9000015258789" y="400" type="line"/>
    </contour>
  </outline>
</glyph>
<glyph name="g_with_breve" format="2">
  <advance width="260.8"/>
  <unicode hex="011F"/>
  <outline>
    <contour>
      <point x="50.400001525878906" y="730" type="line"/>
      <point x="50.400000000000006" y="685.8468"/>
      <point x="86.24680000000001" y="650.0"/>
      <point x="130.4" y="650.0" type="curve"/>
      <point x="174.5532" y="650.0"/>
      <point x="210.4" y="685.8468"/>
      <point x="210.4" y="730.0" type="curve"/>
    </contour>
    <contour>
      <point x="32.900001455153955" y="100.39413283117261" type="line"/>
      <point x="32.900001746723305" y="16.317662904320528"/>
      <point x="81.06238159211266" y="3.898983747569409e-15"/>
      <point x="112.9" y="0.0" type="curve"/>
      <point x="112.9000015258789" y="600" type="line"/>
      <point x="81.06238311799154" y="600.0"/>
      <point x="32.89999977915561" y="583.6823363750522"/>
      <point x="32.90000007072495" y="499.60586574340454" type="curve"/>
    </contour>
    <contour>
      <point x="147.9000015258789" y="-210" type="line"/>
      <point x="179.73761993376627" y="-210.0"/>
      <point x="227.89999986688832" y="-193.68233778464315"/>
      <point x="227.90000004262873" y="-109.60586715299554" type="curve"/>
      <point x="227.9000015258789" y="600" type="line"/>
      <point x="147.9000015258789" y="600" type="line"/>
    </contour>
    <contour>
      <point x="115.4" y="-170.0" type="curve" smooth="yes"/>
      <point x="115.4" y="-147.9234"/>
      <point x="97.47659999999999" y="-130.0"/>
      <point x="75.4" y="-130.0" type="curve" smooth="yes"/>
      <point x="53.3234" y="-130.0"/>
      <point x="35.4" y="-147.9234"/>
      <point x="35.4" y="-170.0" type="curve" smooth="yes"/>
      <point x="35.4" y="-192.0766"/>
      <point x="53.3234" y="-210.0"/>
      <point x="75.4" y="-210.0" type="curve" smooth="yes"/>
      <point x="97.47659999999999" y="-210.0"/>
      <point x="115.4" y="-192.0766"/>
    </contour>
  </outline>
</glyph>
<glyph name="G_with_dotabove" format="2">
  <advance width="260.8"/>
  <unicode hex="0120"/>
  <outline>
    <contour>
      <point x="175.4" y="890.0" type="curve" smooth="yes"/>
      <point x="175.4" y="914.83618"/>
      <point x="155.23618" y="935.0"/>
      <point x="130.4" y="935.0" type="curve" smooth="yes"/>
      <point x="105.56382" y="935.0"/>
      <point x="85.4" y="914.83618"/>
      <point x="85.4" y="890.0" type="curve" smooth="yes"/>
      <point x="85.4" y="865.16382"/>
      <point x="105.56382" y="845.0"/>
      <point x="130.4" y="845.0" type="curve" smooth="yes"/>
      <point x="155.23618" y="845.0"/>
      <point x="175.4" y="865.16382"/>
    </contour>
    <contour>
      <point x="32.90000147725551" y="100.39413283117261" type="line"/>
      <point x="32.90000167770943" y="16.317662904320528"/>
      <point x="81.06238159211266" y="3.898983747569409e-15"/>
      <point x="112.9" y="0.0" type="curve"/>
      <point x="112.9000015258789" y="800" type="line"/>
      <point x="81.06238311799154" y="800.0"/>
      <point x="32.89999984816947" y="783.682336375052"/>
      <point x="32.900000048623404" y="699.6058657434045" type="curve"/>
    </contour>
    <contour>
      <point x="147.9" y="800.0" type="line"/>
      <point x="147.9" y="755.8468"/>
      <point x="183.7468" y="720.0"/>
      <point x="227.9" y="720.0" type="curve"/>
      <point x="227.9" y="800.0" type="line"/>
    </contour>
    <contour>
      <point x="147.9000015258789" y="100.39413283117261" type="line"/>
      <point x="147.9000015258789" y="16.317662904320528"/>
      <point x="196.06238159211267" y="3.898983747569409e-15"/>
      <point x="227.9" y="0.0" type="curve"/>
      <point x="227.9000015258789" y="400" type="line"/>
      <point x="147.9000015258789" y="400" type="line"/>
    </contour>
  </outline>
</glyph>
<glyph name="I_with_smalltilde" format="2">
  <advance width="145.8"/>
  <unicode hex="0128"/>
  <outline>
    <contour>
      <point x="52.50586867887446" y="850.0" type="line"/>
      <point x="136.58233860572653" y="850.0"/>
      <point x="152.9" y="898.1623815921126"/>
      <point x="152.9" y="930.0" type="curve"/>
      <point x="93.2941357824744" y="930.0" type="line"/>
      <point x="9.217665855622315" y="930.0"/>
      <point x="-7.0999999999999925" y="881.8376184078874"/>
      <point x="-7.099999999999994" y="850.0" type="curve"/>
    </contour>
    <contour>
      <point x="32.900001525878906" y="0" type="line"/>
      <point x="112.9000015258789" y="0" type="line"/>
      <point x="112.9000015258789" y="800" type="line"/>
      <point x="32.900001525878906" y="800" type="line"/>
    </contour>
  </outline>
</glyph>
<glyph name="i_with_smalltilde" format="2">
  <advance width="145.8"/>
  <unicode hex="0129"/>
  <outline>
    <contour>
      <point x="52.50586867887446" y="650.0" type="line"/>
      <point x="136.58233860572653" y="650.0"/>
      <point x="152.9" y="698.1623815921126"/>
      <point x="152.9" y="730.0" type="curve"/>
      <point x="93.2941357824744" y="730.0" type="line"/>
      <point x="9.217665855622315" y="730.0"/>
      <point x="-7.0999999999999925" y="681.8376184078874"/>
      <point x="-7.099999999999994" y="650.0" type="curve"/>
    </contour>
    <contour>
      <point x="32.900001525878906" y="0" type="line"/>
      <point x="112.9000015258789" y="0" type="line"/>
      <point x="112.9000015258789" y="600" type="line"/>
      <point x="32.900001525878906" y="600" type="line"/>
    </contour>
  </outline>
</glyph>
<glyph name="I_with_breve" format="2">
  <advance width="145.8"/>
  <unicode hex="012C"/>
  <outline>
    <contour>
      <point x="-7.099998474121094" y="930" type="line"/>
      <point x="-7.099999999999994" y="885.8468"/>
      <point x="28.746800000000007" y="850.0"/>
      <point x="72.9" y="850.0" type="curve"/>
      <point x="117.0532" y="850.0"/>
      <point x="152.9" y="885.8468"/>
      <point x="152.9" y="930.0" type="curve"/>
    </contour>
    <contour>
      <point x="32.900001525878906" y="0" type="line"/>
      <point x="112.9000015258789" y="0" type="line"/>
      <point x="112.9000015258789" y="800" type="line"/>
      <point x="32.900001525878906" y="800" type="line"/>
    </contour>
  </outline>
</glyph>
<glyph name="i_with_breve" format="2">
  <advance width="145.8"/>
  <unicode hex="012D"/>
  <outline>
    <contour>
      <point x="-7.099998474121094" y="730" type="line"/>
      <point x="-7.099999999999994" y="685.8468"/>
      <point x="28.746800000000007" y="650.0"/>
      <point x="72.9" y="650.0" type="curve"/>
      <point x="117.0532" y="650.0"/>
      <point x="152.9" y="685.8468"/>
      <point x="152.9" y="730.0" type="curve"/>
    </contour>
    <contour>
      <point x="32.900001525878906" y="0" type="line"/>
      <point x="112.9000015258789" y="0" type="line"/>
      <point x="112.9000015258789" y="600" type="line"/>
      <point x="32.900001525878906" y="600" type="line"/>
    </contour>
  </outline>
</glyph>
<glyph name="J_with_circumflex" format="2">
  <advance width="260.8"/>
  <unicode hex="0134"/>
  <outline>
    <contour>
      <point x="100.4" y="850.0" type="line"/>
      <point x="144.5532" y="850.0"/>
      <point x="180.4" y="885.8468"/>
      <point x="180.4" y="930.0" type="curve"/>
      <point x="100.4" y="930.0" type="line"/>
    </contour>
    <contour>
      <point x="185.4" y="930.0" type="line"/>
      <point x="185.4" y="885.8468"/>
      <point x="221.2468" y="850.0"/>
      <point x="265.4" y="850.0" type="curve"/>
      <point x="265.4" y="930.0" type="line"/>
    </contour>
    <contour>
      <point x="147.9000015258789" y="-5" type="line"/>
      <point x="179.73761993376627" y="-5.0"/>
      <point x="227.8999998659703" y="11.317662215356847"/>
      <point x="227.90000004292273" y="95.39413284700446" type="curve"/>
      <point x="227.9000015258789" y="800" type="line"/>
      <point x="147.9000015258789" y="800" type="line"/>
    </contour>
    <contour>
      <point x="117.9" y="35.0" type="curve" smooth="yes"/>
      <point x="117.9" y="59.83618"/>
      <point x="97.73617999999999" y="80.0"/>
      <point x="72.9" y="80.0" type="curve" smooth="yes"/>
      <point x="48.06382" y="80.0"/>
      <point x="27.9" y="59.83618"/>
      <point x="27.9" y="35.0" type="curve" smooth="yes"/>
      <point x="27.9" y="10.16382"/>
      <point x="48.06382" y="-10.0"/>
      <point x="72.9" y="-10.0" type="curve" smooth="yes"/>
      <point x="97.73617999999999" y="-10.0"/>
      <point x="117.9" y="10.16382"/>
    </contour>
  </outline>
</glyph>
<glyph name="j_with_circumflex" format="2">
  <advance width="260.8"/>
  <unicode hex="0135"/>
  <outline>
    <contour>
      <point x="104.15" y="650.0" type="line"/>
      <point x="148.3032" y="650.0"/>
      <point x="184.15" y="685.8468"/>
      <point x="184.15" y="730.0" type="curve"/>
      <point x="104.15" y="730.0" type="line"/>
    </contour>
    <contour>
      <point x="189.15" y="730.0" type="line"/>
      <point x="189.15" y="685.8468"/>
      <point x="224.9968" y="650.0"/>
      <point x="269.15" y="650.0" type="curve"/>
      <point x="269.15" y="730.0" type="line"/>
    </contour>
    <contour>
      <point x="147.9000015258789" y="-210" type="line"/>
      <point x="179.73761993376627" y="-210.0"/>
      <point x="227.89999986688832" y="-193.68233778464315"/>
      <point x="227.90000004262873" y="-109.60586715299554" type="curve"/>
      <point x="227.9000015258789" y="600" type="line"/>
      <point x="147.9000015258789" y="600" type="line"/>
    </contour>
    <contour>
      <point x="115.4" y="-170.0" type="curve" smooth="yes"/>
      <point x="115.4" y="-147.9234"/>
      <point x="97.47659999999999" y="-130.0"/>
      <point x="75.4" y="-130.0" type="curve" smooth="yes"/>
      <point x="53.3234" y="-130.0"/>
      <point x="35.4" y="-147.9234"/>
      <point x="35.4" y="-170.0" type="curve" smooth="yes"/>
      <point x="35.4" y="-192.0766"/>
      <point x="53.3234" y="-210.0"/>
      <point x="75.4" y="-210.0" type="curve" smooth="yes"/>
      <point x="97.47659999999999" y="-210.0"/>
      <point x="115.4" y="-192.0766"/>
    </contour>
  </outline>
</glyph>
<glyph name="k_with_cedilla" format="2">
  <advance width="260.8"/>
  <unicode hex="0137"/>
  <outline>
    <contour>
      <point x="32.900001525878906" y="0" type="line"/>
      <point x="112.9000015258789" y="0" type="line"/>
      <point x="112.9000015258789" y="800" type="line"/>
      <point x="32.900001525878906" y="800" type="line"/>
    </contour>
    <contour>
      <point x="147.9000015258789" y="300" type="line"/>
      <point x="179.73761993376627" y="300.0"/>
      <point x="227.8999995583112" y="316.31766221535685"/>
      <point x="227.9000001414499" y="400.39413284700447" type="curve"/>
      <point x="227.9000015258789" y="600" type="line"/>
      <point x="147.9000015258789" y="600" type="line"/>
    </contour>
    <contour>
      <point x="147.9000015258789" y="0" type="line"/>
      <point x="227.9000015258789" y="0" type="line"/>
      <point x="227.9000015258789" y="199.60586644819992" type="line"/>
      <point x="227.9000015258789" y="283.682336375052"/>
      <point x="179.73761840788734" y="300.0"/>
      <point x="147.9" y="300.0" type="curve"/>
    </contour>
    <contour>
      <point x="205.4" y="-105.0" type="line"/>
      <point x="205.4" y="-60.8468"/>
      <point x="169.5532" y="-25.0"/>
      <point x="125.4" y="-25.0" type="curve"/>
      <point x="125.4" y="-105.0" type="line"/>
    </contour>
  </outline>
</glyph>
<glyph name="l_with_cedilla" format="2">
  <advance width="145.8"/>
  <unicode hex="013C"/>
  <outline>
    <contour>
      <point x="32.900001525878906" y="95.39413283117261" type="line"/>
      <point x="32.90000152587891" y="11.317662904320528"/>
      <point x="81.06238159211266" y="-4.9999999999999964"/>
      <point x="112.9" y="-5.0" type="curve"/>
      <point x="112.9000015258789" y="800" type="line"/>
      <point x="32.900001525878906" y="800" type="line"/>
    </contour>
    <contour>
      <point x="147.9" y="-110.0" type="line"/>
      <point x="147.9" y="-65.8468"/>
      <point x="112.0532" y="-30.0"/>
      <point x="67.9" y="-30.0" type="curve"/>
      <point x="67.9" y="-110.0" type="line"/>
    </contour>
  </outline>
</glyph>
<glyph name="L_with_stroke" format="2">
  <advance width="270.8"/>
  <unicode hex="0141"/>
  <outline>
    <contour>
      <point x="42.900001525878906" y="0" type="line"/>
      <point x="122.9000015258789" y="0" type="line"/>
      <point x="122.9000015258789" y="525.8642425537109" type="line"/>
      <point x="152.2070371687025" y="537.701789842925"/>
      <point x="172.9" y="566.4534141636001"/>
      <point x="172.90000000000003" y="600.0" type="curve"/>
      <point x="122.9000015258789" y="600" type="line"/>
      <point x="122.9000015258789" y="800" type="line"/>
      <point x="42.900001525878906" y="800" type="line"/>
      <point x="42.900001525878906" y="494.1357650756836" type="line"/>
      <point x="13.592962831297513" y="482.29821015707506"/>
      <point x="-7.100000000000005" y="453.5465858364"/>
      <point x="-7.099999999999998" y="420.0" type="curve"/>
      <point x="42.900001525878906" y="420" type="line"/>
    </contour>
    <contour>
      <point x="237.9" y="80.0" type="line"/>
      <point x="193.7468" y="80.0"/>
      <point x="157.9" y="44.1532"/>
      <point x="157.9" y="0.0" type="curve"/>
      <point x="237.9" y="0.0" type="line"/>
    </contour>
  </outline>
</glyph>
<glyph name="l_with_stroke" format="2">
  <advance width="165.8"/>
  <unicode hex="0142"/>
  <outline>
    <contour>
      <point x="42.900001525878906" y="95.39413283117261" type="line"/>
      <point x="42.90000152587891" y="11.317662904320528"/>
      <point x="91.06238159211266" y="-4.9999999999999964"/>
      <point x="122.9" y="-5.0" type="curve"/>
      <point x="122.9000015258789" y="525.8642425537109" type="line"/>
      <point x="152.2070371687025" y="537.701789842925"/>
      <point x="172.9" y="566.4534141636001"/>
      <point x="172.90000000000003" y="600.0" type="curve"/>
      <point x="122.9000015258789" y="600" type="line"/>
      <point x="122.9000015258789" y="800" type="line"/>
      <point x="42.900001525878906" y="800" type="line"/>
      <point x="42.900001525878906" y="494.1357650756836" type="line"/>
      <point x="13.592962831297513" y="482.29821015707506"/>
      <point x="-7.100000000000005" y="453.5465858364"/>
      <point x="-7.099999999999998" y="420.0" type="curve"/>
      <point x="42.900001525878906" y="420" type="line"/>
    </contour>
  </outline>
</glyph>
<glyph name="N_with_acute" format="2">
  <advance width="260.8"/>
  <unicode hex="0143"/>
  <outline>
    <contour>
      <point x="125.4" y="850.0" type="line"/>
      <point x="169.5532" y="850.0"/>
      <point x="205.4" y="885.8468"/>
      <point x="205.4" y="930.0" type="curve"/>
      <point x="125.4" y="930.0" type="line"/>
    </contour>
    <contour>
      <point x="32.900001525878906" y="0" type="line"/>
      <point x="112.9000015258789" y="0" type="line"/>
      <point x="112.9000015258789" y="800" type="line"/>
      <point x="32.900001525878906" y="800" type="line"/>
    </contour>
    <contour>
      <point x="147.9000015258789" y="0" type="line"/>
      <point x="227.9000015258789" y="0" type="line"/>
      <point x="227.9000015258789" y="699.6058664482" type="line"/>
      <point x="227.9000015258789" y="783.682336375052"/>
      <point x="179.73761840788734" y="800.0"/>
      <point x="147.9" y="800.0" type="curve"/>
    </contour>
  </outline>
</glyph>
<glyph name="n_with_acute" format="2">
  <advance width="260.8"/>
  <unicode hex="0144"/>
  <outline>
    <contour>
      <point x="125.4" y="650.0" type="line"/>
      <point x="169.5532" y="650.0"/>
      <point x="205.4" y="685.8468"/>
      <point x="205.4" y="730.0" type="curve"/>
      <point x="125.4" y="730.0" type="line"/>
    </contour>
    <contour>
      <point x="32.900001525878906" y="0" type="line"/>
      <point x="112.9000015258789" y="0" type="line"/>
      <point x="112.9000015258789" y="600" type="line"/>
      <point x="32.900001525878906" y="600" type="line"/>
    </contour>
    <contour>
      <point x="147.9000015258789" y="0" type="line"/>
      <point x="227.9000015258789" y="0" type="line"/>
      <point x="227.9000015258789" y="499.60586644819995" type="line"/>
      <point x="227.9000015258789" y="583.682336375052"/>
      <point x="179.73761840788734" y="600.0"/>
      <point x="147.9" y="600.0" type="curve"/>
    </contour>
  </outline>
</glyph>
<glyph name="n_with_cedilla" format="2">
  <advance width="260.8"/>
  <unicode hex="0146"/>
  <outline>
    <contour>
      <point x="32.900001525878906" y="0" type="line"/>
      <point x="112.9000015258789" y="0" type="line"/>
      <point x="112.9000015258789" y="600" type="line"/>
      <point x="32.900001525878906" y="600" type="line"/>
    </contour>
    <contour>
      <point x="147.9000015258789" y="0" type="line"/>
      <point x="227.9000015258789" y="0" type="line"/>
      <point x="227.9000015258789" y="499.60586644819995" type="line"/>
      <point x="227.9000015258789" y="583.682336375052"/>
      <point x="179.73761840788734" y="600.0"/>
      <point x="147.9" y="600.0" type="curve"/>
    </contour>
    <contour>
      <point x="205.4" y="-105.0" type="line"/>
      <point x="205.4" y="-60.8468"/>
      <point x="169.5532" y="-25.0"/>
      <point x="125.4" y="-25.0" type="curve"/>
      <point x="125.4" y="-105.0" type="line"/>
    </contour>
  </outline>
</glyph>
<glyph name="N_with_caron" format="2">
  <advance width="260.8"/>
  <unicode hex="0147"/>
  <outline>
    <contour>
      <point x="127.9" y="850.0" type="line"/>
      <point x="127.9" y="894.1532"/>
      <point x="92.0532" y="930.0"/>
      <point x="47.900000000000006" y="930.0" type="curve"/>
      <point x="47.900000000000006" y="850.0" type="line"/>
    </contour>
    <contour>
      <point x="212.9" y="930.0" type="line"/>
      <point x="168.7468" y="930.0"/>
      <point x="132.9" y="894.1532"/>
      <point x="132.9" y="850.0" type="curve"/>
      <point x="212.9" y="850.0" type="line"/>
    </contour>
    <contour>
      <point x="32.900001525878906" y="0" type="line"/>
      <point x="112.9000015258789" y="0" type="line"/>
      <point x="112.9000015258789" y="800" type="line"/>
      <point x="32.900001525878906" y="800" type="line"/>
    </contour>
    <contour>
      <point x="147.9000015258789" y="0" type="line"/>
      <point x="227.9000015258789" y="0" type="line"/>
      <point x="227.9000015258789" y="699.6058664482" type="line"/>
      <point x="227.9000015258789" y="783.682336375052"/>
      <point x="179.73761840788734" y="800.0"/>
      <point x="147.9" y="800.0" type="curve"/>
    </contour>
  </outline>
</glyph>
<glyph name="ENG" format="2">
  <advance width="260.8"/>
  <unicode hex="014A"/>
  <outline>
    <contour>
      <point x="32.900001525878906" y="0" type="line"/>
      <point x="112.9000015258789" y="0" type="line"/>
      <point x="112.9000015258789" y="800" type="line"/>
      <point x="32.900001525878906" y="800" type="line"/>
    </contour>
    <contour>
      <point x="147.9000015258789" y="-200" type="line"/>
      <point x="179.73761993376627" y="-200.0"/>
      <point x="227.8999998843196" y="-183.68233778464315"/>
      <point x="227.9000000370464" y="-99.60586715299554" type="curve"/>
      <point x="227.90000148883252" y="699.6058664482" type="line"/>
      <point x="227.9000016415593" y="783.682336375052"/>
      <point x="179.73761840788734" y="800.0"/>
      <point x="147.9" y="800.0" type="curve"/>
    </contour>
  </outline>
</glyph>
<glyph name="eng" format="2">
  <advance width="260.8"/>
  <unicode hex="014B"/>
  <outline>
    <contour>
      <point x="32.900001525878906" y="0" type="line"/>
      <point x="112.9000015258789" y="0" type="line"/>
      <point x="112.9000015258789" y="600" type="line"/>
      <point x="32.900001525878906" y="600" type="line"/>
    </contour>
    <contour>
      <point x="147.9000015258789" y="-200" type="line"/>
      <point x="179.73761993376627" y="-200.0"/>
      <point x="227.8999998481695" y="-183.68233778464315"/>
      <point x="227.9000000486234" y="-99.60586715299554" type="curve"/>
      <point x="227.9000014772555" y="499.60586644819995" type="line"/>
      <point x="227.90000167770944" y="583.682336375052"/>
      <point x="179.73761840788734" y="600.0"/>
      <point x="147.9" y="600.0" type="curve"/>
    </contour>
  </outline>
</glyph>
<glyph name="o_with_macron" format="2">
  <advance width="260.8"/>
  <unicode hex="014D"/>
  <outline>
    <contour>
      <point x="50.400001525878906" y="650" type="line"/>
      <point x="210.4000015258789" y="650" type="line"/>
      <point x="210.4000015258789" y="730" type="line"/>
      <point x="50.400001525878906" y="730" type="line"/>
    </contour>
    <contour>
      <point x="32.90000145672562" y="95.39413283117261" type="line"/>
      <point x="32.90000174181565" y="11.317662904320528"/>
      <point x="81.06238159211266" y="-4.9999999999999964"/>
      <point x="112.9" y="-5.0" type="curve"/>
      <point x="112.9000015258789" y="605" type="line"/>
      <point x="81.06238311799154" y="605.0"/>
      <point x="32.89999978406326" y="588.6823363750522"/>
      <point x="32.900000069153286" y="504.60586574340454" type="curve"/>
    </contour>
    <contour>
      <point x="147.9000015258789" y="-5" type="line"/>
      <point x="179.73761993376627" y="-5.0"/>
      <point x="227.89999978406325" y="11.317662215356847"/>
      <point x="227.9000000691533" y="95.39413284700446" type="curve"/>
      <point x="227.90000145672562" y="504.60586644819995" type="line"/>
      <point x="227.90000174181563" y="588.682336375052"/>
      <point x="179.73761840788734" y="605.0"/>
      <point x="147.9" y="605.0" type="curve"/>
    </contour>
  </outline>
</glyph>
<glyph name="OE" format="2">
  <advance width="490.8"/>
  <unicode hex="0152"/>
  <outline>
    <contour>
      <point x="32.90000147800356" y="95.39413283117261" type="line"/>
      <point x="32.90000167537358" y="11.317662904320528"/>
      <point x="81.06238159211266" y="-4.9999999999999964"/>
      <point x="112.9" y="-5.0" type="curve"/>
      <point x="112.9000015258789" y="805" type="line"/>
      <point x="81.06238311799154" y="805.0"/>
      <point x="32.89999985050534" y="788.682336375052"/>
      <point x="32.90000004787535" y="704.6058657434045" type="curve"/>
    </contour>
    <contour>
      <point x="147.9000015258789" y="-5" type="line"/>
      <point x="179.73761993376627" y="-5.0"/>
      <point x="227.89999985050534" y="11.317662215356847"/>
      <point x="227.90000004787535" y="95.39413284700446" type="curve"/>
      <point x="227.90000147800356" y="704.6058664482" type="line"/>
      <point x="227.90000167537357" y="788.682336375052"/>
      <point x="179.73761840788734" y="805.0"/>
      <point x="147.9" y="805.0" type="curve"/>
    </contour>
    <contour>
      <point x="262.9000015258789" y="0" type="line"/>
      <point x="342.9000015258789" y="0" type="line"/>
      <point x="342.9000015258789" y="800" type="line"/>
      <point x="262.9000015258789" y="800" type="line"/>
    </contour>
    <contour>
      <point x="377.9" y="800.0" type="line"/>
      <point x="377.9" y="755.8468"/>
      <point x="413.74679999999995" y="720.0"/>
      <point x="457.9" y="720.0" type="curve"/>
      <point x="457.9" y="800.0" type="line"/>
    </contour>
    <contour>
      <point x="377.9" y="500.0" type="line"/>
      <point x="377.9" y="455.8468"/>
      <point x="413.74679999999995" y="420.0"/>
      <point x="457.9" y="420.0" type="curve"/>
      <point x="457.9" y="500.0" type="line"/>
    </contour>
    <contour>
      <point x="457.9" y="80.0" type="line"/>
      <point x="413.74679999999995" y="80.0"/>
      <point x="377.9" y="44.1532"/>
      <point x="377.9" y="0.0" type="curve"/>
      <point x="457.9" y="0.0" type="line"/>
    </contour>
  </outline>
</glyph>
<glyph name="oe" format="2">
  <advance width="490.8"/>
  <unicode hex="0153"/>
  <outline>
    <contour>
      <point x="32.90000145672562" y="95.39413283117261" type="line"/>
      <point x="32.90000174181565" y="11.317662904320528"/>
      <point x="81.06238159211266" y="-4.9999999999999964"/>
      <point x="112.9" y="-5.0" type="curve"/>
      <point x="112.9000015258789" y="605" type="line"/>
      <point x="81.06238311799154" y="605.0"/>
      <point x="32.89999978406326" y="588.6823363750522"/>
      <point x="32.900000069153286" y="504.60586574340454" type="curve"/>
    </contour>
    <contour>
      <point x="147.9000015258789" y="-5" type="line"/>
      <point x="179.73761993376627" y="-5.0"/>
      <point x="227.89999978406325" y="11.317662215356847"/>
      <point x="227.9000000691533" y="95.39413284700446" type="curve"/>
      <point x="227.90000145672562" y="504.60586644819995" type="line"/>
      <point x="227.90000174181563" y="588.682336375052"/>
      <point x="179.73761840788734" y="605.0"/>
      <point x="147.9" y="605.0" type="curve"/>
    </contour>
    <contour>
      <point x="262.90000145672565" y="95.39413283117267" type="line"/>
      <point x="262.90000174181563" y="11.317662904320585"/>
      <point x="311.0623815921126" y="-4.9999999999999964"/>
      <point x="342.9" y="-5.0" type="curve"/>
      <point x="342.9000015258789" y="605" type="line"/>
      <point x="311.06238311799154" y="605.0"/>
      <point x="262.89999978406325" y="588.682336375052"/>
      <point x="262.90000006915324" y="504.6058657434045" type="curve"/>
    </contour>
    <contour>
      <point x="377.9000015258789" y="195" type="line"/>
      <point x="457.9000015258789" y="195" type="line"/>
      <point x="457.9000015258789" y="504.60586644819995" type="line"/>
      <point x="457.9000015258789" y="588.682336375052"/>
      <point x="409.73761840788734" y="605.0"/>
      <point x="377.9" y="605.0" type="curve"/>
    </contour>
  </outline>
</glyph>
<glyph name="r_with_cedilla" format="2">
  <advance width="260.8"/>
  <unicode hex="0157"/>
  <outline>
    <contour>
      <point x="232.9" y="560.0" type="curve" smooth="yes"/>
      <point x="232.9" y="584.83618"/>
      <point x="212.73618000000002" y="605.0"/>
      <point x="187.9" y="605.0" type="curve" smooth="yes"/>
      <point x="163.06382" y="605.0"/>
      <point x="142.9" y="584.83618"/>
      <point x="142.9" y="560.0" type="curve" smooth="yes"/>
      <point x="142.9" y="535.16382"/>
      <point x="163.06382" y="515.0"/>
      <point x="187.9" y="515.0" type="curve" smooth="yes"/>
      <point x="212.73618000000002" y="515.0"/>
      <point x="232.9" y="535.16382"/>
    </contour>
    <contour>
      <point x="32.900001525878906" y="0" type="line"/>
      <point x="112.9000015258789" y="0" type="line"/>
      <point x="112.9000015258789" y="600" type="line"/>
      <point x="32.900001525878906" y="600" type="line"/>
    </contour>
    <contour>
      <point x="207.9" y="-105.0" type="line"/>
      <point x="207.9" y="-60.8468"/>
      <point x="172.0532" y="-25.0"/>
      <point x="127.9" y="-25.0" type="curve"/>
      <point x="127.9" y="-105.0" type="line"/>
    </contour>
  </outline>
</glyph>
<glyph name="R_with_caron" format="2">
  <advance width="260.8"/>
  <unicode hex="0158"/>
  <outline>
    <contour>
      <point x="127.9" y="850.0" type="line"/>
      <point x="127.9" y="894.1532"/>
      <point x="92.0532" y="930.0"/>
      <point x="47.900000000000006" y="930.0" type="curve"/>
      <point x="47.900000000000006" y="850.0" type="line"/>
    </contour>
    <contour>
      <point x="212.9" y="930.0" type="line"/>
      <point x="168.7468" y="930.0"/>
      <point x="132.9" y="894.1532"/>
      <point x="132.9" y="850.0" type="curve"/>
      <point x="212.9" y="850.0" type="line"/>
    </contour>
    <contour>
      <point x="32.900001525878906" y="0" type="line"/>
      <point x="112.9000015258789" y="0" type="line"/>
      <point x="112.9000015258789" y="800" type="line"/>
      <point x="32.900001525878906" y="800" type="line"/>
    </contour>
    <contour>
      <point x="147.9000015258789" y="200" type="line"/>
      <point x="179.73761993376627" y="200.0"/>
      <point x="227.89999977915562" y="216.31766221535685"/>
      <point x="227.90000007072496" y="300.39413284700447" type="curve"/>
      <point x="227.90000145515396" y="699.6058664482" type="line"/>
      <point x="227.90000174672332" y="783.682336375052"/>
      <point x="179.73761840788734" y="800.0"/>
      <point x="147.9" y="800.0" type="curve"/>
    </contour>
    <contour>
      <point x="147.9000015258789" y="0" type="line"/>
      <point x="227.9000015258789" y="0" type="line"/>
      <point x="227.9000015258789" y="99.60586644819995" type="line"/>
      <point x="227.9000015258789" y="183.68233637505205"/>
      <point x="179.73761840788734" y="200.0"/>
      <point x="147.9" y="200.0" type="curve"/>
    </contour>
  </outline>
</glyph>
<glyph name="r_with_caron" format="2">
  <advance width="260.8"/>
  <unicode hex="0159"/>
  <outline>
    <contour>
      <point x="130.4" y="650.0" type="line"/>
      <point x="130.4" y="694.1532"/>
      <point x="94.5532" y="730.0"/>
      <point x="50.400000000000006" y="730.0" type="curve"/>
      <point x="50.400000000000006" y="650.0" type="line"/>
    </contour>
    <contour>
      <point x="215.4" y="730.0" type="line"/>
      <point x="171.2468" y="730.0"/>
      <point x="135.4" y="694.1532"/>
      <point x="135.4" y="650.0" type="curve"/>
      <point x="215.4" y="650.0" type="line"/>
    </contour>
    <contour>
      <point x="232.9" y="560.0" type="curve" smooth="yes"/>
      <point x="232.9" y="584.83618"/>
      <point x="212.73618000000002" y="605.0"/>
      <point x="187.9" y="605.0" type="curve" smooth="yes"/>
      <point x="163.06382" y="605.0"/>
      <point x="142.9" y="584.83618"/>
      <point x="142.9" y="560.0" type="curve" smooth="yes"/>
      <point x="142.9" y="535.16382"/>
      <point x="163.06382" y="515.0"/>
      <point x="187.9" y="515.0" type="curve" smooth="yes"/>
      <point x="212.73618000000002" y="515.0"/>
      <point x="232.9" y="535.16382"/>
    </contour>
    <contour>
      <point x="32.900001525878906" y="0" type="line"/>
      <point x="112.9000015258789" y="0" type="line"/>
      <point x="112.9000015258789" y="600" type="line"/>
      <point x="32.900001525878906" y="600" type="line"/>
    </contour>
  </outline>
</glyph>
<glyph name="T_with_cedilla" format="2">
  <advance width="375.8"/>
  <unicode hex="0162"/>
  <outline>
    <contour>
      <point x="32.9" y="720.0" type="line"/>
      <point x="77.0532" y="720.0"/>
      <point x="112.9" y="755.8468"/>
      <point x="112.9" y="800.0" type="curve"/>
      <point x="32.9" y="800.0" type="line"/>
    </contour>
    <contour>
      <point x="147.9000015258789" y="0" type="line"/>
      <point x="227.9000015258789" y="0" type="line"/>
      <point x="227.9000015258789" y="800" type="line"/>
      <point x="147.9000015258789" y="800" type="line"/>
    </contour>
    <contour>
      <point x="262.9" y="800.0" type="line"/>
      <point x="262.9" y="755.8468"/>
      <point x="298.74679999999995" y="720.0"/>
      <point x="342.9" y="720.0" type="curve"/>
      <point x="342.9" y="800.0" type="line"/>
    </contour>
    <contour>
      <point x="262.9" y="-105.0" type="line"/>
      <point x="262.9" y="-60.8468"/>
      <point x="227.0532" y="-25.0"/>
      <point x="182.9" y="-25.0" type="curve"/>
      <point x="182.9" y="-105.0" type="line"/>
    </contour>
  </outline>
</glyph>
<glyph name="w_with_circumflex" format="2">
  <advance width="375.8"/>
  <unicode hex="0175"/>
  <outline>
    <contour>
      <point x="105.4" y="650.0" type="line"/>
      <point x="149.5532" y="650.0"/>
      <point x="185.4" y="685.8468"/>
      <point x="185.4" y="730.0" type="curve"/>
      <point x="105.4" y="730.0" type="line"/>
    </contour>
    <contour>
      <point x="190.4" y="730.0" type="line"/>
      <point x="190.4" y="685.8468"/>
      <point x="226.2468" y="650.0"/>
      <point x="270.4" y="650.0" type="curve"/>
      <point x="270.4" y="730.0" type="line"/>
    </contour>
    <contour>
      <point x="32.900001466034716" y="100.39413283117261" type="line"/>
      <point x="32.90000171274725" y="16.317662904320528"/>
      <point x="81.06238159211266" y="3.898983747569409e-15"/>
      <point x="112.9" y="0.0" type="curve"/>
      <point x="112.90000146603471" y="499.60586644819995" type="line"/>
      <point x="112.90000171274724" y="583.682336375052"/>
      <point x="64.73761840788734" y="600.0"/>
      <point x="32.9" y="600.0" type="curve"/>
    </contour>
    <contour>
      <point x="147.9000015258789" y="0" type="line"/>
      <point x="227.9000015258789" y="0" type="line"/>
      <point x="227.9000015258789" y="499.60586644819995" type="line"/>
      <point x="227.9000015258789" y="583.682336375052"/>
      <point x="179.73761840788734" y="600.0"/>
      <point x="147.9" y="600.0" type="curve"/>
    </contour>
    <contour>
      <point x="262.9000015258789" y="0" type="line"/>
      <point x="294.73761993376627" y="0.0"/>
      <point x="342.89999981313167" y="16.317662215356876"/>
      <point x="342.90000005984416" y="100.39413284700449" type="curve"/>
      <point x="342.9000015258789" y="600" type="line"/>
      <point x="262.9000015258789" y="600" type="line"/>
    </contour>
  </outline>
</glyph>
<glyph name="y_with_circumflex" format="2">
  <advance width="260.8"/>
  <unicode hex="0177"/>
  <outline>
    <contour>
      <point x="47.900000000000006" y="650.0" type="line"/>
      <point x="92.0532" y="650.0"/>
      <point x="127.9" y="685.8468"/>
      <point x="127.9" y="730.0" type="curve"/>
      <point x="47.900000000000006" y="730.0" type="line"/>
    </contour>
    <contour>
      <point x="132.9" y="730.0" type="line"/>
      <point x="132.9" y="685.8468"/>
      <point x="168.7468" y="650.0"/>
      <point x="212.9" y="650.0" type="curve"/>
      <point x="212.9" y="730.0" type="line"/>
    </contour>
    <contour>
      <point x="32.900001466604664" y="100.39413283117261" type="line"/>
      <point x="32.900001710967544" y="16.317662904320528"/>
      <point x="81.06238159211266" y="3.898983747569409e-15"/>
      <point x="112.9" y="0.0" type="curve"/>
      <point x="112.90000146660466" y="504.60586644819995" type="line"/>
      <point x="112.90000171096754" y="588.682336375052"/>
      <point x="64.73761840788734" y="605.0"/>
      <point x="32.9" y="605.0" type="curve"/>
    </contour>
    <contour>
      <point x="147.9000015258789" y="-210" type="line"/>
      <point x="179.73761993376627" y="-210.0"/>
      <point x="227.89999986688832" y="-193.68233778464315"/>
      <point x="227.90000004262873" y="-109.60586715299554" type="curve"/>
      <point x="227.9000015258789" y="600" type="line"/>
      <point x="147.9000015258789" y="600" type="line"/>
    </contour>
    <contour>
      <point x="115.4" y="-170.0" type="curve" smooth="yes"/>
      <point x="115.4" y="-147.9234"/>
      <point x="97.47659999999999" y="-130.0"/>
      <point x="75.4" y="-130.0" type="curve" smooth="yes"/>
      <point x="53.3234" y="-130.0"/>
      <point x="35.4" y="-147.9234"/>
      <point x="35.4" y="-170.0" type="curve" smooth="yes"/>
      <point x="35.4" y="-192.0766"/>
      <point x="53.3234" y="-210.0"/>
      <point x="75.4" y="-210.0" type="curve" smooth="yes"/>
      <point x="97.47659999999999" y="-210.0"/>
      <point x="115.4" y="-192.0766"/>
    </contour>
  </outline>
</glyph>
<glyph name="Y_with_diaeresis" format="2">
  <advance width="260.8"/>
  <unicode hex="0178"/>
  <outline>
    <contour>
      <point x="116.65" y="890.0" type="curve" smooth="yes"/>
      <point x="116.65" y="914.83618"/>
      <point x="96.48618" y="935.0"/>
      <point x="71.65" y="935.0" type="curve" smooth="yes"/>
      <point x="46.81382000000001" y="935.0"/>
      <point x="26.650000000000006" y="914.83618"/>
      <point x="26.650000000000006" y="890.0" type="curve" smooth="yes"/>
      <point x="26.650000000000006" y="865.16382"/>
      <point x="46.81382000000001" y="845.0"/>
      <point x="71.65" y="845.0" type="curve" smooth="yes"/>
      <point x="96.48618" y="845.0"/>
      <point x="116.65" y="865.16382"/>
    </contour>
    <contour>
      <point x="231.65" y="890.0" type="curve" smooth="yes"/>
      <point x="231.65" y="914.83618"/>
      <point x="211.48618000000002" y="935.0"/>
      <point x="186.65" y="935.0" type="curve" smooth="yes"/>
      <point x="161.81382" y="935.0"/>
      <point x="141.65" y="914.83618"/>
      <point x="141.65" y="890.0" type="curve" smooth="yes"/>
      <point x="141.65" y="865.16382"/>
      <point x="161.81382" y="845.0"/>
      <point x="186.65" y="845.0" type="curve" smooth="yes"/>
      <point x="211.48618000000002" y="845.0"/>
      <point x="231.65" y="865.16382"/>
    </contour>
    <contour>
      <point x="32.900001466604664" y="300.3941328311726" type="line"/>
      <point x="32.900001710967544" y="216.3176629043205"/>
      <point x="81.06238159211266" y="200.0"/>
      <point x="112.9" y="200.0" type="curve"/>
      <point x="112.90000146660466" y="704.6058664482" type="line"/>
      <point x="112.90000171096754" y="788.682336375052"/>
      <point x="64.73761840788734" y="805.0"/>
      <point x="32.9" y="805.0" type="curve"/>
    </contour>
    <contour>
      <point x="147.9000015258789" y="-5" type="line"/>
      <point x="179.73761993376627" y="-5.0"/>
      <point x="227.8999998659703" y="11.317662215356847"/>
      <point x="227.90000004292273" y="95.39413284700446" type="curve"/>
      <point x="227.9000015258789" y="800" type="line"/>
      <point x="147.9000015258789" y="800" type="line"/>
    </contour>
    <contour>
      <point x="120.4" y="30.0" type="curve" smooth="yes"/>
      <point x="120.4" y="54.83618"/>
      <point x="100.23617999999999" y="75.0"/>
      <point x="75.4" y="75.0" type="curve" smooth="yes"/>
      <point x="50.56382" y="75.0"/>
      <point x="30.4" y="54.83618"/>
      <point x="30.4" y="30.0" type="curve" smooth="yes"/>
      <point x="30.4" y="5.16382"/>
      <point x="50.56382" y="-15.0"/>
      <point x="75.4" y="-15.0" type="curve" smooth="yes"/>
      <point x="100.23617999999999" y="-15.0"/>
      <point x="120.4" y="5.16382"/>
    </contour>
  </outline>
</glyph>
<glyph name="Z_with_dotabove" format="2">
  <advance width="260.8"/>
  <unicode hex="017B"/>
  <outline>
    <contour>
      <point x="175.4" y="890.0" type="curve" smooth="yes"/>
      <point x="175.4" y="914.83618"/>
      <point x="155.23618" y="935.0"/>
      <point x="130.4" y="935.0" type="curve" smooth="yes"/>
      <point x="105.56382" y="935.0"/>
      <point x="85.4" y="914.83618"/>
      <point x="85.4" y="890.0" type="curve" smooth="yes"/>
      <point x="85.4" y="865.16382"/>
      <point x="105.56382" y="845.0"/>
      <point x="130.4" y="845.0" type="curve" smooth="yes"/>
      <point x="155.23618" y="845.0"/>
      <point x="175.4" y="865.16382"/>
    </contour>
    <contour>
      <point x="32.9" y="720.0" type="line"/>
      <point x="77.0532" y="720.0"/>
      <point x="112.9" y="755.8468"/>
      <point x="112.9" y="800.0" type="curve"/>
      <point x="32.9" y="800.0" type="line"/>
    </contour>
    <contour>
      <point x="147.9000015258789" y="360" type="line"/>
      <point x="179.73761993376627" y="360.0"/>
      <point x="227.8999997300791" y="376.31766221535685"/>
      <point x="227.90000008644162" y="460.39413284700447" type="curve"/>
      <point x="227.9000015258789" y="800" type="line"/>
      <point x="147.9000015258789" y="800" type="line"/>
    </contour>
    <contour>
      <point x="32.900001525878906" y="0" type="line"/>
      <point x="112.9000015258789" y="0" type="line"/>
      <point x="112.9000015258789" y="440" type="line"/>
      <point x="81.06238311799154" y="440.0"/>
      <point x="32.89999973007907" y="423.6823363750521"/>
      <point x="32.90000008644161" y="339.6058657434045" type="curve"/>
    </contour>
    <contour>
      <point x="227.9" y="80.0" type="line"/>
      <point x="183.7468" y="80.0"/>
      <point x="147.9" y="44.1532"/>
      <point x="147.9" y="0.0" type="curve"/>
      <point x="227.9" y="0.0" type="line"/>
    </contour>
  </outline>
</glyph>
<glyph name="z_with_dotabove" format="2">
  <advance width="260.8"/>
  <unicode hex="017C"/>
  <outline>
    <contour>
      <point x="175.4" y="690.0" type="curve" smooth="yes"/>
      <point x="175.4" y="714.83618"/>
      <point x="155.23618" y="735.0"/>
      <point x="130.4" y="735.0" type="curve" smooth="yes"/>
      <point x="105.56382" y="735.0"/>
      <point x="85.4" y="714.83618"/>
      <point x="85.4" y="690.0" type="curve" smooth="yes"/>
      <point x="85.4" y="665.16382"/>
      <point x="105.56382" y="645.0"/>
      <point x="130.4" y="645.0" type="curve" smooth="yes"/>
      <point x="155.23618" y="645.0"/>
      <point x="175.4" y="665.16382"/>
    </contour>
    <contour>
      <point x="32.9" y="520.0" type="line"/>
      <point x="77.0532" y="520.0"/>
      <point x="112.9" y="555.8468"/>
      <point x="112.9" y="600.0" type="curve"/>
      <point x="32.9" y="600.0" type="line"/>
    </contour>
    <contour>
      <point x="147.9000015258789" y="260" type="line"/>
      <point x="179.73761993376627" y="260.0"/>
      <point x="227.89999962626334" y="276.31766221535685"/>
      <point x="227.90000011968837" y="360.39413284700447" type="curve"/>
      <point x="227.9000015258789" y="600" type="line"/>
      <point x="147.9000015258789" y="600" type="line"/>
    </contour>
    <contour>
      <point x="32.900001525878906" y="0" type="line"/>
      <point x="112.9000015258789" y="0" type="line"/>
      <point x="112.9000015258789" y="340" type="line"/>
      <point x="81.06238311799154" y="340.0"/>
      <point x="32.89999962626333" y="323.6823363750521"/>
      <point x="32.90000011968838" y="239.60586574340448" type="curve"/>
    </contour>
    <contour>
      <point x="227.9" y="80.0" type="line"/>
      <point x="183.7468" y="80.0"/>
      <point x="147.9" y="44.1532"/>
      <point x="147.9" y="0.0" type="curve"/>
      <point x="227.9" y="0.0" type="line"/>
    </contour>
  </outline>
</glyph>
<glyph name="florin" format="2">
  <advance width="375.8"/>
  <unicode hex="0192"/>
  <outline>
    <contour>
      <point x="147.9000015258789" y="0" type="line"/>
      <point x="179.73761993376627" y="0.0"/>
      <point x="227.8999998659703" y="16.317662215356847"/>
      <point x="227.90000004292273" y="100.39413284700446" type="curve"/>
      <point x="227.9000015258789" y="805" type="line"/>
      <point x="196.06238311799154" y="805.0"/>
      <point x="147.8999998659703" y="788.682336375052"/>
      <point x="147.90000004292273" y="704.6058657434045" type="curve"/>
    </contour>
    <contour>
      <point x="347.9" y="760.0" type="curve" smooth="yes"/>
      <point x="347.9" y="784.83618"/>
      <point x="327.73618" y="805.0"/>
      <point x="302.9" y="805.0" type="curve" smooth="yes"/>
      <point x="278.06381999999996" y="805.0"/>
      <point x="257.9" y="784.83618"/>
      <point x="257.9" y="760.0" type="curve" smooth="yes"/>
      <point x="257.9" y="735.16382"/>
      <point x="278.06381999999996" y="715.0"/>
      <point x="302.9" y="715.0" type="curve" smooth="yes"/>
      <point x="327.73618" y="715.0"/>
      <point x="347.9" y="735.16382"/>
    </contour>
    <contour>
      <point x="62.900001525878906" y="430" type="line"/>
      <point x="112.9000015258789" y="430" type="line"/>
      <point x="112.9000015258789" y="470" type="line"/>
      <point x="62.900001525878906" y="470" type="line"/>
    </contour>
    <contour>
      <point x="262.9000015258789" y="430" type="line"/>
      <point x="322.9000015258789" y="430" type="line"/>
      <point x="322.9000015258789" y="470" type="line"/>
      <point x="262.9000015258789" y="470" type="line"/>
    </contour>
    <contour>
      <point x="117.9" y="40.0" type="curve" smooth="yes"/>
      <point x="117.9" y="64.83618"/>
      <point x="97.73617999999999" y="85.0"/>
      <point x="72.9" y="85.0" type="curve" smooth="yes"/>
      <point x="48.06382" y="85.0"/>
      <point x="27.9" y="64.83618"/>
      <point x="27.9" y="40.0" type="curve" smooth="yes"/>
      <point x="27.9" y="15.16382"/>
      <point x="48.06382" y="-5.0"/>
      <point x="72.9" y="-5.0" type="curve" smooth="yes"/>
      <point x="97.73617999999999" y="-5.0"/>
      <point x="117.9" y="15.16382"/>
    </contour>
  </outline>
</glyph>
<glyph name="g_with_caron" format="2">
  <advance width="260.8"/>
  <unicode hex="01E7"/>
  <outline>
    <contour>
      <point x="127.9" y="650.0" type="line"/>
      <point x="127.9" y="694.1532"/>
      <point x="92.0532" y="730.0"/>
      <point x="47.900000000000006" y="730.0" type="curve"/>
      <point x="47.900000000000006" y="650.0" type="line"/>
    </contour>
    <contour>
      <point x="212.9" y="730.0" type="line"/>
      <point x="168.7468" y="730.0"/>
      <point x="132.9" y="694.1532"/>
      <point x="132.9" y="650.0" type="curve"/>
      <point x="212.9" y="650.0" type="line"/>
    </contour>
    <contour>
      <point x="32.900001455153955" y="100.39413283117261" type="line"/>
      <point x="32.900001746723305" y="16.317662904320528"/>
      <point x="81.06238159211266" y="3.898983747569409e-15"/>
      <point x="112.9" y="0.0" type="curve"/>
      <point x="112.9000015258789" y="600" type="line"/>
      <point x="81.06238311799154" y="600.0"/>
      <point x="32.89999977915561" y="583.6823363750522"/>
      <point x="32.90000007072495" y="499.60586574340454" type="curve"/>
    </contour>
    <contour>
      <point x="147.9000015258789" y="-210" type="line"/>
      <point x="179.73761993376627" y="-210.0"/>
      <point x="227.89999986688832" y="-193.68233778464315"/>
      <point x="227.90000004262873" y="-109.60586715299554" type="curve"/>
      <point x="227.9000015258789" y="600" type="line"/>
      <point x="147.9000015258789" y="600" type="line"/>
    </contour>
    <contour>
      <point x="115.4" y="-170.0" type="curve" smooth="yes"/>
      <point x="115.4" y="-147.9234"/>
      <point x="97.47659999999999" y="-130.0"/>
      <point x="75.4" y="-130.0" type="curve" smooth="yes"/>
      <point x="53.3234" y="-130.0"/>
      <point x="35.4" y="-147.9234"/>
      <point x="35.4" y="-170.0" type="curve" smooth="yes"/>
      <point x="35.4" y="-192.0766"/>
      <point x="53.3234" y="-210.0"/>
      <point x="75.4" y="-210.0" type="curve" smooth="yes"/>
      <point x="97.47659999999999" y="-210.0"/>
      <point x="115.4" y="-192.0766"/>
    </contour>
  </outline>
</glyph>
<glyph name="AE_with_acute" format="2">
  <advance width="490.8"/>
  <unicode hex="01FC"/>
  <outline>
    <contour>
      <point x="240.4" y="850.0" type="line"/>
      <point x="284.5532" y="850.0"/>
      <point x="320.4" y="885.8468"/>
      <point x="320.4" y="930.0" type="curve"/>
      <point x="240.4" y="930.0" type="line"/>
    </contour>
    <contour>
      <point x="32.900001525878906" y="0" type="line"/>
      <point x="112.9000015258789" y="0" type="line"/>
      <point x="112.9000015258789" y="805" type="line"/>
      <point x="81.06238311799154" y="805.0"/>
      <point x="32.899999865970294" y="788.682336375052"/>
      <point x="32.90000004292273" y="704.6058657434045" type="curve"/>
    </contour>
    <contour>
      <point x="147.9000015258789" y="0" type="line"/>
      <point x="227.9000015258789" y="0" type="line"/>
      <point x="227.9000015258789" y="704.6058664482" type="line"/>
      <point x="227.9000015258789" y="788.682336375052"/>
      <point x="179.73761840788734" y="805.0"/>
      <point x="147.9" y="805.0" type="curve"/>
    </contour>
    <contour>
      <point x="262.9000015258789" y="0" type="line"/>
      <point x="342.9000015258789" y="0" type="line"/>
      <point x="342.9000015258789" y="800" type="line"/>
      <point x="262.9000015258789" y="800" type="line"/>
    </contour>
    <contour>
      <point x="377.9" y="800.0" type="line"/>
      <point x="377.9" y="755.8468"/>
      <point x="413.74679999999995" y="720.0"/>
      <point x="457.9" y="720.0" type="curve"/>
      <point x="457.9" y="800.0" type="line"/>
    </contour>
    <contour>
      <point x="377.9" y="500.0" type="line"/>
      <point x="377.9" y="455.8468"/>
      <point x="413.74679999999995" y="420.0"/>
      <point x="457.9" y="420.0" type="curve"/>
      <point x="457.9" y="500.0" type="line"/>
    </contour>
    <contour>
      <point x="457.9" y="80.0" type="line"/>
      <point x="413.74679999999995" y="80.0"/>
      <point x="377.9" y="44.1532"/>
      <point x="377.9" y="0.0" type="curve"/>
      <point x="457.9" y="0.0" type="line"/>
    </contour>
  </outline>
</glyph>
<glyph name="A_with_breveinv" format="2">
  <advance width="260.8"/>
  <unicode hex="0202"/>
  <outline>
    <contour>
      <point x="210.4000015258789" y="850" type="line"/>
      <point x="210.4" y="894.1532"/>
      <point x="174.5532" y="930.0"/>
      <point x="130.4" y="930.0" type="curve"/>
      <point x="86.24680000000001" y="930.0"/>
      <point x="50.400000000000006" y="894.1532"/>
      <point x="50.400000000000006" y="850.0" type="curve"/>
    </contour>
    <contour>
      <point x="32.900001525878906" y="0" type="line"/>
      <point x="112.9000015258789" y="0" type="line"/>
      <point x="112.9000015258789" y="805" type="line"/>
      <point x="81.06238311799154" y="805.0"/>
      <point x="32.899999865970294" y="788.682336375052"/>
      <point x="32.90000004292273" y="704.6058657434045" type="curve"/>
    </contour>
    <contour>
      <point x="147.9000015258789" y="0" type="line"/>
      <point x="227.9000015258789" y="0" type="line"/>
      <point x="227.9000015258789" y="704.6058664482" type="line"/>
      <point x="227.9000015258789" y="788.682336375052"/>
      <point x="179.73761840788734" y="805.0"/>
      <point x="147.9" y="805.0" type="curve"/>
    </contour>
  </outline>
</glyph>
<glyph name="I_with_gravedbl" format="2">
  <advance width="145.8"/>
  <unicode hex="0208"/>
  <outline>
    <contour>
      <point x="-24.599999999999994" y="930.0" type="line"/>
      <point x="-24.599999999999994" y="885.8468"/>
      <point x="11.246800000000007" y="850.0"/>
      <point x="55.400000000000006" y="850.0" type="curve"/>
      <point x="55.400000000000006" y="930.0" type="line"/>
    </contour>
    <contour>
      <point x="90.4" y="930.0" type="line"/>
      <point x="90.4" y="885.8468"/>
      <point x="126.24680000000001" y="850.0"/>
      <point x="170.4" y="850.0" type="curve"/>
      <point x="170.4" y="930.0" type="line"/>
    </contour>
    <contour>
      <point x="32.900001525878906" y="0" type="line"/>
      <point x="112.9000015258789" y="0" type="line"/>
      <point x="112.9000015258789" y="800" type="line"/>
      <point x="32.900001525878906" y="800" type="line"/>
    </contour>
  </outline>
</glyph>
<glyph name="i_with_gravedbl" format="2">
  <advance width="145.8"/>
  <unicode hex="0209"/>
  <outline>
    <contour>
      <point x="-24.599999999999994" y="730.0" type="line"/>
      <point x="-24.599999999999994" y="685.8468"/>
      <point x="11.246800000000007" y="650.0"/>
      <point x="55.400000000000006" y="650.0" type="curve"/>
      <point x="55.400000000000006" y="730.0" type="line"/>
    </contour>
    <contour>
      <point x="90.4" y="730.0" type="line"/>
      <point x="90.4" y="685.8468"/>
      <point x="126.24680000000001" y="650.0"/>
      <point x="170.4" y="650.0" type="curve"/>
      <point x="170.4" y="730.0" type="line"/>
    </contour>
    <contour>
      <point x="32.900001525878906" y="0" type="line"/>
      <point x="112.9000015258789" y="0" type="line"/>
      <point x="112.9000015258789" y="600" type="line"/>
      <point x="32.900001525878906" y="600" type="line"/>
    </contour>
  </outline>
</glyph>
<glyph name="o_with_gravedbl" format="2">
  <advance width="260.8"/>
  <unicode hex="020D"/>
  <outline>
    <contour>
      <point x="32.900000000000006" y="730.0" type="line"/>
      <point x="32.900000000000006" y="685.8468"/>
      <point x="68.74680000000001" y="650.0"/>
      <point x="112.9" y="650.0" type="curve"/>
      <point x="112.9" y="730.0" type="line"/>
    </contour>
    <contour>
      <point x="147.9" y="730.0" type="line"/>
      <point x="147.9" y="685.8468"/>
      <point x="183.7468" y="650.0"/>
      <point x="227.9" y="650.0" type="curve"/>
      <point x="227.9" y="730.0" type="line"/>
    </contour>
    <contour>
      <point x="32.90000145672562" y="95.39413283117261" type="line"/>
      <point x="32.90000174181565" y="11.317662904320528"/>
      <point x="81.06238159211266" y="-4.9999999999999964"/>
      <point x="112.9" y="-5.0" type="curve"/>
      <point x="112.9000015258789" y="605" type="line"/>
      <point x="81.06238311799154" y="605.0"/>
      <point x="32.89999978406326" y="588.6823363750522"/>
      <point x="32.900000069153286" y="504.60586574340454" type="curve"/>
    </contour>
    <contour>
      <point x="147.9000015258789" y="-5" type="line"/>
      <point x="179.73761993376627" y="-5.0"/>
      <point x="227.89999978406325" y="11.317662215356847"/>
      <point x="227.9000000691533" y="95.39413284700446" type="curve"/>
      <point x="227.90000145672562" y="504.60586644819995" type="line"/>
      <point x="227.90000174181563" y="588.682336375052"/>
      <point x="179.73761840788734" y="605.0"/>
      <point x="147.9" y="605.0" type="curve"/>
    </contour>
  </outline>
</glyph>
